<svg width="28" height="28" viewBox="0 0 28 28" fill="none" xmlns="http://www.w3.org/2000/svg">
<g clip-path="url(#clip0_15_29)">
<path fill-rule="evenodd" clip-rule="evenodd" d="M10.2324 0.932859C9.52358 0.32443 8.61851 -0.00689217 7.6844 0.000108719H3.86065C3.05308 0.00127247 2.26613 0.255206 1.61019 0.72629C0.954251 1.19737 0.462232 1.86197 0.203151 2.62686C0.0316514 3.13436 -0.0330986 3.67336 0.0159014 4.20711L0.0176514 4.22811C0.458699 8.36996 1.8707 12.3493 4.1389 15.8429C6.3964 19.3201 8.71515 21.6249 12.1819 23.8701C15.6684 26.1264 19.6348 27.5348 23.7634 27.9826H23.7879C24.323 28.0303 24.8621 27.9659 25.371 27.7937C25.8798 27.6214 26.3472 27.345 26.7433 26.9822C27.1394 26.6193 27.4556 26.1779 27.6717 25.6861C27.8878 25.1943 27.9991 24.6628 27.9984 24.1256V23.9944C27.9949 23.3241 27.9844 20.8951 27.9984 20.3421C28.0221 19.3951 27.6964 18.4725 27.0835 17.7502C26.4707 17.0279 25.6134 16.5564 24.6752 16.4256H24.6629C23.5364 16.2764 22.4304 16.0005 21.3659 15.6031C20.6749 15.3445 19.9243 15.289 19.2027 15.4431C18.4812 15.5972 17.8188 15.9545 17.2937 16.4729L16.3924 17.3706C14.064 15.885 12.0858 13.9117 10.5947 11.5869L11.4872 10.6961L11.4924 10.6909C12.0118 10.1668 12.37 9.50476 12.5244 8.78327C12.6789 8.06179 12.6232 7.31114 12.3639 6.62036C11.9663 5.55829 11.6904 4.45458 11.5414 3.33036V3.31811C11.4093 2.39041 10.944 1.54253 10.2324 0.932859ZM7.7019 2.62511C8.00108 2.6226 8.29111 2.72813 8.51873 2.92231C8.74634 3.11649 8.89624 3.38627 8.9409 3.68211C9.1159 4.99986 9.43965 6.29486 9.9034 7.54086L9.90515 7.54261C9.98829 7.76267 10.0066 8.00195 9.9579 8.23209C9.90921 8.46223 9.79555 8.67359 9.6304 8.84111L8.0134 10.4564C7.80966 10.6597 7.6784 10.9243 7.63982 11.2095C7.60124 11.4947 7.65749 11.7847 7.7999 12.0349C9.73421 15.4287 12.5486 18.2376 15.9462 20.1654C16.1957 20.3071 16.4849 20.3632 16.7693 20.3249C17.0538 20.2867 17.3179 20.1563 17.5212 19.9536L19.1364 18.3419L19.1399 18.3384C19.3089 18.1732 19.5214 18.0596 19.7526 18.0109C19.9839 17.9622 20.2242 17.9805 20.4454 18.0636H20.4489C21.6967 18.5291 22.9934 18.8511 24.3147 19.0261C24.6134 19.0699 24.8859 19.2212 25.0811 19.4515C25.2764 19.6818 25.3809 19.9755 25.3752 20.2774C25.3662 21.5222 25.3662 22.767 25.3752 24.0119V24.1344C25.3769 24.3939 25.2964 24.6474 25.1451 24.8583C24.9939 25.0693 24.7798 25.2269 24.5334 25.3086C24.3725 25.363 24.2022 25.3839 24.0329 25.3699C20.3166 24.9648 16.7466 23.6961 13.6082 21.6651C10.4494 19.6211 8.3949 17.5789 6.3404 14.4131C4.29982 11.2693 3.0288 7.68887 2.6304 3.96211C2.60826 3.70584 2.66711 3.44909 2.79867 3.22805C2.93022 3.00702 3.12784 2.83285 3.36365 2.73011C3.52115 2.66011 3.6909 2.62511 3.86415 2.62511H7.7019Z" fill="white"/>
<path d="M18.0829 0.00953441C17.9087 -0.0155781 17.7313 -0.00542872 17.5612 0.0393793C17.3911 0.0841872 17.2317 0.162739 17.0926 0.270367C16.9534 0.377994 16.8373 0.5125 16.7511 0.66589C16.665 0.81928 16.6106 0.988424 16.5911 1.16327C16.5716 1.33811 16.5875 1.51509 16.6377 1.68368C16.688 1.85227 16.7717 2.00903 16.8837 2.14464C16.9958 2.28026 17.134 2.39196 17.2901 2.47311C17.4462 2.55427 17.617 2.60321 17.7924 2.61703C19.7301 2.83197 21.5371 3.6995 22.9167 5.07714C24.2962 6.45477 25.1662 8.2606 25.3839 10.198C25.432 10.5359 25.6099 10.8418 25.8797 11.0507C26.1496 11.2597 26.4903 11.3553 26.8294 11.3172C27.1686 11.2792 27.4796 11.1106 27.6966 10.8471C27.9135 10.5836 28.0192 10.2459 27.9914 9.90578C27.7072 7.37693 26.5716 5.01985 24.7711 3.22154C22.9705 1.42323 20.6121 0.290574 18.0829 0.00953441Z" fill="white"/>
<path d="M18.1895 4.42766C18.0195 4.39246 17.8443 4.39133 17.6739 4.42432C17.5035 4.45731 17.3413 4.52378 17.1967 4.61987C17.0522 4.71596 16.9281 4.83977 16.8318 4.98413C16.7354 5.12849 16.6686 5.29053 16.6353 5.46088C16.6019 5.63122 16.6027 5.80648 16.6376 5.97652C16.6725 6.14656 16.7407 6.30799 16.8384 6.45147C16.936 6.59496 17.0612 6.71764 17.2066 6.81242C17.352 6.90721 17.5148 6.97221 17.6855 7.00366C18.5042 7.16341 19.2567 7.56383 19.8465 8.15367C20.4363 8.74351 20.8368 9.49594 20.9965 10.3147C21.028 10.4854 21.093 10.6481 21.1877 10.7935C21.2825 10.9389 21.4052 11.0641 21.5487 11.1618C21.6922 11.2595 21.8536 11.3277 22.0236 11.3626C22.1937 11.3974 22.3689 11.3982 22.5393 11.3649C22.7096 11.3316 22.8717 11.2648 23.016 11.1684C23.1604 11.072 23.2842 10.948 23.3803 10.8034C23.4764 10.6589 23.5429 10.4967 23.5758 10.3263C23.6088 10.1559 23.6077 9.98063 23.5725 9.81066C23.3127 8.47961 22.6617 7.25635 21.7028 6.2974C20.7438 5.33845 19.5205 4.68743 18.1895 4.42766Z" fill="white"/>
</g>
<defs>
<clipPath id="clip0_15_29">
<rect width="28" height="28" fill="white"/>
</clipPath>
</defs>
</svg>