<svg xmlns="http://www.w3.org/2000/svg" viewBox="0 0 21.2 21.2"><defs><style>.cls-1{fill:#727271;}</style></defs><title>CollegeApplied Sciences &amp;amp; Professions1</title><g id="Layer_2" data-name="Layer 2"><g id="Layer_1-2" data-name="Layer 1"><path class="cls-1" d="M16.11,13.3l-2.22-1.74-.73.64a2.56,2.56,0,0,0,.11.24c.84,1.68,1.68,3.35,2.52,5A2.53,2.53,0,0,1,14.36,21a2.57,2.57,0,0,1-.87.15H7.72a2.56,2.56,0,0,1-2.31-3.72c.84-1.69,1.69-3.37,2.53-5.06,0-.07.07-.14.09-.18L6.86,11l-1.17.65L3.53,12.9c-.09,0-.16.08-.14.22A1.35,1.35,0,0,1,2.3,14.68,1.37,1.37,0,0,1,1.66,12a1.32,1.32,0,0,1,1.26.27c.08.06.13.1.24,0,1.1-.63,2.21-1.24,3.31-1.86l.09-.06a4.46,4.46,0,0,1,.27-4.22L4.72,4.63a2.75,2.75,0,0,1-2.29.82A2.63,2.63,0,0,1,.68,4.53,2.71,2.71,0,0,1,.65,1,2.72,2.72,0,0,1,4.15.4a2.75,2.75,0,0,1,1,3.68L7.24,5.64A4.63,4.63,0,0,1,8.6,4.58a4.46,4.46,0,0,1,1.66-.46c0-.46,0-.91,0-1.35,0,0-.11-.12-.18-.15a1.35,1.35,0,0,1-.81-1.51,1.37,1.37,0,0,1,2.68,0,1.32,1.32,0,0,1-.79,1.51.29.29,0,0,0-.21.33c0,.39,0,.77,0,1.18a4.52,4.52,0,0,1,3.59,2.35c.41-.17.82-.34,1.21-.53,0,0,.07-.14,0-.21a2.74,2.74,0,1,1,3.09,2.11A2.68,2.68,0,0,1,16.23,6.7l-.12-.17-1.31.56A4.46,4.46,0,0,1,14.3,11l2.22,1.74a2.77,2.77,0,0,1,4,.14,2.73,2.73,0,1,1-4.4.41Zm-1.25,3.76a1.69,1.69,0,0,1-.9.57,4.68,4.68,0,0,1-2.2,0,8.24,8.24,0,0,1-2.07-.94c-.47-.28-.94-.55-1.42-.8a1.48,1.48,0,0,0-1.11-.16.34.34,0,0,0-.19.14c-.35.67-.71,1.33-1,2A1.85,1.85,0,0,0,7.6,20.51c2,0,4,0,6,0a1.82,1.82,0,0,0,1.73-2.18A8.77,8.77,0,0,0,14.86,17.06ZM7.42,15a7.35,7.35,0,0,1,.84.19,5.89,5.89,0,0,1,.77.35,7.16,7.16,0,0,1,.66.39.32.32,0,0,0,.43,0,4.4,4.4,0,0,1,2.82-.87c.3,0,.6.06.9.1,0,0,0,0,0-.05-.34-.68-.64-1.38-1-2a3.61,3.61,0,0,1-.5-2.15c0-.44,0-.88,0-1.32H8.89v2.27a1.12,1.12,0,0,1-.09.36l-1.29,2.6A1,1,0,0,0,7.42,15ZM13,11.42a3.72,3.72,0,0,0,1.16-4.1A3.76,3.76,0,0,0,7,7.64,3.67,3.67,0,0,0,8.21,11.4c0-.61,0-1.21,0-1.82,0,0-.06-.1-.11-.12a1,1,0,0,1,.5-1.94h4a1,1,0,0,1,1.06.76,1,1,0,0,1-.54,1.18.23.23,0,0,0-.1.16C13,10.21,13,10.8,13,11.42Zm5.46,5.33a2.05,2.05,0,1,0-2-2.06A2,2,0,0,0,18.45,16.75ZM4.79,2.74a2.07,2.07,0,0,0-2-2.06,2.07,2.07,0,0,0-2.07,2A2.08,2.08,0,0,0,2.73,4.79,2.07,2.07,0,0,0,4.79,2.74ZM20.51,5.13a2,2,0,0,0-2-2,2.05,2.05,0,1,0,2,2.05Zm-10,11.33c.38.16.71.32,1.05.44a3.61,3.61,0,0,0,2.34,0,.52.52,0,0,0,0-1,4.74,4.74,0,0,0-.75-.15A3.76,3.76,0,0,0,10.54,16.46Zm.06-8.25c-.66,0-1.31,0-2,0-.27,0-.42.13-.42.34s.16.34.43.34h3.93c.27,0,.42-.13.42-.34s-.16-.34-.43-.34C11.91,8.2,11.25,8.21,10.6,8.21Zm.68-6.84a.68.68,0,1,0-.68.68A.69.69,0,0,0,11.28,1.37Zm-8.55,12a.68.68,0,1,0-.67.69A.69.69,0,0,0,2.73,13.33Z"/><path class="cls-1" d="M7.86,19.49a1,1,0,1,1,1-1A1,1,0,0,1,7.86,19.49Zm.34-1a.34.34,0,0,0-.34-.34.35.35,0,0,0-.34.34.34.34,0,0,0,.34.34A.34.34,0,0,0,8.2,18.46Z"/><path class="cls-1" d="M10.6,13a1,1,0,1,1,0-2.05,1,1,0,0,1,0,2.05Zm.34-1a.34.34,0,0,0-.33-.34.34.34,0,0,0-.35.33.35.35,0,0,0,.33.35A.35.35,0,0,0,10.94,12Z"/><path class="cls-1" d="M18.46,16.07a1.37,1.37,0,1,1,1.37-1.37A1.37,1.37,0,0,1,18.46,16.07Zm.69-1.37a.69.69,0,1,0-.68.69A.7.7,0,0,0,19.15,14.7Z"/><path class="cls-1" d="M2.74,1.37A1.37,1.37,0,1,1,1.37,2.73,1.36,1.36,0,0,1,2.74,1.37ZM2.05,2.72a.69.69,0,0,0,.66.7.69.69,0,1,0,0-1.37A.7.7,0,0,0,2.05,2.72Z"/><path class="cls-1" d="M19.83,5.13a1.37,1.37,0,1,1-2.73,0,1.37,1.37,0,0,1,2.73,0Zm-1.37-.69a.7.7,0,0,0-.68.69.68.68,0,0,0,.68.68.69.69,0,0,0,.69-.69A.7.7,0,0,0,18.46,4.44Z"/></g></g></svg>