<svg width="32" height="33" viewBox="0 0 32 33" fill="none" xmlns="http://www.w3.org/2000/svg">
<path d="M3 3.42871L3 2.67871H2.25V3.42871L3 3.42871ZM19 3.42871H19.75V2.67871H19V3.42871ZM3 28.5716H2.25V29.3216H3V28.5716ZM7.5 3.42871L8.23928 3.30235L8.13268 2.67871H7.5V3.42871ZM14.5 3.42871V2.67871H13.8673L13.7607 3.30235L14.5 3.42871ZM19 28.5716V29.3216H19.75V28.5716H19ZM6.69231 28.5716V29.3216H7.23911L7.40636 28.801L6.69231 28.5716ZM15.3077 28.5716L14.5863 28.7766L14.7412 29.3216H15.3077V28.5716ZM3.75 28.5716V3.42871L2.25 3.42871V28.5716L3.75 28.5716ZM3 4.17871H7.5V2.67871H3L3 4.17871ZM14.5 4.17871H19V2.67871H14.5V4.17871ZM6.76072 3.55507C6.8614 4.14411 7.15759 5.01627 7.81442 5.75527C8.49288 6.51862 9.52757 7.10401 11 7.10401V5.60401C9.97243 5.60401 9.34045 5.21431 8.93558 4.75878C8.50907 4.27891 8.30526 3.68841 8.23928 3.30235L6.76072 3.55507ZM11 7.10401C12.4724 7.10401 13.5071 6.51862 14.1856 5.75527C14.8424 5.01627 15.1386 4.14411 15.2393 3.55507L13.7607 3.30235C13.6947 3.68841 13.4909 4.27891 13.0644 4.75878C12.6595 5.21431 12.0276 5.60401 11 5.60401V7.10401ZM18.25 3.42871V28.5716H19.75V3.42871H18.25ZM3 29.3216H6.69231V27.8216H3V29.3216ZM7.40636 28.801C7.50491 28.4942 7.85489 27.816 8.47866 27.2225C9.08779 26.6429 9.91931 26.1787 11 26.1787V24.6787C9.4471 24.6787 8.26228 25.3579 7.44471 26.1358C6.64179 26.8997 6.15472 27.7929 5.97826 28.3422L7.40636 28.801ZM11 26.1787C12.4397 26.1787 13.3181 26.8277 13.8564 27.4783C14.1313 27.8105 14.3177 28.1452 14.4348 28.3969C14.4929 28.5219 14.5329 28.624 14.5574 28.6917C14.5696 28.7255 14.5779 28.7504 14.5826 28.7651C14.585 28.7725 14.5864 28.7772 14.587 28.7792C14.5873 28.7802 14.5874 28.7805 14.5873 28.7801C14.5872 28.7799 14.5871 28.7795 14.5869 28.7789C14.5868 28.7786 14.5867 28.7783 14.5866 28.7779C14.5866 28.7777 14.5865 28.7774 14.5865 28.7773C14.5864 28.777 14.5863 28.7766 15.3077 28.5716C16.0291 28.3665 16.029 28.3662 16.0289 28.3658C16.0289 28.3656 16.0288 28.3652 16.0287 28.365C16.0285 28.3644 16.0283 28.3638 16.0281 28.3631C16.0278 28.3618 16.0273 28.3602 16.0268 28.3585C16.0258 28.3551 16.0245 28.3508 16.0231 28.3459C16.0201 28.336 16.0161 28.3231 16.0111 28.3074C16.001 28.2761 15.9868 28.2335 15.9679 28.1813C15.9302 28.0772 15.8737 27.9337 15.7948 27.7641C15.6377 27.4265 15.3873 26.9755 15.0121 26.522C14.2502 25.6012 12.9748 24.6787 11 24.6787V26.1787ZM15.3077 29.3216H19V27.8216H15.3077V29.3216Z" fill="#DF252A"/>
<path d="M3.52148 11.125H17.408" stroke="#DF252A" stroke-width="1.5" stroke-dasharray="2 2"/>
<path fill-rule="evenodd" clip-rule="evenodd" d="M8.6424 20.2669L8.47262 21.1158L9.32153 20.946L13.4479 17.1385C13.6227 16.9772 13.7476 16.7691 13.8076 16.539C13.9275 16.0796 13.5088 15.6609 13.0495 15.7808C12.8193 15.8409 12.6112 15.9657 12.4499 16.1405L8.6424 20.2669ZM9.96081 22.0049L10.0008 20.6067L9.34161 21.2658L9.6612 22.3045L9.96081 22.0049ZM8.98289 19.588L7.5847 19.6279L7.28508 19.9275L8.32374 20.2471L8.98289 19.588ZM8.3637 16.1324L11.652 16.8241L10.6508 17.9201L7.96422 16.5319L8.3637 16.1324ZM12.7734 17.9454L13.7967 21.5654L13.3973 21.9649L11.6695 18.9388L12.7734 17.9454Z" fill="#DF252A"/>
<path d="M28.9628 7.14086L29.6872 7.33498L29.8813 6.61053L29.1569 6.41642L28.9628 7.14086ZM24.6161 5.97618L24.8102 5.25173L24.1991 5.08798L23.9347 5.66279L24.6161 5.97618ZM22.4553 31.427L22.2612 32.1514L22.9856 32.3456L23.1798 31.6211L22.4553 31.427ZM24.422 6.70062L28.7686 7.86531L29.1569 6.41642L24.8102 5.25173L24.422 6.70062ZM20.2841 8.62038C21.7064 9.00148 22.8573 8.70382 23.7102 8.14208C24.5359 7.59826 25.0478 6.83249 25.2975 6.28957L23.9347 5.66279C23.7711 6.01861 23.4214 6.53624 22.8852 6.88937C22.3762 7.22459 21.6649 7.43745 20.6723 7.17149L20.2841 8.62038ZM28.2383 6.94675L21.7309 31.2329L23.1798 31.6211L29.6872 7.33498L28.2383 6.94675ZM18.6947 31.1958L22.2612 32.1514L22.6494 30.7026L19.0829 29.7469L18.6947 31.1958Z" fill="#DF252A"/>
</svg>
