<svg width="40" height="40" viewBox="0 0 40 40" fill="none" xmlns="http://www.w3.org/2000/svg">
<circle cx="20" cy="20" r="20" fill="white"/>
<path d="M15.9738 26.8965L28.8133 12.8403C29.0035 12.6368 29.1517 12.3978 29.2495 12.1369C29.3473 11.8761 29.3928 11.5986 29.3834 11.3201C29.3739 11.0417 29.3097 10.7679 29.1944 10.5143C29.0792 10.2607 28.9151 10.0323 28.7115 9.84207C28.508 9.65188 28.269 9.50365 28.0081 9.40583C27.7473 9.30802 27.4697 9.26254 27.1913 9.27198C26.629 9.29107 26.0974 9.53273 25.7132 9.94382L12.8737 24M15.9738 26.8965L10.6366 29.5352L12.8737 24M15.9738 26.8965L12.8737 24" stroke="#727271" stroke-width="1.5" stroke-linecap="square" stroke-linejoin="round"/>
<path d="M10.5829 13.6467L21.6925 25.2612C22.0802 25.6666 22.7255 25.6737 23.1222 25.2771L23.5992 24.8L24.6966 23.7026C25.0854 23.3139 25.0874 22.6842 24.7012 22.293L13.4318 10.8782C12.6739 10.1105 11.4418 10.0881 10.6564 10.8277C9.85347 11.584 9.82045 12.8496 10.5829 13.6467Z" fill="white"/>
<path d="M24.0775 28.1309C23.187 27.1692 23.521 25.4262 24.0775 24.8252C25.1905 23.9236 27.0564 23.7761 27.9731 25.4262C28.8079 26.9288 29.3644 28.5316 30.1992 29.0325C26.8601 30.2345 25.1905 29.333 24.0775 28.1309Z" fill="white"/>
<path d="M21.6925 25.2612L22.2344 24.7428L22.2344 24.7428L21.6925 25.2612ZM10.5829 13.6467L10.0409 14.1651V14.1651L10.5829 13.6467ZM13.4318 10.8782L13.9655 10.3513V10.3513L13.4318 10.8782ZM24.7012 22.293L24.1674 22.8199L24.1674 22.8199L24.7012 22.293ZM24.0775 24.8252L23.5272 24.3156C23.5515 24.2894 23.5776 24.2649 23.6054 24.2424L24.0775 24.8252ZM24.0775 28.1309L23.5272 28.6405L24.0775 28.1309ZM30.1992 29.0325L30.5851 28.3893C30.8335 28.5384 30.9738 28.8171 30.9457 29.1054C30.9175 29.3937 30.7258 29.64 30.4533 29.7381L30.1992 29.0325ZM27.9731 25.4262L28.6287 25.062L27.9731 25.4262ZM24.6966 23.7026L24.1663 23.1723L24.6966 23.7026ZM23.5992 24.8L24.1295 25.3304L23.5992 24.8ZM23.1222 25.2771L22.5919 24.7467L23.1222 25.2771ZM10.6564 10.8277L10.1422 10.2818L10.6564 10.8277ZM21.1505 25.7796L10.0409 14.1651L11.1249 13.1283L22.2344 24.7428L21.1505 25.7796ZM13.9655 10.3513L25.2349 21.7661L24.1674 22.8199L12.8981 11.4051L13.9655 10.3513ZM24.6278 25.3347C24.5045 25.4679 24.318 25.8668 24.2832 26.3923C24.2496 26.9006 24.3705 27.3434 24.6278 27.6213L23.5272 28.6405C22.894 27.9567 22.7366 27.0472 22.7865 26.2933C22.8352 25.5566 23.094 24.7834 23.5272 24.3156L24.6278 25.3347ZM24.6278 27.6213C25.1172 28.1498 25.6882 28.571 26.4727 28.7526C27.2658 28.9361 28.3664 28.8952 29.9452 28.3268L30.4533 29.7381C28.6929 30.3718 27.2891 30.4812 26.1345 30.2139C24.9711 29.9447 24.1509 29.314 23.5272 28.6405L24.6278 27.6213ZM29.8133 29.6756C29.197 29.3058 28.7663 28.598 28.4246 27.9584C28.2436 27.6195 28.0628 27.2483 27.8834 26.8855C27.7013 26.5171 27.5168 26.1491 27.3175 25.7904L28.6287 25.062C28.8469 25.4546 29.045 25.8505 29.2281 26.2208C29.4139 26.5968 29.5809 26.9394 29.7477 27.2516C30.1017 27.9142 30.3667 28.2583 30.5851 28.3893L29.8133 29.6756ZM27.3175 25.7904C26.984 25.1901 26.5154 24.9539 26.0401 24.9165C25.5319 24.8765 24.9735 25.0646 24.5495 25.408L23.6054 24.2424C24.2945 23.6842 25.2256 23.3477 26.1578 23.4211C27.1229 23.4971 28.0455 24.0122 28.6287 25.062L27.3175 25.7904ZM25.227 24.233L24.1295 25.3304L23.0689 24.2697L24.1663 23.1723L25.227 24.233ZM24.1295 25.3304L23.6525 25.8074L22.5919 24.7467L23.0689 24.2697L24.1295 25.3304ZM10.1422 10.2818C11.2241 9.26284 12.9214 9.2937 13.9655 10.3513L12.8981 11.4051C12.4264 10.9273 11.6595 10.9133 11.1707 11.3737L10.1422 10.2818ZM10.0409 14.1651C8.99059 13.0671 9.03608 11.3236 10.1422 10.2818L11.1707 11.3737C10.6709 11.8444 10.6503 12.6322 11.1249 13.1283L10.0409 14.1651ZM22.2344 24.7428C22.3314 24.8441 22.4927 24.8459 22.5919 24.7467L23.6525 25.8074C22.9584 26.5016 21.8291 26.489 21.1505 25.7796L22.2344 24.7428ZM25.2349 21.7661C25.9108 22.4507 25.9073 23.5526 25.227 24.233L24.1663 23.1723C24.2635 23.0751 24.264 22.9177 24.1674 22.8199L25.2349 21.7661Z" fill="#727271"/>
</svg>
