<svg xmlns="http://www.w3.org/2000/svg" viewBox="0 0 20.07 20.07"><defs><style>.cls-1{fill:#727271;}</style></defs><title>Creative Arts &amp;amp; Design</title><g id="Layer_2" data-name="Layer 2"><g id="Layer_1-2" data-name="Layer 1"><path class="cls-1" d="M2.35,20.07,2,20a2.67,2.67,0,0,1,.47-5.23l.1,0-.08-.21L.11,8.86a.64.64,0,0,1,0-.67.82.82,0,0,1,.34-.3c.9-.39,1.81-.76,2.71-1.13a.68.68,0,0,1,.94.4c.58,1.39,1.15,2.77,1.72,4.16.06.13.1.19.26.14a4.71,4.71,0,0,1,.58-.09c0-.16-.06-.31-.1-.47-.5-2.14-1-4.29-1.51-6.44a1.64,1.64,0,0,1,0-.38L5.14.81A.79.79,0,0,1,5.74,0a.77.77,0,0,1,.88.43c.53,1,1.08,2,1.58,3a4.91,4.91,0,0,1,.31,1.11c.46,1.94.91,3.89,1.37,5.84a.44.44,0,0,0,0,.1l.79-.52a.19.19,0,0,0,0-.15A19.58,19.58,0,0,1,11,6.2a.41.41,0,0,0-.09-.28,2,2,0,0,1-.08-2.57c.25-.3.51-.58.75-.88a3,3,0,0,0,.68-1.26,2.91,2.91,0,0,0,0-.78.35.35,0,0,1,.14-.37.32.32,0,0,1,.4,0A5.63,5.63,0,0,1,14.69,3a3.46,3.46,0,0,1-.61,3,.63.63,0,0,0-.12.37,16.77,16.77,0,0,1-.15,2.92.66.66,0,0,0,0,.13L15,9.86h0c.37-.91.75-1.81,1.09-2.72A6.48,6.48,0,0,0,16.3,6a.64.64,0,0,1,.29-.47l2.24-1.39c.31-.19.52-.1.61.26L20,7a.21.21,0,0,0,0,.07v.08c-.08.13-.14.28-.23.4a6.22,6.22,0,0,0-.9,1.51c-.53,1.27-1.05,2.54-1.57,3.81a.83.83,0,0,0,0,.31c0,.37,0,.75,0,1.13,0,.13,0,.27,0,.41l.24,0A2.67,2.67,0,0,1,18,20l-.35.09ZM10,19.4c2.47,0,4.93,0,7.39,0a2,2,0,1,0-.39-4c-.34.07-.53-.13-.44-.47a3.88,3.88,0,0,0,.12-1.59,3.85,3.85,0,0,0-7.36-1c-.16.39-.33.44-.69.2a3.14,3.14,0,0,0-3.63,0,3.06,3.06,0,0,0-1.32,2.44c0,.25-.13.4-.32.4a1.28,1.28,0,0,1-.27-.05,2,2,0,1,0-.35,4ZM4,8.6l-.17.07-1,.43a.34.34,0,0,1-.46-.18.33.33,0,0,1,.21-.44l.12-.05L3.73,8l-.26-.62L.69,8.51l2.42,5.84a4,4,0,0,1,2.16-2.64L5,11.07l-.22.09-1,.41a.32.32,0,0,1-.47-.3.35.35,0,0,1,.26-.33l1.18-.49-.26-.62L4,10c-.28.11-.46.07-.55-.13s0-.37.31-.49l.49-.21Zm4.86,3.22a6,6,0,0,1,.39-.59.39.39,0,0,0,.07-.36C9,9.44,8.64,8,8.31,6.58,8.16,6,8,5.34,7.87,4.73c-.18.12-.35.24-.51.37a.18.18,0,0,0-.05.16c.06.28.13.56.19.84a.33.33,0,0,1-.23.44.33.33,0,0,1-.41-.28c-.07-.28-.13-.56-.2-.84,0,0-.07-.12-.11-.13l-.62-.1a.22.22,0,0,0,0,.08c.17.76.35,1.52.53,2.27l.87,3.72c0,.06.06.14.11.15l.64.16c0-.08,0-.15,0-.21L7.27,8c-.07-.27,0-.46.23-.5s.36.08.42.35l.48,2C8.54,10.54,8.69,11.16,8.85,11.82ZM12.92,1.17A3.67,3.67,0,0,1,12.2,2.7c-.25.33-.52.65-.79,1a1.39,1.39,0,0,0-.06,1.8.47.47,0,0,0,.31.16c.54,0,1.09.07,1.64.11a.25.25,0,0,0,.25-.12A2.84,2.84,0,0,0,14,3.14,4.33,4.33,0,0,0,12.92,1.17Zm5.45,4L17,6c-.05,0-.06.11-.08.16-.13.53-.26,1-.38,1.58a.42.42,0,0,0,0,.25,1.36,1.36,0,0,0,1.64.69.55.55,0,0,0,.23-.2c.23-.38.43-.79.69-1.16a.7.7,0,0,0,.13-.69c-.11-.38-.18-.77-.29-1.21-.18.43-.33.8-.49,1.17a.33.33,0,0,1-.44.2.34.34,0,0,1-.17-.45A1.66,1.66,0,0,1,18,6.21C18.09,5.89,18.22,5.57,18.37,5.19ZM17,12l1.07-2.57A2.27,2.27,0,0,1,16.2,8.7l-.64,1.55A4.63,4.63,0,0,1,17,12ZM5.69,3V4.07a.22.22,0,0,0,.06.14,1,1,0,0,0,1.07.37,1,1,0,0,0,.77-.81.2.2,0,0,0,0-.11L7,2.65A1.63,1.63,0,0,1,5.69,3Zm5.73,6.6,1.72-.24.13-1.24L11.42,8ZM13.3,6.4l-1.68-.1-.12,1a6.83,6.83,0,0,0,1.8.1ZM6.72,2.05c-.22-.4-.43-.8-.65-1.19A.25.25,0,0,0,6,.77L5.89.69c0,.05-.08.09-.08.14,0,.44,0,.89,0,1.33,0,.1,0,.14.13.15A.94.94,0,0,0,6.72,2.05Z"/><path class="cls-1" d="M8.12,16.74a2.11,2.11,0,0,1,1.34-1.88,2,2,0,0,1,2.2.55.24.24,0,0,0,.31.08,1.64,1.64,0,0,1,2,.78.35.35,0,0,1-.09.52c-.18.1-.36,0-.5-.19a1,1,0,0,0-1.44-.37c-.29.19-.44.15-.62-.16a1.33,1.33,0,0,0-2.49.72,1.46,1.46,0,0,0,.1.45.35.35,0,0,1-.18.46.32.32,0,0,1-.45-.23C8.23,17.23,8.18,17,8.12,16.74Z"/><path class="cls-1" d="M12.71,11c0,.19-.13.31-.36.33a1.41,1.41,0,0,0-1.19.76,2.26,2.26,0,0,0-.13.33.35.35,0,0,1-.42.24.34.34,0,0,1-.22-.42,2.08,2.08,0,0,1,2-1.57A.33.33,0,0,1,12.71,11Z"/><path class="cls-1" d="M6,13.05a.33.33,0,0,1,.35.23.31.31,0,0,1-.14.38c-.06,0-.14.06-.21.1a1.11,1.11,0,0,0-.62.87l0,.13a.32.32,0,0,1-.35.29.33.33,0,0,1-.3-.35,1.48,1.48,0,0,1,.3-.95,1.92,1.92,0,0,1,.88-.66Z"/><path class="cls-1" d="M13.7,3.63a2.56,2.56,0,0,1-.44,1.42c-.15.21-.33.26-.5.15a.34.34,0,0,1-.06-.52A2,2,0,0,0,13,3.34c0-.25.07-.41.27-.44s.36.11.39.36S13.69,3.51,13.7,3.63Z"/></g></g></svg>