<svg width="496" height="62" viewBox="0 0 496 62" fill="none" xmlns="http://www.w3.org/2000/svg">
<path opacity="0.1" fill-rule="evenodd" clip-rule="evenodd" d="M465 31C482.121 31 496 17.1208 496 0L434 2.71011e-06H412C389.909 2.71011e-06 372 17.9086 372 40V62H394C416.091 62 434 44.0914 434 22V2.71011e-06C434 17.1208 447.879 31 465 31ZM465 31L434 31C434 48.1208 447.879 62 465 62C482.121 62 496 48.1208 496 31H465ZM279 62C261.879 62 248 48.1208 248 31C248 13.8792 261.879 2.71011e-06 279 2.71011e-06V31V62ZM310 31V62C292.879 62 279 48.1208 279 31C279 13.8792 292.879 2.71011e-06 310 2.71011e-06V31ZM310 31C310 13.8792 323.879 2.71011e-06 341 2.71011e-06C358.121 2.71011e-06 372 13.8792 372 31C372 48.1208 358.121 62 341 62C323.879 62 310 48.1208 310 31ZM186 31C186 48.1208 199.879 62 217 62C234.121 62 248 48.1208 248 31C248 13.8792 234.121 2.71011e-06 217 2.71011e-06C199.879 2.71011e-06 186 13.8792 186 31ZM186 31V62H124V22C124 44.0914 106.091 62 84 62H62V40C62 17.9086 79.9086 2.71011e-06 102 2.71011e-06H124H186V31ZM24 2.71011e-06C10.7452 2.71011e-06 0 10.7452 0 24V62H38C51.2548 62 62 51.2548 62 38V2.71011e-06H24ZM231.826 30.9994C231.826 39.1876 225.188 45.8255 217 45.8255C208.811 45.8255 202.173 39.1876 202.173 30.9994C202.173 22.8112 208.811 16.1733 217 16.1733C225.188 16.1733 231.826 22.8112 231.826 30.9994Z" fill="white"/>
</svg>
