<svg width="52" height="52" viewBox="0 0 52 52" fill="none" xmlns="http://www.w3.org/2000/svg">
<path d="M50 26C50 39.255 39.255 50 26 50M50 26C50 12.7452 39.255 2 26 2M50 26H2C2 39.255 12.7452 50 26 50M26 50C26 50 36.6667 42 36.6667 26M26 50C26 50 15.3333 42 15.3333 26C15.3333 10 26 2 26 2M26 2C18.892 2 12.5057 5.09 8.11114 10M26 2C26 2 31.9258 6.44445 34.944 15.3333" stroke="#333333" stroke-width="2.3" stroke-linecap="round"/>
<path d="M42 26.3293L25.8517 35.9999L9 26.3293L25.8517 15.9999L42 26.3293Z" fill="white" stroke="#333333" stroke-width="2.3" stroke-linecap="round" stroke-linejoin="round"/>
</svg>
