<svg width="24" height="24" viewBox="0 0 24 24" fill="none" xmlns="http://www.w3.org/2000/svg">
<path d="M12 12.7629L12.458 13.3568L13.1952 12.7883L12.4828 12.189L12 12.7629ZM8.55737 15.4176L8.09938 14.8237L8.55737 15.4176ZM12.4828 12.189L8.90782 9.18155L7.9422 10.3294L11.5172 13.3368L12.4828 12.189ZM7.75 6.69452V4H6.25V6.69452H7.75ZM11.542 12.169L8.09938 14.8237L9.01536 16.0115L12.458 13.3568L11.542 12.169ZM6.25 18.5852V21H7.75V18.5852H6.25ZM8.09938 14.8237C6.93313 15.723 6.25 17.1125 6.25 18.5852H7.75C7.75 17.5775 8.2174 16.6269 9.01536 16.0115L8.09938 14.8237ZM8.90782 9.18155C8.17377 8.56403 7.75 7.65377 7.75 6.69452H6.25C6.25 8.09651 6.86935 9.42688 7.9422 10.3294L8.90782 9.18155Z" fill="#727271"/>
<path d="M12 12.7629L11.542 13.3568L10.8048 12.7883L11.5172 12.189L12 12.7629ZM15.4426 15.4176L15.9006 14.8237L15.4426 15.4176ZM11.5172 12.189L15.0922 9.18155L16.0578 10.3294L12.4828 13.3368L11.5172 12.189ZM16.25 6.69452V4H17.75V6.69452H16.25ZM12.458 12.169L15.9006 14.8237L14.9846 16.0115L11.542 13.3568L12.458 12.169ZM17.75 18.5852V21H16.25V18.5852H17.75ZM15.9006 14.8237C17.0669 15.723 17.75 17.1125 17.75 18.5852H16.25C16.25 17.5775 15.7826 16.6269 14.9846 16.0115L15.9006 14.8237ZM15.0922 9.18155C15.8262 8.56403 16.25 7.65377 16.25 6.69452H17.75C17.75 8.09651 17.1306 9.42688 16.0578 10.3294L15.0922 9.18155Z" fill="#727271"/>
<path d="M4 21L20 21" stroke="#727271" stroke-width="1.5"/>
<path d="M4 4L20 4" stroke="#727271" stroke-width="1.5"/>
</svg>
