<svg width="40" height="40" viewBox="0 0 40 40" fill="none" xmlns="http://www.w3.org/2000/svg">
<circle cx="20" cy="20" r="20" fill="white"/>
<path d="M24.1813 17.0629C24.9103 17.0629 25.5013 16.4719 25.5013 15.7429C25.5013 15.0138 24.9103 14.4229 24.1813 14.4229C23.4523 14.4229 22.8613 15.0138 22.8613 15.7429C22.8613 16.4719 23.4523 17.0629 24.1813 17.0629Z" fill="#727271"/>
<path d="M27.8907 20.8229C27.8907 19.7729 26.9207 18.9229 25.7207 18.9229H22.5007C21.2807 18.9229 20.3007 19.7929 20.3307 20.8629" stroke="#727271" stroke-width="1.5" stroke-miterlimit="10" stroke-linecap="square" stroke-linejoin="round"/>
<path d="M12.562 25.6563C13.2413 25.6563 13.792 25.1056 13.792 24.4263C13.792 23.747 13.2413 23.1963 12.562 23.1963C11.8827 23.1963 11.332 23.747 11.332 24.4263C11.332 25.1056 11.8827 25.6563 12.562 25.6563Z" fill="#727271"/>
<path d="M15.3011 29.1864C15.3011 28.4064 14.5811 27.7864 13.6911 27.7864H11.3211C10.4211 27.7864 9.70111 28.4264 9.72111 29.2164" stroke="#727271" stroke-width="1.5" stroke-miterlimit="10" stroke-linecap="square" stroke-linejoin="round"/>
<path d="M20.1245 25.6563C20.8038 25.6563 21.3545 25.1056 21.3545 24.4263C21.3545 23.747 20.8038 23.1963 20.1245 23.1963C19.4452 23.1963 18.8945 23.747 18.8945 24.4263C18.8945 25.1056 19.4452 25.6563 20.1245 25.6563Z" fill="#727271"/>
<path d="M22.8636 29.1864C22.8636 28.4064 22.1436 27.7864 21.2536 27.7864H18.8836C17.9836 27.7864 17.2636 28.4264 17.2836 29.2164" stroke="#727271" stroke-width="1.5" stroke-miterlimit="10" stroke-linecap="square" stroke-linejoin="round"/>
<path d="M27.7027 25.6563C28.382 25.6563 28.9327 25.1056 28.9327 24.4263C28.9327 23.747 28.382 23.1963 27.7027 23.1963C27.0233 23.1963 26.4727 23.747 26.4727 24.4263C26.4727 25.1056 27.0233 25.6563 27.7027 25.6563Z" fill="#727271"/>
<path d="M30.4417 29.1864C30.4417 28.4064 29.7217 27.7864 28.8317 27.7864H26.4617C25.5617 27.7864 24.8417 28.4264 24.8617 29.2164" stroke="#727271" stroke-width="1.5" stroke-miterlimit="10" stroke-linecap="square" stroke-linejoin="round"/>
<path d="M18.0707 20.0644H11.4707V10.0244H29.7307V20.0644" stroke="#727271" stroke-width="1.5" stroke-miterlimit="10" stroke-linecap="square" stroke-linejoin="round"/>
</svg>
