<svg xmlns="http://www.w3.org/2000/svg" viewBox="0 0 19.13 19.12"><defs><style>.cls-1{fill:#727271;}</style></defs><title>CollegeEnvironmental Studies &amp;amp; Earth Sciences1</title><g id="Layer_2" data-name="Layer 2"><g id="Layer_1-2" data-name="Layer 1"><path class="cls-1" d="M13.28,16.67h5.84v.6H0v-.6H2.76V10.5h.63V5.56h6.78v.61h.75a2.2,2.2,0,0,1,2.34,1.88l.13-.11a2.16,2.16,0,0,1,1.43-.54h1.52a2.21,2.21,0,0,1-.48,1.68,2.1,2.1,0,0,1-1.62.79c-.32,0-.63,0-1,0v1.24l.08-.06a2.17,2.17,0,0,1,1.53-.56h1.44a2.16,2.16,0,0,1-2,2.46c-.34,0-.67,0-1,0Zm-3.73,0V6.18H4V10.5H8.33v6.15ZM3.4,11.12v5.53H7.7V11.12Zm9.24,5.53V11.72a2.92,2.92,0,0,1-2.45-.65v5.58Zm0-8A2.86,2.86,0,0,1,10.2,8V9.26a2.87,2.87,0,0,1,2.45.65V8.63ZM10.22,6.77A1.47,1.47,0,0,0,11.4,8,11.92,11.92,0,0,0,12.61,8a1.47,1.47,0,0,0-1.17-1.21A12,12,0,0,0,10.22,6.77Zm3.09,2.48c.35,0,.67,0,1,0A1.49,1.49,0,0,0,15.68,8c-.34,0-.68,0-1,0A1.5,1.5,0,0,0,13.31,9.25Zm-.71,1.87a1.43,1.43,0,0,0-1.12-1.19,10.26,10.26,0,0,0-1.26-.08,1.48,1.48,0,0,0,1.17,1.21C11.79,11.12,12.2,11.1,12.6,11.12Zm3.11,0c-.37,0-.71,0-1.05,0a1.5,1.5,0,0,0-1.35,1.24,8.3,8.3,0,0,0,1.23-.07A1.48,1.48,0,0,0,15.71,11.11Z"/><path class="cls-1" d="M4.48,5.23l-.71-.76A7.49,7.49,0,0,0,2.59,6.26a7.76,7.76,0,0,0-.5,5.26,5.28,5.28,0,0,1,.09.81H.39a9.66,9.66,0,0,1,2-9.17l-.6-.54,3.53-.89ZM3.29,3.17l-.14.15c-.38.48-.8.94-1.14,1.46A8.71,8.71,0,0,0,.62,9.13a8.46,8.46,0,0,0,.23,2.45.23.23,0,0,0,.11.14H1.5A8.41,8.41,0,0,1,3.75,3.57l.39.48.37-1.47-1.43.36.1.11Z"/><path class="cls-1" d="M16.67,15.07l.6.52-3.5.88L14.63,13l.72.74c.25-.34.47-.6.66-.89A7.67,7.67,0,0,0,17,6.7,2.74,2.74,0,0,1,17,6.42c0-.18,0-.36,0-.55h1.76A9.67,9.67,0,0,1,16.67,15.07Zm.95-8.59a8.38,8.38,0,0,1-2.26,8.15L15,14.15l-.37,1.47,1.43-.36L15.84,15a9,9,0,0,0,2.4-8.55Z"/><path class="cls-1" d="M13.91,4.48l.75-.71a7.7,7.7,0,0,0-7-1.67,1,1,0,0,1-.24,0H6.8V.38A9.66,9.66,0,0,1,16,2.44l.25-.28.29-.33.88,3.53Zm1.2-.38,0,.06,1.41.35-.36-1.43L16,3.29l-.11-.1c-.51-.41-1-.85-1.55-1.21A8.59,8.59,0,0,0,10.21.64,8.51,8.51,0,0,0,7.55.85.2.2,0,0,0,7.41,1a4.34,4.34,0,0,0,0,.51,8.43,8.43,0,0,1,8.13,2.24Z"/><path class="cls-1" d="M0,19.12v-.6H19.12v.6Z"/><path class="cls-1" d="M6.47,8.63h-.6V8h.6Z"/><path class="cls-1" d="M8.94,8.63h-.6V8h.6Z"/><path class="cls-1" d="M5.23,9.87H4.64v-.6h.59Z"/><path class="cls-1" d="M7.11,8H7.7v.6H7.11Z"/><path class="cls-1" d="M7.7,9.27v.59H7.11V9.27Z"/><path class="cls-1" d="M8.94,9.27v.59h-.6V9.27Z"/><path class="cls-1" d="M4.64,6.79h.59v.6H4.64Z"/><path class="cls-1" d="M6.47,6.8v.59h-.6V6.8Z"/><path class="cls-1" d="M5.87,9.26h.59v.6H5.87Z"/><path class="cls-1" d="M7.1,7.39V6.8h.6v.59Z"/><path class="cls-1" d="M8.34,7.39V6.8h.59v.59Z"/><path class="cls-1" d="M4.63,8.62V8h.6v.59Z"/><path class="cls-1" d="M4.61,12.33H4v-.59h.59Z"/><path class="cls-1" d="M5.85,11.73v.6h-.6v-.6Z"/><path class="cls-1" d="M4.62,13.57H4V13h.6Z"/><path class="cls-1" d="M5.85,13.57H5.26V13h.59Z"/><path class="cls-1" d="M7.08,13.57H6.49V13h.59Z"/><path class="cls-1" d="M4,14.2h.59v.6H4Z"/><path class="cls-1" d="M6.49,12.33v-.59h.59v.59Z"/><path class="cls-1" d="M6.49,14.2h.59v.59H6.49Z"/><path class="cls-1" d="M4.61,16H4v-.6h.59Z"/><path class="cls-1" d="M5.26,15.44h.59V16H5.26Z"/><path class="cls-1" d="M7.08,16H6.49v-.6h.59Z"/><path class="cls-1" d="M5.85,14.8H5.26v-.6h.59Z"/></g></g></svg>