<svg width="101" height="33" viewBox="0 0 101 33" fill="none" xmlns="http://www.w3.org/2000/svg">
<path d="M5.30678 10.8555C8.10742 7.16066 12.2403 4.44763 16.6583 3.057C21.0772 1.66607 25.7603 1.60436 29.6624 3.1829C33.5459 4.75897 35.9225 7.67046 36.6472 11.0957C37.3727 14.5253 36.4484 18.5025 33.6606 22.2087C30.8723 25.9156 26.7458 28.6407 22.3311 30.0374C17.9154 31.4344 13.2326 31.496 9.3308 29.9053C5.43437 28.3169 3.04525 25.3927 2.31449 21.9612C1.58288 18.5257 2.5072 14.5489 5.30678 10.8555ZM1.00745 22.3355C1.82235 26.2792 4.54831 29.3536 8.64523 31.0106C12.7369 32.6654 17.6977 32.7356 22.6193 31.1652C27.5391 29.5953 31.8623 26.6285 34.7566 22.7808C37.6499 18.9346 38.8243 14.6399 37.985 10.7261C37.1448 6.8084 34.4196 3.73445 30.3227 2.0775C26.2303 0.422369 21.2946 0.377597 16.3746 1.9226C11.4533 3.468 7.15541 6.43525 4.23683 10.2817C1.31669 14.1303 0.194237 18.3999 1.00745 22.3355Z" fill="white" stroke="white" stroke-width="0.5"/>
<path fill-rule="evenodd" clip-rule="evenodd" d="M18.3764 15.0955L25 17.0488L16.7584 16.8016L16 8.04883L18.3764 15.0955Z" fill="white"/>
<rect x="27" y="5.04883" width="21" height="21" fill="#DF252A"/>
<path fill-rule="evenodd" clip-rule="evenodd" d="M32.3612 7.30793H40.1778L39.7299 9.44645H34.8853L34.3968 11.7108H38.9971L38.59 13.8074H33.9897L33.379 16.6168H38.4272L38.0201 18.7553H30L32.3612 7.30793ZM41.2769 7.30793L43.4753 12.5913L38.6307 18.7553H42.254L45.2259 14.5621L45.4702 15.3588C45.5142 15.5712 45.5686 15.7811 45.633 15.9878L46.6508 18.7553H49.7855L47.3836 12.6752L51.7397 7.30793H48.2792L45.5923 10.8721C45.4702 10.4528 45.3073 9.94963 45.1852 9.48838C45.0631 9.02713 45.1445 9.44645 45.1445 9.40452L44.4117 7.30793H41.2769ZM55.6886 9.36258L55.078 12.4236H55.8515C56.4367 12.4668 57.0204 12.3202 57.5206 12.0043C57.7171 11.8548 57.8754 11.6584 57.9818 11.432C58.0881 11.2055 58.1395 10.9558 58.1313 10.7044C58.1361 10.5126 58.0983 10.3222 58.0207 10.1478C57.943 9.97332 57.8277 9.8195 57.6835 9.69804C57.2899 9.45871 56.8374 9.34218 56.3807 9.36258H55.6886ZM53.1646 7.30793H56.4622C58.0092 7.30793 59.1491 7.55951 59.9226 8.0627C60.2873 8.32277 60.5803 8.67584 60.773 9.08741C60.9657 9.49898 61.0514 9.95498 61.0218 10.4109C61.0446 10.9956 60.9394 11.5782 60.7138 12.1153C60.4883 12.6525 60.1483 13.1304 59.719 13.5138C58.9048 14.2686 57.7242 14.646 56.2179 14.646H54.6302L53.7345 18.7972H50.8033L53.1646 7.34986V7.30793ZM65.7443 9.40452L65.215 12.0881H66.2735C66.833 12.131 67.3908 11.9837 67.8612 11.6688C68.0395 11.5532 68.1856 11.392 68.2855 11.2009C68.3853 11.0099 68.4355 10.7955 68.4312 10.5786C68.4414 10.4083 68.4093 10.2382 68.3381 10.0841C68.2669 9.93009 68.1588 9.79724 68.0241 9.69804C67.6857 9.47394 67.2851 9.37079 66.8842 9.40452H65.7443ZM63.2609 7.30793L60.8997 18.7553H63.8308L64.7672 14.2267H65.2964C65.6173 14.2006 65.9393 14.2583 66.2328 14.3944C66.4453 14.5576 66.5906 14.7971 66.6399 15.0653L67.4134 18.7553H70.3446L69.4897 14.8556C69.443 14.4567 69.3183 14.0715 69.1233 13.7235C68.9291 13.4478 68.6791 13.2188 68.3905 13.0526C69.2244 13.0288 70.0268 12.7189 70.6703 12.172C70.9373 11.9155 71.148 11.6033 71.2884 11.2562C71.4288 10.9091 71.4957 10.5351 71.4845 10.1593C71.5071 9.74286 71.4254 9.32743 71.2472 8.95292C71.0689 8.57842 70.8002 8.25742 70.4667 8.02077C69.7747 7.55952 68.7976 7.30793 67.4541 7.30793H63.2609ZM73.8865 7.30793H81.7437L81.2959 9.44645H76.4106L75.9627 11.7108H80.5631L80.1153 13.8074H75.5149L74.945 16.6168H79.9931L79.5453 18.7553H71.5252L73.8865 7.30793ZM90.9444 7.55952C90.4311 7.37087 89.8983 7.24423 89.3567 7.18213C88.6542 7.0948 87.9472 7.05279 87.2397 7.05633C86.0293 6.99035 84.8344 7.36105 83.8607 8.10463C83.4514 8.41242 83.1195 8.81664 82.8929 9.28351C82.6663 9.75037 82.5514 10.2663 82.5579 10.7883C82.5498 11.3666 82.7054 11.9349 83.0057 12.4236C83.3774 12.902 83.8707 13.2649 84.4306 13.4719L85.1227 13.7654C86.2626 14.2267 86.8733 14.7718 86.8733 15.3169C86.8674 15.5415 86.7991 15.7597 86.6764 15.9455C86.5537 16.1313 86.3819 16.277 86.1812 16.3652C85.6258 16.6484 85.0086 16.7785 84.3899 16.7426C83.9636 16.7488 83.5387 16.6924 83.1279 16.5749C82.6608 16.4481 82.2099 16.2652 81.7844 16.0297L81.133 18.4199C81.7186 18.6177 82.3172 18.7719 82.9243 18.8811C83.5578 18.9804 84.197 19.0364 84.8377 19.0488C86.4119 19.0488 87.6739 18.6714 88.6239 17.9167C89.073 17.5719 89.4364 17.1222 89.6841 16.6047C89.9318 16.0871 90.0568 15.5165 90.0487 14.9395C90.0606 14.3221 89.8746 13.7179 89.5195 13.2203C88.9866 12.651 88.3503 12.1951 87.6468 11.8785L86.8733 11.543C86.0998 11.2076 85.6927 10.8302 85.6927 10.4109C85.6951 10.2285 85.7456 10.0502 85.8389 9.89509C85.9321 9.73999 86.0645 9.6139 86.2219 9.53031C86.7055 9.30038 87.2375 9.19944 87.7689 9.23679C88.1925 9.23713 88.6151 9.27926 89.031 9.36258L90.2523 9.7819L90.9444 7.55952ZM101 7.55952L100.349 9.7819L99.0866 9.36258C98.6708 9.27926 98.2482 9.23713 97.8245 9.23679C97.2931 9.19944 96.7611 9.30038 96.2775 9.53031C96.1201 9.6139 95.9877 9.73999 95.8945 9.89509C95.8013 10.0502 95.7507 10.2285 95.7483 10.4109C95.7483 10.8302 96.1554 11.2076 96.9289 11.543L97.7024 11.8785C98.4121 12.1837 99.0505 12.6411 99.5751 13.2203C99.9302 13.7179 100.116 14.3221 100.104 14.9395C100.112 15.5165 99.9874 16.0871 99.7397 16.6047C99.492 17.1222 99.1286 17.5719 98.6795 17.9167C97.7838 18.6714 96.5218 19.0488 94.8933 19.0488C94.2526 19.0364 93.6134 18.9804 92.9799 18.8811C92.3729 18.7719 91.7742 18.6177 91.1886 18.4199L91.84 16.0297C92.2655 16.2652 92.7164 16.4481 93.1835 16.5749C93.5948 16.6897 94.0194 16.7461 94.4455 16.7426C95.0643 16.7785 95.6815 16.6484 96.2368 16.3652C96.4375 16.277 96.6093 16.1313 96.732 15.9455C96.8547 15.7597 96.923 15.5415 96.9289 15.3169C96.9289 14.7718 96.3182 14.2267 95.1783 13.7654L94.4862 13.4719C93.9263 13.2649 93.433 12.902 93.0614 12.4236C92.761 11.9349 92.6054 11.3666 92.6135 10.7883C92.607 10.2663 92.7219 9.75037 92.9485 9.28351C93.1751 8.81664 93.507 8.41242 93.9163 8.10463C94.89 7.36105 96.0849 6.99035 97.2953 7.05633C98.0028 7.05279 98.7099 7.0948 99.4123 7.18213C99.9539 7.24423 100.487 7.37087 101 7.55952Z" fill="white"/>
<path opacity="0.5" fill-rule="evenodd" clip-rule="evenodd" d="M38.8278 22.9168L37.346 26.3843H39.1624L38.8278 22.9168ZM37.9196 21.245H40.1184L41.2178 29.8518H39.4492L39.258 27.9942H36.6768L35.8642 29.8518H34L37.9196 21.245ZM44.6593 22.9168L43.7989 28.18H44.5637C44.8885 28.1937 45.2124 28.1308 45.5197 27.9942C45.7889 27.8832 46.0344 27.6924 46.2367 27.4369C46.4811 27.1163 46.6758 26.7379 46.8103 26.3224C46.9242 25.8826 46.9886 25.4238 47.0015 24.9602C47.0158 24.6871 46.9847 24.4132 46.9105 24.1568C46.8363 23.9005 46.7207 23.6677 46.5713 23.4741C46.2304 23.0825 45.7834 22.8821 45.3285 22.9168H44.6593ZM43.1297 21.245H45.3285C46.5235 21.245 47.3839 21.5546 47.9575 22.1738C48.2567 22.5346 48.4893 22.9779 48.6383 23.4709C48.7872 23.964 48.8486 24.4941 48.8179 25.0221C48.8267 25.7471 48.7124 26.4658 48.4833 27.1273C48.2976 27.7103 48.0209 28.2373 47.6707 28.6753C47.2831 29.0602 46.8463 29.3536 46.3801 29.5422C45.7771 29.7832 45.1464 29.888 44.5159 29.8518H41.6958L43.1297 21.245ZM50.4909 21.245H53.2155L53.3589 25.6413C53.3517 25.7286 53.3687 25.8163 53.4067 25.889V26.3224C53.4107 26.4694 53.3946 26.6162 53.3589 26.7558V27.375C53.4171 27.0769 53.4971 26.7866 53.5979 26.5081C53.6457 26.2605 53.7891 25.9509 53.8847 25.5794L55.4143 21.245H58.2822L56.8483 29.8518H55.2231L56.0357 24.6506C56.0829 24.3357 56.1468 24.0253 56.2269 23.7218C56.2736 23.3864 56.3374 23.0555 56.4181 22.7311H56.3703L53.7891 29.8518H52.1161L51.8771 22.7311H51.8293C51.7337 23.2883 51.6859 23.7218 51.6381 24.0933L51.5425 24.7744L50.6821 29.8518H49.0569L50.4909 21.245ZM59.5728 21.245L58.1867 29.8518H59.9552L61.3414 21.245H59.5728ZM67.1252 21.4308L66.695 23.1026L65.978 22.793L65.2132 22.6692C64.8995 22.6563 64.5881 22.7413 64.305 22.9168C64.2045 22.9765 64.1194 23.0726 64.0601 23.1934C64.0007 23.3142 63.9696 23.4547 63.9704 23.598C63.9704 23.9075 64.2094 24.1552 64.6874 24.4029L65.1176 24.7125C65.5548 24.9213 65.9479 25.2607 66.2648 25.7032C66.4646 26.0628 66.5656 26.4989 66.5516 26.9416C66.5647 27.3793 66.498 27.8149 66.3568 28.213C66.2156 28.611 66.0039 28.9603 65.739 29.2326C65.0772 29.8091 64.2888 30.0916 63.4924 30.0375C63.0917 30.0607 62.6902 30.0191 62.2974 29.9137L61.2458 29.6041L61.6282 27.8084C61.8825 27.9864 62.1567 28.1117 62.4408 28.18C62.6849 28.3016 62.9441 28.3645 63.2056 28.3657C63.5707 28.3799 63.9327 28.2733 64.2572 28.0561C64.3832 27.9937 64.4917 27.8835 64.5684 27.7398C64.6452 27.5962 64.6867 27.4259 64.6874 27.2512C64.6874 26.8177 64.305 26.4462 63.6358 26.0747L63.2056 25.889C62.8749 25.7409 62.5899 25.4586 62.393 25.084C62.1932 24.7244 62.0922 24.2883 62.1062 23.8456C62.0983 23.4594 62.164 23.0766 62.2973 22.731C62.4307 22.3855 62.6278 22.0878 62.871 21.8642C63.4458 21.2972 64.157 21.0121 64.8786 21.0593L66.1692 21.1831L67.1252 21.4308ZM73.148 21.4308L72.7178 23.1026L71.953 22.793L71.1882 22.6692C70.8757 22.6724 70.5669 22.7566 70.28 22.9168C70.1917 22.9899 70.1192 23.0906 70.069 23.2097C70.0189 23.3288 69.9928 23.4623 69.9932 23.598C69.9932 23.9075 70.2322 24.1552 70.7102 24.4029L71.1404 24.7125C71.5711 24.9376 71.9615 25.2748 72.2876 25.7032C72.4874 26.0628 72.5883 26.4989 72.5744 26.9416C72.5902 27.3862 72.5197 27.8288 72.3694 28.229C72.2191 28.6293 71.9938 28.9743 71.714 29.2326C71.0585 29.8266 70.2653 30.1107 69.4674 30.0375C69.0825 30.0581 68.6971 30.0165 68.3202 29.9137L67.2686 29.6041L67.651 27.8084C67.9018 27.9963 68.1773 28.1223 68.4636 28.18C68.7064 28.3075 68.9664 28.3706 69.2284 28.3657C69.5935 28.3799 69.9554 28.2733 70.28 28.0561C70.397 27.9843 70.4954 27.87 70.5633 27.7271C70.6312 27.5842 70.6656 27.4189 70.6624 27.2512C70.6624 26.8177 70.3278 26.4462 69.6108 26.0747L69.2284 25.889C68.891 25.7255 68.5938 25.4474 68.368 25.084C68.1816 24.7186 68.0973 24.2816 68.129 23.8456C68.1211 23.4594 68.1867 23.0766 68.3201 22.731C68.4535 22.3855 68.6505 22.0878 68.8938 21.8642C69.4646 21.2872 70.1787 21.0009 70.9014 21.0593L72.1442 21.1831L73.148 21.4308ZM74.5819 21.245H76.3505L74.9643 29.8518H73.148L74.5819 21.245ZM81.6563 24.6506C81.6843 24.1284 81.5839 23.6082 81.3695 23.1645C81.2609 22.9921 81.1213 22.8569 80.963 22.7705C80.8046 22.6842 80.6324 22.6494 80.4613 22.6692C80.1859 22.6499 79.9144 22.7598 79.6965 22.9788C79.4285 23.2029 79.2003 23.4984 79.0273 23.8456C78.8633 24.2378 78.7349 24.6534 78.6449 25.084C78.5472 25.5269 78.4989 25.9856 78.5015 26.4462C78.4797 26.9572 78.5983 27.4617 78.8361 27.8704C78.9534 28.0288 79.0945 28.1544 79.2507 28.2396C79.4069 28.3248 79.5749 28.3677 79.7443 28.3657C80.004 28.3755 80.2581 28.2658 80.4613 28.0561C80.7415 27.825 80.9718 27.5054 81.1305 27.1273C81.2952 26.7792 81.4238 26.4045 81.5129 26.0128C81.6044 25.5683 81.6526 25.1106 81.6563 24.6506ZM80.5569 21.0593C80.9485 21.0285 81.3408 21.1004 81.7104 21.2706C82.08 21.4408 82.4192 21.7059 82.7079 22.05C82.977 22.4081 83.1844 22.8361 83.3162 23.3058C83.448 23.7754 83.5014 24.276 83.4727 24.7744C83.4766 25.3818 83.4122 25.9867 83.2815 26.5701C83.1628 27.138 82.9508 27.666 82.6601 28.118C82.3171 28.732 81.8634 29.2279 81.3385 29.5625C80.8136 29.8971 80.2335 30.0602 79.6487 30.0375C79.2572 30.0683 78.8649 29.9964 78.4953 29.8262C78.1257 29.656 77.7864 29.3909 77.4977 29.0468C77.2286 28.6887 77.0213 28.2607 76.8894 27.791C76.7576 27.3213 76.7042 26.8208 76.7329 26.3224C76.7262 25.7148 76.7906 25.1093 76.9241 24.5267C77.0109 24.0052 77.191 23.5174 77.4499 23.1026C77.7859 22.4462 78.2469 21.913 78.7883 21.5546C79.3426 21.2233 79.9465 21.0542 80.5569 21.0593ZM85.1457 21.245H87.3445L88.3961 25.6413C88.4439 26.0128 88.5395 26.3224 88.5873 26.632C88.6422 26.8948 88.6743 27.1648 88.6829 27.4369H88.7785C88.7905 27.1653 88.8225 26.8957 88.8741 26.632C88.8831 26.2741 88.9314 25.9197 89.0174 25.5794L89.7344 21.245H91.3118L89.9257 29.8518H87.7269L86.5797 25.0221C86.5206 24.8029 86.4884 24.5731 86.4841 24.341C86.425 24.1218 86.3928 23.892 86.3885 23.6599H86.2929C86.288 23.9527 86.2559 24.2438 86.1973 24.5267C86.1924 24.7993 86.1602 25.0698 86.1017 25.3317L85.3847 29.8518H83.7595L85.1457 21.245ZM97 21.4308L96.044 21.1831L94.8012 21.0593C94.0775 20.9889 93.3601 21.2765 92.7936 21.8642C92.5445 22.0847 92.3405 22.3801 92.1989 22.7252C92.0574 23.0704 91.9826 23.4548 91.981 23.8456C91.9671 24.2883 92.068 24.7244 92.2678 25.084C92.4937 25.4474 92.7909 25.7255 93.1282 25.889L93.5106 26.0747C94.2276 26.4462 94.5622 26.8177 94.5622 27.2512C94.5654 27.4189 94.531 27.5842 94.4632 27.7271C94.3953 27.87 94.2969 27.9843 94.1798 28.0561C93.8382 28.2735 93.4609 28.3798 93.0804 28.3657L92.3156 28.18C92.0466 28.1116 91.7882 27.9861 91.5508 27.8084L91.1684 29.6041L92.22 29.9137C92.597 30.0165 92.9823 30.0581 93.3672 30.0375C94.1652 30.1107 94.9583 29.8266 95.6138 29.2326C95.8936 28.9743 96.119 28.6293 96.2693 28.229C96.4196 27.8288 96.49 27.3862 96.4742 26.9416C96.4882 26.4989 96.3872 26.0628 96.1874 25.7032C95.8526 25.2888 95.4643 24.9535 95.0402 24.7125L94.61 24.4029C94.132 24.1552 93.893 23.9075 93.893 23.598C93.8927 23.4623 93.9188 23.3288 93.9689 23.2097C94.019 23.0906 94.0916 22.9899 94.1798 22.9168C94.4668 22.7566 94.7756 22.6724 95.088 22.6692L95.8528 22.793L96.6176 23.1026L97 21.4308Z" fill="white"/>
<rect x="20.2754" y="1" width="1" height="3.30855" rx="0.5" transform="rotate(7.77037 20.2754 1)" fill="white"/>
<rect x="4" y="11.793" width="1" height="2.37944" rx="0.5" transform="rotate(-48.0098 4 11.793)" fill="white"/>
<rect x="4.64844" y="27.3535" width="1" height="2.37944" rx="0.5" transform="rotate(-130.476 4.64844 27.3535)" fill="white"/>
<rect x="15.8516" y="31.332" width="1" height="2.37944" rx="0.5" transform="rotate(173.985 15.8516 31.332)" fill="white"/>
<rect x="28.793" y="26.8281" width="1" height="2.37944" rx="0.5" transform="rotate(137.699 28.793 26.8281)" fill="white"/>
</svg>
