<svg width="24" height="24" viewBox="0 0 24 24" fill="none" xmlns="http://www.w3.org/2000/svg">
<path d="M5.91133 11.0653L6.5031 10.6045L6.5031 10.6045L5.91133 11.0653ZM9.18844 17.3807L8.45107 17.5178L8.56501 18.1307H9.18844V17.3807ZM11.6435 1.00156L11.6549 1.75147L12.3935 1.7402V1.00156H11.6435ZM11.6435 1V0.25H10.8935V1H11.6435ZM11.7475 1.00038L11.7421 1.75044L11.7531 1.75036L11.7475 1.00038ZM11.8488 1H12.5988V0.25H11.8488V1ZM11.8488 1.00147H11.0988V1.74071L11.8379 1.7514L11.8488 1.00147ZM17.5782 11.46L18.1703 11.9203L18.1703 11.9203L17.5782 11.46ZM17.4345 11.6447L16.8425 11.1842L16.8425 11.1842L17.4345 11.6447ZM14.304 17.3807V18.1307H14.9373L15.0434 17.5064L14.304 17.3807ZM5.31957 11.526C7.1944 13.9339 8.12415 15.7591 8.45107 17.5178L9.92581 17.2437C9.53625 15.148 8.44579 13.0995 6.5031 10.6045L5.31957 11.526ZM11.6321 0.251643C9.47212 0.284595 7.81861 0.812721 6.60354 1.6877C5.38549 2.56483 4.6654 3.74948 4.3056 4.99054C3.9482 6.22329 3.94391 7.51502 4.14756 8.65171C4.34958 9.77925 4.76794 10.8176 5.31957 11.526L6.5031 10.6045C6.14029 10.1385 5.79607 9.34729 5.62405 8.38718C5.45367 7.43621 5.4639 6.3822 5.74627 5.40821C6.02624 4.44253 6.57117 3.55946 7.48008 2.90494C8.39196 2.24829 9.72736 1.78088 11.6549 1.75147L11.6321 0.251643ZM12.3935 1.00156V1H10.8935V1.00156H12.3935ZM11.6435 1.75C11.6765 1.75 11.7094 1.75012 11.7421 1.75036L11.7529 0.250396C11.7166 0.250132 11.6801 0.25 11.6435 0.25V1.75ZM11.8488 0.25C11.813 0.25 11.7774 0.250133 11.7419 0.250397L11.7531 1.75036C11.7848 1.75012 11.8167 1.75 11.8488 1.75V0.25ZM12.5988 1.00147V1H11.0988V1.00147H12.5988ZM11.8379 1.7514C13.7753 1.77939 15.159 2.2254 16.1234 2.86874C17.0827 3.50868 17.6736 4.37411 17.9827 5.33058C18.6142 7.28425 18.0638 9.61319 16.986 10.9997L18.1703 11.9203C19.5286 10.173 20.206 7.3318 19.41 4.86924C19.0054 3.61759 18.2187 2.46337 16.9558 1.6209C15.698 0.781845 14.0147 0.282695 11.8596 0.251552L11.8379 1.7514ZM16.986 10.9997C16.9377 11.0619 16.8899 11.1234 16.8425 11.1842L18.0266 12.1051C18.0739 12.0443 18.1218 11.9827 18.1703 11.9203L16.986 10.9997ZM16.8425 11.1842C15.1058 13.4172 13.9727 14.8527 13.5646 17.2551L15.0434 17.5064C15.3791 15.5304 16.2592 14.3775 18.0266 12.1051L16.8425 11.1842ZM14.304 16.6307H11.8488V18.1307H14.304V16.6307ZM11.8488 16.6307H11.6436V18.1307H11.8488V16.6307ZM9.18844 18.1307H11.6436V16.6307H9.18844V18.1307Z" fill="#DF252A"/>
<path d="M8.89844 19.8807H14.7342" stroke="#DF252A" stroke-width="1.5"/>
<path d="M9.93359 22.3807H13.435" stroke="#DF252A" stroke-width="1.5"/>
</svg>
