<svg width="48" height="50" viewBox="0 0 48 50" fill="none" xmlns="http://www.w3.org/2000/svg">
<path d="M18.0093 13.2085C18.0093 13.9276 18.5167 14.5093 19.1442 14.5093H29.5345C30.162 14.5093 30.6696 13.9276 30.6696 13.2085V8.5554H45.73V41.8993H38.1531L41.023 38.6103C41.4658 38.1027 41.4658 37.2885 41.023 36.7809C40.58 36.2732 39.8695 36.2732 39.4266 36.7809L34.6281 42.28C34.416 42.5233 34.2961 42.851 34.2961 43.2C34.2961 43.549 34.416 43.8768 34.6281 44.1201L39.4266 49.6193C39.648 49.8731 39.934 50 40.2293 50C40.5246 50 40.8107 49.8731 41.0321 49.6193C41.4751 49.1116 41.4751 48.2973 41.0321 47.7896L38.1624 44.5008H46.8649C47.4924 44.5008 48 43.9192 48 43.2V7.25465C48 6.53552 47.4924 5.95389 46.8649 5.95389H30.6603V1.30075C30.6603 0.581641 30.1527 0 29.5254 0H19.1351C18.5076 0 18 0.581641 18 1.30075V13.2085H18.0093ZM20.27 2.60152H28.3996V11.9183H20.27V2.60152Z" fill="#333333"/>
<path d="M18 18.4345V31.5655C18 32.3586 18.521 33 19.1654 33H29.8345C30.4788 33 31 32.3586 31 31.5655V18.4345C31 17.6414 30.4788 17 29.8345 17H19.156C18.521 17.0117 18 17.6414 18 18.4345ZM20.3213 19.8688H28.6691V30.1312H20.3213V19.8688Z" fill="#333333"/>
<path d="M1.12607 44.0435H18.3377V48.6986C18.3377 49.4181 18.8453 50 19.4728 50H29.8648C30.4924 50 31 49.4181 31 48.6986V36.7964C31 36.0771 30.4924 35.4952 29.8648 35.4952H19.4636C18.836 35.4952 18.3284 36.0771 18.3284 36.7964V41.4515H2.25202V8.09353H10.8437L7.9734 11.3838C7.53042 11.8917 7.53042 12.7063 7.9734 13.2142C8.19491 13.4681 8.48101 13.5951 8.77633 13.5951C9.07167 13.5951 9.35777 13.4681 9.57926 13.2142L14.3784 7.71265C14.8214 7.20482 14.8214 6.39019 14.3784 5.88236L9.57926 0.380874C9.13628 -0.126958 8.42564 -0.126958 7.98264 0.380874C7.53964 0.888704 7.53964 1.70334 7.98264 2.21117L10.8529 5.50148H1.12607C0.498494 5.50148 0.000123888 6.08337 0.000123888 6.80279V42.7529C-0.0091052 43.4618 0.498494 44.0435 1.12607 44.0435ZM20.5989 38.0872H28.7297V47.408H20.5989V38.0872Z" fill="#333333"/>
</svg>
