<svg width="48" height="54" viewBox="0 0 48 54" fill="none" xmlns="http://www.w3.org/2000/svg">
<path fill-rule="evenodd" clip-rule="evenodd" d="M23.5538 9.00065C23.4165 9.55178 23.4057 10.1233 23.5223 10.6749C23.6388 11.2265 23.8797 11.7448 24.2282 12.1933C26.1508 14.5966 23.9752 15.2828 22.1401 13.74C20.3049 12.1973 19.9733 8.79633 23.109 3.99226C23.924 2.75976 25.3692 2.01038 26.705 1.50165C31.3965 -0.268764 34.0235 0.780427 33.6659 5.16078C33.5089 7.05184 33.3952 8.96996 32.9163 10.8112C32.148 13.7829 29.3685 15.5845 27.3289 17.6285C26.3937 18.5601 25.3409 19.426 25.2923 20.7141C25.209 22.508 23.2957 22.6493 22.8943 21.3294C22.4345 19.8224 23.5466 18.2553 24.5025 16.9749C26.4464 14.3439 30.2218 12.6129 30.8475 9.68033C32.161 3.43956 30.3998 2.47029 27.5333 4.1724C25.7149 5.25435 24.1808 6.52094 23.5538 9.00065Z" fill="#333333"/>
<path fill-rule="evenodd" clip-rule="evenodd" d="M34.6558 30.5051V34.8878H26.3177V42.3926H21.2462V34.9847H13.2403V30.4469H21.6892C21.7445 28.2847 21.7445 26.1903 21.7667 24.0475C21.3237 18.5304 15.4218 16.7075 10.5717 17.0372C-5.83869 18.1329 0.129737 37.7578 6.69611 43.4785C8.2685 44.8166 9.68587 46.2807 11.2472 47.6188C16.6619 52.2535 23.1065 56.7234 31.046 51.9626C39.2733 46.0965 45.2528 39.697 47.6114 32.4346C49.5049 22.9034 44.378 16.2809 34.4343 17.1245C27.9455 18.4334 26.207 21.4102 26.207 24.2317C26.2402 26.2679 26.2845 28.3041 26.3177 30.35L34.6558 30.5051ZM13.6611 27.7999H18.4115V23.7372C18.4115 22.5252 17.9464 21.5168 16.9166 21.0417C11.5351 19.1122 8.25743 19.4806 6.07602 21.0417C0.705544 26.297 2.13398 32.0662 6.07602 38.0293C7.70377 39.9782 9.3426 41.9271 10.9704 43.8858C19.3638 53.1746 27.868 53.9309 36.5272 43.8858C38.2915 41.7849 40.0558 39.6873 41.8201 37.593C45.9393 31.6686 46.2162 26.2679 41.8201 21.5071C38.7307 18.385 29.3075 19.3546 29.3075 23.4269V28.0617H34.1243C36.8372 28.0617 37.7231 29.0507 37.7231 30.7669V33.8309C37.7231 36.4876 37.0919 37.6027 35.1873 37.6027C33.2827 37.6027 31.4114 37.6415 29.5843 37.6415V41.6847C29.5843 43.8567 28.3773 45.0396 26.3399 45.059C24.5571 45.059 22.7743 45.2432 21.0026 45.059C18.8434 44.8457 18.5333 43.0228 18.5333 41.8496V37.6318C16.8723 37.6318 15.0342 37.6802 13.3621 37.6802C11.0036 37.7481 10.2063 36.381 9.97377 34.0054V30.9414C10.2284 29.0507 10.7378 27.5963 13.6611 27.7999Z" fill="#333333"/>
</svg>
