<svg width="40" height="40" viewBox="0 0 40 40" fill="none" xmlns="http://www.w3.org/2000/svg">
<circle cx="20" cy="20" r="20" fill="white"/>
<path d="M10 16.5644C10.4207 16.2257 11.0775 16.236 11.4879 16.5849L12.2576 17.2416C12.668 17.5905 13.3248 17.6008 13.7455 17.2622L14.628 16.5541C15.0487 16.2155 15.7055 16.2257 16.116 16.5746L16.8856 17.2314C17.296 17.5803 17.9528 17.5905 18.3735 17.2519L19.256 16.5439C19.6768 16.2052 20.3335 16.2155 20.744 16.5644L21.5136 17.2211C21.9241 17.57 22.5808 17.5803 23.0015 17.2416L23.884 16.5336C24.3048 16.195 24.9615 16.2052 25.372 16.5541L26.1416 17.2109C26.5521 17.5598 27.2088 17.57 27.6296 17.2314L28.5121 16.5233C28.9328 16.1847 29.5895 16.195 30 16.5439" stroke="#727271" stroke-width="1.5" stroke-miterlimit="10" stroke-linecap="round" stroke-linejoin="round"/>
<path d="M10 13.0859C10.4207 12.7472 11.0775 12.7575 11.4879 13.1064L12.2576 13.7631C12.668 14.112 13.3248 14.1223 13.7455 13.7837L14.628 13.0756C15.0487 12.737 15.7055 12.7472 16.116 13.0961L16.8856 13.7529C17.296 14.1018 17.9528 14.112 18.3735 13.7734L19.256 13.0653C19.6768 12.7267 20.3335 12.737 20.744 13.0859L21.5136 13.7426C21.9241 14.0915 22.5808 14.1018 23.0015 13.7631L23.884 13.0551C24.3048 12.7164 24.9615 12.7267 25.372 13.0756L26.1416 13.7323C26.5521 14.0812 27.2088 14.0915 27.6296 13.7529L28.5121 13.0448C28.9328 12.7062 29.5895 12.7164 30 13.0653" stroke="#727271" stroke-width="1.5" stroke-miterlimit="10" stroke-linecap="round" stroke-linejoin="round"/>
<path d="M18.7487 21.0063C15.5326 21.0063 13.4877 23.0861 12.6137 24.3481C12.4112 24.6407 12.4164 25.0246 12.6261 25.312C13.6173 26.6703 15.8084 28.7025 18.7487 28.7025C21.6366 28.7025 24.0349 26.742 25.2117 25.3852C25.4882 25.0663 25.492 24.6015 25.221 24.2779C24.16 23.0105 21.9057 21.0063 18.7487 21.0063Z" stroke="#727271" stroke-width="1.5"/>
<path d="M28.2139 21.5195L25.6484 24.598L28.2139 27.1635V21.5195Z" stroke="#727271" stroke-width="1.5" stroke-linejoin="round"/>
<circle cx="17.1824" cy="24.085" r="1.02617" fill="#727271"/>
</svg>
