<svg width="24" height="24" viewBox="0 0 24 24" fill="none" xmlns="http://www.w3.org/2000/svg">
<path d="M4.58203 13.6267V9.40177C4.58203 5.31879 7.8899 2 11.9838 2C16.0668 2 19.3856 5.30787 19.3856 9.40177V14.511V16.5852C19.3856 18.9105 17.5078 20.7883 15.1825 20.7883H10.1716" stroke="#DF252A" stroke-width="1.5" stroke-miterlimit="10"/>
<path d="M2.7904 15.7555C1.80786 15.7555 1 14.9586 1 13.9651V10.69C1 9.70746 1.79695 8.8996 2.7904 8.8996C3.77294 8.8996 4.5808 9.69654 4.5808 10.69V13.9651C4.5808 14.9586 3.77294 15.7555 2.7904 15.7555Z" stroke="#DF252A" stroke-width="1.5" stroke-miterlimit="10"/>
<path d="M21.1615 15.7555C20.179 15.7555 19.3711 14.9586 19.3711 13.9651V10.69C19.3711 9.70746 20.168 8.8996 21.1615 8.8996C22.144 8.8996 22.9519 9.69654 22.9519 10.69V13.9651C22.9519 14.9586 22.144 15.7555 21.1615 15.7555Z" stroke="#DF252A" stroke-width="1.5" stroke-miterlimit="10"/>
<path d="M11.457 22.2949H10.0378C9.20811 22.2949 8.53125 21.6181 8.53125 20.7884C8.53125 19.9587 9.20811 19.2818 10.0378 19.2818H11.457C12.2867 19.2818 12.9636 19.9587 12.9636 20.7884C12.9636 21.6181 12.2867 22.2949 11.457 22.2949Z" fill="#DF252A"/>
</svg>
