<svg width="330" height="55" viewBox="0 0 330 55" fill="none" xmlns="http://www.w3.org/2000/svg">
<path opacity="0.1" fill-rule="evenodd" clip-rule="evenodd" d="M302.562 27.4375C317.716 27.4375 330 15.1533 330 0L275.125 1.90735e-06L260.25 2.39866e-06C238.159 2.39866e-06 220.25 17.9086 220.25 40V54.875H235.125C257.216 54.875 275.125 36.9664 275.125 14.875V1.90735e-06C275.125 15.1533 287.409 27.4375 302.562 27.4375ZM302.562 27.4375L275.125 27.4375C275.125 42.5908 287.409 54.875 302.562 54.875C317.716 54.875 330 42.5908 330 27.4375L302.562 27.4375ZM137.938 54.875C122.784 54.875 110.5 42.5908 110.5 27.4375C110.5 12.2842 122.784 2.39866e-06 137.938 2.39866e-06V27.4375V54.875ZM165.375 27.4375C165.375 42.5908 177.659 54.875 192.812 54.875C207.966 54.875 220.25 42.5908 220.25 27.4375C220.25 12.2842 207.966 2.39866e-06 192.812 2.39866e-06C177.659 2.39866e-06 165.375 12.2842 165.375 27.4375ZM165.375 27.4375V54.875C150.222 54.875 137.938 42.5908 137.938 27.4375C137.938 12.2842 150.222 2.39866e-06 165.375 2.39866e-06V27.4375ZM0.75 2.39866e-06H55.625V27.4375V54.875H0.75V2.39866e-06ZM110.5 27.4375C110.5 42.5908 98.2158 54.875 83.0625 54.875C67.9092 54.875 55.625 42.5908 55.625 27.4375C55.625 12.2842 67.9092 2.39866e-06 83.0625 2.39866e-06C98.2158 2.39866e-06 110.5 12.2842 110.5 27.4375ZM96.1828 27.4372C96.1828 34.6845 90.3077 40.5595 83.0605 40.5595C75.8133 40.5595 69.9382 34.6845 69.9382 27.4372C69.9382 20.19 75.8133 14.3149 83.0605 14.3149C90.3077 14.3149 96.1828 20.19 96.1828 27.4372Z" fill="white"/>
</svg>
