<svg xmlns="http://www.w3.org/2000/svg" viewBox="0 0 19.87 19.83"><defs><style>.cls-1{fill:#727271;}</style></defs><title>Skilled Trades</title><g id="Layer_2" data-name="Layer 2"><g id="Layer_1-2" data-name="Layer 1"><path class="cls-1" d="M1.92,5.14a.68.68,0,0,1-.64-.77V4c0-.54.16-.73.68-.83a3.85,3.85,0,0,1,7.58,0,2.57,2.57,0,0,1,.47.23A1.37,1.37,0,0,1,10,5a2.33,2.33,0,0,1-.42.23V6.62A1.29,1.29,0,0,1,8.29,8a.2.2,0,0,0-.14.06,1.7,1.7,0,0,1-1,.83.53.53,0,0,0,.42.53A5.43,5.43,0,0,1,10,11l.16.18,0,0V9.61h1.28V5.77h1.28V4.5h.64V5.75h.64V3.86h.64V5.75h.64V4.49H16V5.75h1.28v5.13h.64v3.83l.06,0a.82.82,0,0,0,.11-.17c.35-.86.69-1.73,1-2.59,0-.08.07-.16.1-.25l.59.23-1.1,2.76h1.16A2.61,2.61,0,0,1,18.34,17a2.49,2.49,0,0,1-1.14.24H15.67c-.38.92-.89,1.31-1.66,1.28a1.63,1.63,0,0,1-1.51-1.27h-1v2.54H1.92c0-.35,0-.7,0-1a.85.85,0,0,0-.44-.89A3.31,3.31,0,0,1,0,15.05,5.6,5.6,0,0,1,3.09,9.77a3.34,3.34,0,0,1,.81-.32.54.54,0,0,0,.45-.55,1.56,1.56,0,0,1-.85-.62A.59.59,0,0,0,3,8,1.24,1.24,0,0,1,1.92,6.71C1.91,6.19,1.92,5.67,1.92,5.14ZM4.15,16.4V10l-.13,0c-.21.09-.44.16-.64.27A5,5,0,0,0,.64,15.07a2.78,2.78,0,0,0,1.64,2.57,5.62,5.62,0,0,0,2.51.28v-.7C4.4,17.13,4,17.06,3.65,17A2.1,2.1,0,0,1,2,15.27a15.56,15.56,0,0,1-.09-1.81h.67c0,.44,0,.87,0,1.31A1.61,1.61,0,0,0,4.15,16.4Zm6-1.66.06,0c0-.06,0-.12,0-.19,0-.66,0-1.32,0-2a.59.59,0,0,0-.09-.32,5,5,0,0,0-2.23-2A5.76,5.76,0,0,0,7.36,10v6.6c.62.12,1,.45,1,1s-.32.85-1,1v.61H9c0-.9,0-1.79,0-2.67a.4.4,0,0,0-.1-.23,2.82,2.82,0,0,1-.58-1.57H9.44L8.34,12l.59-.23.32.78.3.76c.1.25.2.5.31.75A3.82,3.82,0,0,0,10.17,14.74Zm6.46-8.32H12.17V9.61h2.55v1.26h1.91ZM3.84,5.13V7.31a1,1,0,0,0,1,1h1.8a1,1,0,0,0,1-1v-2s0-.1,0-.16Zm7.05,5.12v4.46h3.18V10.25Zm8.2,5.12h-10a.81.81,0,0,0,0,.11,1.78,1.78,0,0,0,1.44,1.11,17.34,17.34,0,0,0,1.91.05c.05,0,.11-.06.14-.11a1,1,0,0,1,.9-.53h1.18a1,1,0,0,1,.9.53.29.29,0,0,0,.19.11H17.3a1.88,1.88,0,0,0,1.18-.43A1.74,1.74,0,0,0,19.09,15.37ZM6.71,16a.1.1,0,0,0,0,0V13.33a.28.28,0,0,0,0-.13L5.76,12c-.3.37-.58.71-.85,1.06a.58.58,0,0,0-.11.31c0,1,0,2,0,3a.86.86,0,0,0,0,.16c.14.09.24,0,.34-.07A1.12,1.12,0,0,1,6,16C6.21,16,6.45,16,6.71,16Zm8-1.3h2.54V11.54H14.72ZM1.93,4.47H9.58V3.85H1.93ZM4.78,3.2V.81A3.08,3.08,0,0,0,2.65,3.2Zm2-2.39V3.19H8.87A3.08,3.08,0,0,0,6.73.81Zm4.13,18.38V17.34L9.61,17v2.19Zm-5.1-8.25a10.92,10.92,0,0,1,.68-1,.71.71,0,0,0,.09-.85C6.49,9,6.45,9,6.35,9H5.47C5,9,5,9,4.89,9.39c0,.07,0,.17,0,.22C5.16,10.05,5.45,10.48,5.76,10.94Zm-.32,7H7.3c.23,0,.38-.12.38-.32s-.15-.31-.39-.32H6.73c0-.62-.11-.68-.7-.64-.18,0-.59.38-.59.54S5.44,17.66,5.44,17.92Zm8.64-1.28h-.6a.33.33,0,0,0-.36.4,1,1,0,0,0,1,.88A1,1,0,0,0,15,17a.34.34,0,0,0-.36-.39ZM5.45.66V3.19h.61V.66ZM4.81,18.57v.62H6.7v-.62Zm-.66,0-1.58-.11v.71H4.15ZM8.33,7.36a.64.64,0,0,0,0-1.27ZM3.19,6.09a.63.63,0,0,0-.63.65.62.62,0,0,0,.63.61ZM5.36,11.5l-.55-.81v1.5Zm1.34.69v-1.5l-.55.82ZM9,5.13H8.33v.28L9,5.59Zm-5.76,0H2.56v.45l.63-.18Z"/><path class="cls-1" d="M13.43,8.33V9h-.62V8.33Z"/><path class="cls-1" d="M16,7.06v.61h-.62V7.06Z"/><path class="cls-1" d="M14.09,7.67V7.06h.62v.61Z"/><path class="cls-1" d="M13.42,7.68h-.61V7.06h.61Z"/><path class="cls-1" d="M15.37,8.33H16V9h-.61Z"/><path class="cls-1" d="M14.7,9h-.61V8.34h.61Z"/><path class="cls-1" d="M15.36,10.23V9.62H16v.61Z"/><path class="cls-1" d="M12.81,14.07V10.89h.61v3.18Z"/><path class="cls-1" d="M11.52,14.07V10.9h.62v3.17Z"/><path class="cls-1" d="M15.37,12.79v-.61h1.26v.61Z"/><path class="cls-1" d="M15.37,14.07v-.61h1.25v.61Z"/></g></g></svg>