<svg width="40" height="40" viewBox="0 0 40 40" fill="none" xmlns="http://www.w3.org/2000/svg">
<circle cx="20" cy="20" r="20" fill="white"/>
<path d="M22.6994 14.3C22.5161 14.4869 22.4135 14.7382 22.4135 15C22.4135 15.2617 22.5161 15.5131 22.6994 15.7L24.2994 17.3C24.4863 17.4832 24.7376 17.5858 24.9994 17.5858C25.2611 17.5858 25.5124 17.4832 25.6994 17.3L29.4694 13.53C29.9722 14.6412 30.1245 15.8792 29.9058 17.0791C29.6872 18.279 29.1081 19.3838 28.2456 20.2463C27.3832 21.1087 26.2784 21.6878 25.0785 21.9064C23.8786 22.1251 22.6406 21.9728 21.5294 21.47L14.6194 28.38C14.2215 28.7778 13.682 29.0013 13.1194 29.0013C12.5568 29.0013 12.0172 28.7778 11.6194 28.38C11.2215 27.9822 10.998 27.4426 10.998 26.88C10.998 26.3174 11.2215 25.7778 11.6194 25.38L18.5294 18.47C18.0265 17.3588 17.8743 16.1207 18.0929 14.9208C18.3115 13.7209 18.8907 12.6161 19.7531 11.7537C20.6155 10.8913 21.7203 10.3121 22.9202 10.0935C24.1201 9.8749 25.3582 10.0271 26.4694 10.53L22.7094 14.29L22.6994 14.3Z" stroke="#727271" stroke-width="2" stroke-linecap="round" stroke-linejoin="round"/>
</svg>
