<svg width="32" height="32" viewBox="0 0 32 32" fill="none" xmlns="http://www.w3.org/2000/svg">
<path d="M10.5 5H5V29H14" stroke="#DF252A" stroke-width="1.5"/>
<path d="M20.84 5H27V14.5" stroke="#DF252A" stroke-width="1.5"/>
<path d="M20.0003 2.66675H12.0003C11.2639 2.66675 10.667 3.2637 10.667 4.00008V6.66675C10.667 7.40313 11.2639 8.00008 12.0003 8.00008H20.0003C20.7367 8.00008 21.3337 7.40313 21.3337 6.66675V4.00008C21.3337 3.2637 20.7367 2.66675 20.0003 2.66675Z" stroke="#DF252A" stroke-width="1.5" stroke-linecap="round"/>
<path d="M23 30C26.866 30 30 26.866 30 23C30 19.134 26.866 16 23 16C19.134 16 16 19.134 16 23C16 26.866 19.134 30 23 30Z" stroke="#DF252A" stroke-width="1.5" stroke-linecap="round" stroke-linejoin="round"/>
<path d="M29.9992 23.75H30.7492V22.25H29.9992V23.75ZM27.1992 22.25H26.4492V23.75H27.1992V22.25ZM29.9992 22.25H27.1992V23.75H29.9992V22.25Z" fill="#DF252A"/>
<path d="M18.8 23.75H19.55V22.25H18.8V23.75ZM16 22.25H15.25V23.75H16V22.25ZM18.8 22.25H16V23.75H18.8V22.25Z" fill="#DF252A"/>
<path d="M22.25 18.8V19.55H23.75V18.8H22.25ZM23.75 16V15.25H22.25V16H23.75ZM23.75 18.8V16H22.25V18.8H23.75Z" fill="#DF252A"/>
<path d="M22.25 30.0002V30.7502H23.75V30.0002H22.25ZM23.75 27.2002V26.4502H22.25V27.2002H23.75ZM23.75 30.0002V27.2002H22.25V30.0002H23.75Z" fill="#DF252A"/>
</svg>
