<svg width="584" height="414" viewBox="0 0 584 414" fill="none" xmlns="http://www.w3.org/2000/svg">
<g filter="url(#filter0_d_2313_7716)">
<rect x="24" y="20" width="536" height="366" rx="12" fill="white"/>
<rect x="24.5" y="20.5" width="535" height="365" rx="11.5" stroke="#2B2A29" stroke-opacity="0.1"/>
</g>
<path d="M52.802 47.2C54.146 47.2 55.266 47.6713 56.162 48.614C57.0673 49.5567 57.52 50.7187 57.52 52.1C57.52 53.4813 57.0673 54.6433 56.162 55.586C55.266 56.5287 54.146 57 52.802 57H48.91V47.2H52.802ZM52.802 55.152C53.6513 55.152 54.342 54.872 54.874 54.312C55.406 53.7427 55.672 53.0053 55.672 52.1C55.672 51.1947 55.406 50.462 54.874 49.902C54.342 49.3327 53.6513 49.048 52.802 49.048H50.842V55.152H52.802ZM59.7025 49.16C59.4038 49.16 59.1425 49.0527 58.9185 48.838C58.7038 48.614 58.5965 48.3527 58.5965 48.054C58.5965 47.7553 58.7038 47.494 58.9185 47.27C59.1425 47.046 59.4038 46.934 59.7025 46.934C60.0105 46.934 60.2718 47.046 60.4865 47.27C60.7105 47.494 60.8225 47.7553 60.8225 48.054C60.8225 48.3527 60.7105 48.614 60.4865 48.838C60.2718 49.0527 60.0105 49.16 59.7025 49.16ZM58.8065 57V50H60.6125V57H58.8065ZM66.3395 49.804C67.2821 49.804 68.0848 50.1633 68.7475 50.882C69.4195 51.5913 69.7555 52.464 69.7555 53.5C69.7555 54.536 69.4195 55.4133 68.7475 56.132C68.0848 56.8413 67.2821 57.196 66.3395 57.196C65.3595 57.196 64.6035 56.8553 64.0715 56.174V59.8H62.2655V50H64.0715V50.826C64.6035 50.1447 65.3595 49.804 66.3395 49.804ZM64.6175 54.928C64.9815 55.292 65.4435 55.474 66.0035 55.474C66.5635 55.474 67.0255 55.292 67.3895 54.928C67.7628 54.5547 67.9495 54.0787 67.9495 53.5C67.9495 52.9213 67.7628 52.45 67.3895 52.086C67.0255 51.7127 66.5635 51.526 66.0035 51.526C65.4435 51.526 64.9815 51.7127 64.6175 52.086C64.2535 52.45 64.0715 52.9213 64.0715 53.5C64.0715 54.0787 64.2535 54.5547 64.6175 54.928ZM71.0291 57V46.78H72.8351V57H71.0291ZM80.4521 56.132C79.7334 56.8413 78.8561 57.196 77.8201 57.196C76.7841 57.196 75.9068 56.8413 75.1881 56.132C74.4788 55.4133 74.1241 54.536 74.1241 53.5C74.1241 52.464 74.4788 51.5913 75.1881 50.882C75.9068 50.1633 76.7841 49.804 77.8201 49.804C78.8561 49.804 79.7334 50.1633 80.4521 50.882C81.1708 51.5913 81.5301 52.464 81.5301 53.5C81.5301 54.536 81.1708 55.4133 80.4521 56.132ZM76.4621 54.886C76.8261 55.25 77.2788 55.432 77.8201 55.432C78.3614 55.432 78.8141 55.25 79.1781 54.886C79.5421 54.522 79.7241 54.06 79.7241 53.5C79.7241 52.94 79.5421 52.478 79.1781 52.114C78.8141 51.75 78.3614 51.568 77.8201 51.568C77.2788 51.568 76.8261 51.75 76.4621 52.114C76.1074 52.478 75.9301 52.94 75.9301 53.5C75.9301 54.06 76.1074 54.522 76.4621 54.886ZM90.5426 49.804C91.3453 49.804 91.9846 50.0653 92.4606 50.588C92.9459 51.1107 93.1886 51.8107 93.1886 52.688V57H91.3826V52.814C91.3826 52.394 91.2799 52.0673 91.0746 51.834C90.8693 51.6007 90.5799 51.484 90.2066 51.484C89.7959 51.484 89.4739 51.6193 89.2406 51.89C89.0166 52.1607 88.9046 52.5527 88.9046 53.066V57H87.0986V52.814C87.0986 52.394 86.9959 52.0673 86.7906 51.834C86.5853 51.6007 86.2959 51.484 85.9226 51.484C85.5213 51.484 85.1993 51.6193 84.9566 51.89C84.7233 52.1607 84.6066 52.5527 84.6066 53.066V57H82.8006V50H84.6066V50.742C85.0266 50.1167 85.6753 49.804 86.5526 49.804C87.4113 49.804 88.0459 50.14 88.4566 50.812C88.9233 50.14 89.6186 49.804 90.5426 49.804ZM100.042 50H101.848V57H100.042V56.174C99.5012 56.8553 98.7405 57.196 97.7605 57.196C96.8272 57.196 96.0245 56.8413 95.3525 56.132C94.6898 55.4133 94.3585 54.536 94.3585 53.5C94.3585 52.464 94.6898 51.5913 95.3525 50.882C96.0245 50.1633 96.8272 49.804 97.7605 49.804C98.7405 49.804 99.5012 50.1447 100.042 50.826V50ZM96.7105 54.928C97.0745 55.292 97.5365 55.474 98.0965 55.474C98.6565 55.474 99.1185 55.292 99.4825 54.928C99.8558 54.5547 100.042 54.0787 100.042 53.5C100.042 52.9213 99.8558 52.45 99.4825 52.086C99.1185 51.7127 98.6565 51.526 98.0965 51.526C97.5365 51.526 97.0745 51.7127 96.7105 52.086C96.3465 52.45 96.1645 52.9213 96.1645 53.5C96.1645 54.0787 96.3465 54.5547 96.7105 54.928ZM107.882 49.16C107.583 49.16 107.322 49.0527 107.098 48.838C106.883 48.614 106.776 48.3527 106.776 48.054C106.776 47.7553 106.883 47.494 107.098 47.27C107.322 47.046 107.583 46.934 107.882 46.934C108.19 46.934 108.451 47.046 108.666 47.27C108.89 47.494 109.002 47.7553 109.002 48.054C109.002 48.3527 108.89 48.614 108.666 48.838C108.451 49.0527 108.19 49.16 107.882 49.16ZM106.986 57V50H108.792V57H106.986ZM114.337 49.804C115.102 49.804 115.732 50.0607 116.227 50.574C116.731 51.0873 116.983 51.7967 116.983 52.702V57H115.177V52.926C115.177 52.4593 115.051 52.1047 114.799 51.862C114.547 51.61 114.211 51.484 113.791 51.484C113.324 51.484 112.951 51.6287 112.671 51.918C112.391 52.2073 112.251 52.6413 112.251 53.22V57H110.445V50H112.251V50.784C112.69 50.1307 113.385 49.804 114.337 49.804ZM125.455 57.196C124.485 57.196 123.668 56.9813 123.005 56.552C122.343 56.1133 121.876 55.5207 121.605 54.774L123.257 53.808C123.64 54.8067 124.391 55.306 125.511 55.306C126.053 55.306 126.449 55.208 126.701 55.012C126.953 54.816 127.079 54.5687 127.079 54.27C127.079 53.9247 126.925 53.6587 126.617 53.472C126.309 53.276 125.759 53.066 124.965 52.842C124.527 52.7113 124.153 52.5807 123.845 52.45C123.547 52.3193 123.243 52.1467 122.935 51.932C122.637 51.708 122.408 51.428 122.249 51.092C122.091 50.756 122.011 50.364 122.011 49.916C122.011 49.0293 122.324 48.3247 122.949 47.802C123.584 47.27 124.345 47.004 125.231 47.004C126.025 47.004 126.72 47.2 127.317 47.592C127.924 47.9747 128.395 48.5113 128.731 49.202L127.107 50.14C126.715 49.3 126.09 48.88 125.231 48.88C124.83 48.88 124.513 48.9733 124.279 49.16C124.055 49.3373 123.943 49.5707 123.943 49.86C123.943 50.168 124.069 50.42 124.321 50.616C124.583 50.8027 125.077 51.008 125.805 51.232C126.104 51.3253 126.328 51.4 126.477 51.456C126.636 51.5027 126.846 51.582 127.107 51.694C127.378 51.7967 127.583 51.8947 127.723 51.988C127.873 52.0813 128.041 52.2073 128.227 52.366C128.414 52.5247 128.554 52.688 128.647 52.856C128.75 53.024 128.834 53.2293 128.899 53.472C128.974 53.7053 129.011 53.962 129.011 54.242C129.011 55.1473 128.68 55.866 128.017 56.398C127.364 56.93 126.51 57.196 125.455 57.196ZM136.343 56.132C135.624 56.8413 134.747 57.196 133.711 57.196C132.675 57.196 131.797 56.8413 131.079 56.132C130.369 55.4133 130.015 54.536 130.015 53.5C130.015 52.464 130.369 51.5913 131.079 50.882C131.797 50.1633 132.675 49.804 133.711 49.804C134.747 49.804 135.624 50.1633 136.343 50.882C137.061 51.5913 137.421 52.464 137.421 53.5C137.421 54.536 137.061 55.4133 136.343 56.132ZM132.353 54.886C132.717 55.25 133.169 55.432 133.711 55.432C134.252 55.432 134.705 55.25 135.069 54.886C135.433 54.522 135.615 54.06 135.615 53.5C135.615 52.94 135.433 52.478 135.069 52.114C134.705 51.75 134.252 51.568 133.711 51.568C133.169 51.568 132.717 51.75 132.353 52.114C131.998 52.478 131.821 52.94 131.821 53.5C131.821 54.06 131.998 54.522 132.353 54.886ZM142.023 57.196C140.969 57.196 140.087 56.8413 139.377 56.132C138.677 55.4227 138.327 54.5453 138.327 53.5C138.327 52.4547 138.677 51.5773 139.377 50.868C140.087 50.1587 140.969 49.804 142.023 49.804C142.705 49.804 143.325 49.9673 143.885 50.294C144.445 50.6207 144.87 51.0593 145.159 51.61L143.605 52.52C143.465 52.2307 143.251 52.002 142.961 51.834C142.681 51.666 142.364 51.582 142.009 51.582C141.468 51.582 141.02 51.764 140.665 52.128C140.311 52.4827 140.133 52.94 140.133 53.5C140.133 54.0507 140.311 54.508 140.665 54.872C141.02 55.2267 141.468 55.404 142.009 55.404C142.373 55.404 142.695 55.3247 142.975 55.166C143.265 54.998 143.479 54.7693 143.619 54.48L145.187 55.376C144.879 55.9267 144.445 56.37 143.885 56.706C143.325 57.0327 142.705 57.196 142.023 57.196ZM147.038 49.16C146.74 49.16 146.478 49.0527 146.254 48.838C146.04 48.614 145.932 48.3527 145.932 48.054C145.932 47.7553 146.04 47.494 146.254 47.27C146.478 47.046 146.74 46.934 147.038 46.934C147.346 46.934 147.608 47.046 147.822 47.27C148.046 47.494 148.158 47.7553 148.158 48.054C148.158 48.3527 148.046 48.614 147.822 48.838C147.608 49.0527 147.346 49.16 147.038 49.16ZM146.142 57V50H147.948V57H146.142ZM154.921 50H156.727V57H154.921V56.174C154.38 56.8553 153.619 57.196 152.639 57.196C151.706 57.196 150.903 56.8413 150.231 56.132C149.569 55.4133 149.237 54.536 149.237 53.5C149.237 52.464 149.569 51.5913 150.231 50.882C150.903 50.1633 151.706 49.804 152.639 49.804C153.619 49.804 154.38 50.1447 154.921 50.826V50ZM151.589 54.928C151.953 55.292 152.415 55.474 152.975 55.474C153.535 55.474 153.997 55.292 154.361 54.928C154.735 54.5547 154.921 54.0787 154.921 53.5C154.921 52.9213 154.735 52.45 154.361 52.086C153.997 51.7127 153.535 51.526 152.975 51.526C152.415 51.526 151.953 51.7127 151.589 52.086C151.225 52.45 151.043 52.9213 151.043 53.5C151.043 54.0787 151.225 54.5547 151.589 54.928ZM158.365 57V46.78H160.171V57H158.365ZM167.452 57L164.708 47.2H166.738L168.614 54.466L170.658 47.2H172.31L174.368 54.466L176.244 47.2H178.274L175.53 57H173.332L171.484 50.532L169.65 57H167.452ZM184.44 56.132C183.722 56.8413 182.844 57.196 181.808 57.196C180.772 57.196 179.895 56.8413 179.176 56.132C178.467 55.4133 178.112 54.536 178.112 53.5C178.112 52.464 178.467 51.5913 179.176 50.882C179.895 50.1633 180.772 49.804 181.808 49.804C182.844 49.804 183.722 50.1633 184.44 50.882C185.159 51.5913 185.518 52.464 185.518 53.5C185.518 54.536 185.159 55.4133 184.44 56.132ZM180.45 54.886C180.814 55.25 181.267 55.432 181.808 55.432C182.35 55.432 182.802 55.25 183.166 54.886C183.53 54.522 183.712 54.06 183.712 53.5C183.712 52.94 183.53 52.478 183.166 52.114C182.802 51.75 182.35 51.568 181.808 51.568C181.267 51.568 180.814 51.75 180.45 52.114C180.096 52.478 179.918 52.94 179.918 53.5C179.918 54.06 180.096 54.522 180.45 54.886ZM188.595 51.204C188.763 50.756 189.038 50.42 189.421 50.196C189.813 49.972 190.247 49.86 190.723 49.86V51.876C190.172 51.8107 189.678 51.9227 189.239 52.212C188.81 52.5013 188.595 52.982 188.595 53.654V57H186.789V50H188.595V51.204ZM198.233 57H196.133L193.585 53.822V57H191.779V47.2H193.585V53.08L195.993 50H198.149L195.335 53.458L198.233 57Z" fill="#727271"/>
<path d="M263.796 145.184H260.436V147.176H263.7V148.76H260.436V152H258.78V143.6H263.796V145.184ZM265.699 145.28C265.443 145.28 265.219 145.188 265.027 145.004C264.843 144.812 264.751 144.588 264.751 144.332C264.751 144.076 264.843 143.852 265.027 143.66C265.219 143.468 265.443 143.372 265.699 143.372C265.963 143.372 266.187 143.468 266.371 143.66C266.563 143.852 266.659 144.076 266.659 144.332C266.659 144.588 266.563 144.812 266.371 145.004C266.187 145.188 265.963 145.28 265.699 145.28ZM264.931 152V146H266.479V152H264.931ZM271.232 145.832C271.888 145.832 272.428 146.052 272.852 146.492C273.284 146.932 273.5 147.54 273.5 148.316V152H271.952V148.508C271.952 148.108 271.844 147.804 271.628 147.596C271.412 147.38 271.124 147.272 270.764 147.272C270.364 147.272 270.044 147.396 269.804 147.644C269.564 147.892 269.444 148.264 269.444 148.76V152H267.896V146H269.444V146.672C269.82 146.112 270.416 145.832 271.232 145.832ZM279.381 146H280.929V152H279.381V151.292C278.917 151.876 278.265 152.168 277.425 152.168C276.625 152.168 275.937 151.864 275.361 151.256C274.793 150.64 274.509 149.888 274.509 149C274.509 148.112 274.793 147.364 275.361 146.756C275.937 146.14 276.625 145.832 277.425 145.832C278.265 145.832 278.917 146.124 279.381 146.708V146ZM276.525 150.224C276.837 150.536 277.233 150.692 277.713 150.692C278.193 150.692 278.589 150.536 278.901 150.224C279.221 149.904 279.381 149.496 279.381 149C279.381 148.504 279.221 148.1 278.901 147.788C278.589 147.468 278.193 147.308 277.713 147.308C277.233 147.308 276.837 147.468 276.525 147.788C276.213 148.1 276.057 148.504 276.057 149C276.057 149.496 276.213 149.904 276.525 150.224ZM282.333 152V143.24H283.881V152H282.333ZM286.066 145.28C285.81 145.28 285.586 145.188 285.394 145.004C285.21 144.812 285.118 144.588 285.118 144.332C285.118 144.076 285.21 143.852 285.394 143.66C285.586 143.468 285.81 143.372 286.066 143.372C286.33 143.372 286.554 143.468 286.738 143.66C286.93 143.852 287.026 144.076 287.026 144.332C287.026 144.588 286.93 144.812 286.738 145.004C286.554 145.188 286.33 145.28 286.066 145.28ZM285.298 152V146H286.846V152H285.298ZM289.644 147.704C289.644 147.864 289.748 147.996 289.956 148.1C290.172 148.196 290.432 148.284 290.736 148.364C291.04 148.436 291.344 148.532 291.648 148.652C291.952 148.764 292.208 148.956 292.416 149.228C292.632 149.5 292.74 149.84 292.74 150.248C292.74 150.864 292.508 151.34 292.044 151.676C291.588 152.004 291.016 152.168 290.328 152.168C289.096 152.168 288.256 151.692 287.808 150.74L289.152 149.984C289.328 150.504 289.72 150.764 290.328 150.764C290.88 150.764 291.156 150.592 291.156 150.248C291.156 150.088 291.048 149.96 290.832 149.864C290.624 149.76 290.368 149.668 290.064 149.588C289.76 149.508 289.456 149.408 289.152 149.288C288.848 149.168 288.588 148.98 288.372 148.724C288.164 148.46 288.06 148.132 288.06 147.74C288.06 147.148 288.276 146.684 288.708 146.348C289.148 146.004 289.692 145.832 290.34 145.832C290.828 145.832 291.272 145.944 291.672 146.168C292.072 146.384 292.388 146.696 292.62 147.104L291.3 147.824C291.108 147.416 290.788 147.212 290.34 147.212C290.14 147.212 289.972 147.256 289.836 147.344C289.708 147.432 289.644 147.552 289.644 147.704ZM294.961 149.636C295.169 150.388 295.733 150.764 296.653 150.764C297.245 150.764 297.693 150.564 297.997 150.164L299.245 150.884C298.653 151.74 297.781 152.168 296.629 152.168C295.637 152.168 294.841 151.868 294.241 151.268C293.641 150.668 293.341 149.912 293.341 149C293.341 148.096 293.637 147.344 294.229 146.744C294.821 146.136 295.581 145.832 296.509 145.832C297.389 145.832 298.113 146.136 298.681 146.744C299.257 147.352 299.545 148.104 299.545 149C299.545 149.2 299.525 149.412 299.485 149.636H294.961ZM294.937 148.436H297.997C297.909 148.028 297.725 147.724 297.445 147.524C297.173 147.324 296.861 147.224 296.509 147.224C296.093 147.224 295.749 147.332 295.477 147.548C295.205 147.756 295.025 148.052 294.937 148.436ZM308.738 151.256C308.122 151.864 307.37 152.168 306.482 152.168C305.594 152.168 304.842 151.864 304.226 151.256C303.618 150.64 303.314 149.888 303.314 149C303.314 148.112 303.618 147.364 304.226 146.756C304.842 146.14 305.594 145.832 306.482 145.832C307.37 145.832 308.122 146.14 308.738 146.756C309.354 147.364 309.662 148.112 309.662 149C309.662 149.888 309.354 150.64 308.738 151.256ZM305.318 150.188C305.63 150.5 306.018 150.656 306.482 150.656C306.946 150.656 307.334 150.5 307.646 150.188C307.958 149.876 308.114 149.48 308.114 149C308.114 148.52 307.958 148.124 307.646 147.812C307.334 147.5 306.946 147.344 306.482 147.344C306.018 147.344 305.63 147.5 305.318 147.812C305.014 148.124 304.862 148.52 304.862 149C304.862 149.48 305.014 149.876 305.318 150.188ZM317.115 144.8C316.267 144.736 315.843 145.076 315.843 145.82V146H317.115V147.488H315.843V152H314.295V147.488H312.519V152H310.971V147.488H310.107V146H310.971V145.94C310.971 145.092 311.207 144.448 311.679 144.008C312.151 143.568 312.855 143.376 313.791 143.432V144.92C312.943 144.856 312.519 145.196 312.519 145.94V146H314.295V145.82C314.295 144.972 314.531 144.328 315.003 143.888C315.483 143.448 316.187 143.256 317.115 143.312V144.8ZM318.914 149.636C319.122 150.388 319.686 150.764 320.606 150.764C321.198 150.764 321.646 150.564 321.95 150.164L323.198 150.884C322.606 151.74 321.734 152.168 320.582 152.168C319.59 152.168 318.794 151.868 318.194 151.268C317.594 150.668 317.294 149.912 317.294 149C317.294 148.096 317.59 147.344 318.182 146.744C318.774 146.136 319.534 145.832 320.462 145.832C321.342 145.832 322.066 146.136 322.634 146.744C323.21 147.352 323.498 148.104 323.498 149C323.498 149.2 323.478 149.412 323.438 149.636H318.914ZM318.89 148.436H321.95C321.862 148.028 321.678 147.724 321.398 147.524C321.126 147.324 320.814 147.224 320.462 147.224C320.046 147.224 319.702 147.332 319.43 147.548C319.158 147.756 318.978 148.052 318.89 148.436ZM326.127 147.032C326.271 146.648 326.507 146.36 326.835 146.168C327.171 145.976 327.543 145.88 327.951 145.88V147.608C327.479 147.552 327.055 147.648 326.679 147.896C326.311 148.144 326.127 148.556 326.127 149.132V152H324.579V146H326.127V147.032Z" fill="#727271"/>
<path d="M261.912 259.168C260.976 259.168 260.208 258.904 259.608 258.376C259.008 257.848 258.708 257.14 258.708 256.252V250.6H260.352V256.12C260.352 256.56 260.476 256.908 260.724 257.164C260.98 257.42 261.376 257.548 261.912 257.548C262.448 257.548 262.84 257.42 263.088 257.164C263.344 256.908 263.472 256.56 263.472 256.12V250.6H265.128V256.252C265.128 257.14 264.828 257.848 264.228 258.376C263.628 258.904 262.856 259.168 261.912 259.168ZM270.04 252.832C270.848 252.832 271.536 253.14 272.104 253.756C272.68 254.364 272.968 255.112 272.968 256C272.968 256.888 272.68 257.64 272.104 258.256C271.536 258.864 270.848 259.168 270.04 259.168C269.2 259.168 268.552 258.876 268.096 258.292V261.4H266.548V253H268.096V253.708C268.552 253.124 269.2 252.832 270.04 252.832ZM268.564 257.224C268.876 257.536 269.272 257.692 269.752 257.692C270.232 257.692 270.628 257.536 270.94 257.224C271.26 256.904 271.42 256.496 271.42 256C271.42 255.504 271.26 255.1 270.94 254.788C270.628 254.468 270.232 254.308 269.752 254.308C269.272 254.308 268.876 254.468 268.564 254.788C268.252 255.1 268.096 255.504 268.096 256C268.096 256.496 268.252 256.904 268.564 257.224ZM274.06 259V250.24H275.608V259H274.06ZM282.136 258.256C281.52 258.864 280.768 259.168 279.88 259.168C278.992 259.168 278.24 258.864 277.624 258.256C277.016 257.64 276.712 256.888 276.712 256C276.712 255.112 277.016 254.364 277.624 253.756C278.24 253.14 278.992 252.832 279.88 252.832C280.768 252.832 281.52 253.14 282.136 253.756C282.752 254.364 283.06 255.112 283.06 256C283.06 256.888 282.752 257.64 282.136 258.256ZM278.716 257.188C279.028 257.5 279.416 257.656 279.88 257.656C280.344 257.656 280.732 257.5 281.044 257.188C281.356 256.876 281.512 256.48 281.512 256C281.512 255.52 281.356 255.124 281.044 254.812C280.732 254.5 280.344 254.344 279.88 254.344C279.416 254.344 279.028 254.5 278.716 254.812C278.412 255.124 278.26 255.52 278.26 256C278.26 256.48 278.412 256.876 278.716 257.188ZM288.709 253H290.257V259H288.709V258.292C288.245 258.876 287.593 259.168 286.753 259.168C285.953 259.168 285.265 258.864 284.689 258.256C284.121 257.64 283.837 256.888 283.837 256C283.837 255.112 284.121 254.364 284.689 253.756C285.265 253.14 285.953 252.832 286.753 252.832C287.593 252.832 288.245 253.124 288.709 253.708V253ZM285.853 257.224C286.165 257.536 286.561 257.692 287.041 257.692C287.521 257.692 287.917 257.536 288.229 257.224C288.549 256.904 288.709 256.496 288.709 256C288.709 255.504 288.549 255.1 288.229 254.788C287.917 254.468 287.521 254.308 287.041 254.308C286.561 254.308 286.165 254.468 285.853 254.788C285.541 255.1 285.385 255.504 285.385 256C285.385 256.496 285.541 256.904 285.853 257.224ZM296.209 250.6H297.757V259H296.209V258.292C295.753 258.876 295.105 259.168 294.265 259.168C293.457 259.168 292.765 258.864 292.189 258.256C291.621 257.64 291.337 256.888 291.337 256C291.337 255.112 291.621 254.364 292.189 253.756C292.765 253.14 293.457 252.832 294.265 252.832C295.105 252.832 295.753 253.124 296.209 253.708V250.6ZM293.353 257.224C293.673 257.536 294.073 257.692 294.553 257.692C295.033 257.692 295.429 257.536 295.741 257.224C296.053 256.904 296.209 256.496 296.209 256C296.209 255.504 296.053 255.1 295.741 254.788C295.429 254.468 295.033 254.308 294.553 254.308C294.073 254.308 293.673 254.468 293.353 254.788C293.041 255.1 292.885 255.504 292.885 256C292.885 256.496 293.041 256.904 293.353 257.224ZM306.721 250.6H308.269V259H306.721V258.292C306.265 258.876 305.617 259.168 304.777 259.168C303.969 259.168 303.277 258.864 302.701 258.256C302.133 257.64 301.849 256.888 301.849 256C301.849 255.112 302.133 254.364 302.701 253.756C303.277 253.14 303.969 252.832 304.777 252.832C305.617 252.832 306.265 253.124 306.721 253.708V250.6ZM303.865 257.224C304.185 257.536 304.585 257.692 305.065 257.692C305.545 257.692 305.941 257.536 306.253 257.224C306.565 256.904 306.721 256.496 306.721 256C306.721 255.504 306.565 255.1 306.253 254.788C305.941 254.468 305.545 254.308 305.065 254.308C304.585 254.308 304.185 254.468 303.865 254.788C303.553 255.1 303.397 255.504 303.397 256C303.397 256.496 303.553 256.904 303.865 257.224ZM314.797 258.256C314.181 258.864 313.429 259.168 312.541 259.168C311.653 259.168 310.901 258.864 310.285 258.256C309.677 257.64 309.373 256.888 309.373 256C309.373 255.112 309.677 254.364 310.285 253.756C310.901 253.14 311.653 252.832 312.541 252.832C313.429 252.832 314.181 253.14 314.797 253.756C315.413 254.364 315.721 255.112 315.721 256C315.721 256.888 315.413 257.64 314.797 258.256ZM311.377 257.188C311.689 257.5 312.077 257.656 312.541 257.656C313.005 257.656 313.393 257.5 313.705 257.188C314.017 256.876 314.173 256.48 314.173 256C314.173 255.52 314.017 255.124 313.705 254.812C313.393 254.5 313.005 254.344 312.541 254.344C312.077 254.344 311.689 254.5 311.377 254.812C311.073 255.124 310.921 255.52 310.921 256C310.921 256.48 311.073 256.876 311.377 257.188ZM319.666 259.168C318.762 259.168 318.006 258.864 317.398 258.256C316.798 257.648 316.498 256.896 316.498 256C316.498 255.104 316.798 254.352 317.398 253.744C318.006 253.136 318.762 252.832 319.666 252.832C320.25 252.832 320.782 252.972 321.262 253.252C321.742 253.532 322.106 253.908 322.354 254.38L321.022 255.16C320.902 254.912 320.718 254.716 320.47 254.572C320.23 254.428 319.958 254.356 319.654 254.356C319.19 254.356 318.806 254.512 318.502 254.824C318.198 255.128 318.046 255.52 318.046 256C318.046 256.472 318.198 256.864 318.502 257.176C318.806 257.48 319.19 257.632 319.654 257.632C319.966 257.632 320.242 257.564 320.482 257.428C320.73 257.284 320.914 257.088 321.034 256.84L322.378 257.608C322.114 258.08 321.742 258.46 321.262 258.748C320.782 259.028 320.25 259.168 319.666 259.168ZM327.203 253H328.751V259H327.203V258.328C326.827 258.888 326.231 259.168 325.415 259.168C324.759 259.168 324.215 258.948 323.783 258.508C323.359 258.068 323.147 257.46 323.147 256.684V253H324.695V256.492C324.695 256.892 324.803 257.2 325.019 257.416C325.235 257.624 325.523 257.728 325.883 257.728C326.283 257.728 326.603 257.604 326.843 257.356C327.083 257.108 327.203 256.736 327.203 256.24V253ZM336.805 252.832C337.493 252.832 338.041 253.056 338.449 253.504C338.865 253.952 339.073 254.552 339.073 255.304V259H337.525V255.412C337.525 255.052 337.437 254.772 337.261 254.572C337.085 254.372 336.837 254.272 336.517 254.272C336.165 254.272 335.889 254.388 335.689 254.62C335.497 254.852 335.401 255.188 335.401 255.628V259H333.853V255.412C333.853 255.052 333.765 254.772 333.589 254.572C333.413 254.372 333.165 254.272 332.845 254.272C332.501 254.272 332.225 254.388 332.017 254.62C331.817 254.852 331.717 255.188 331.717 255.628V259H330.169V253H331.717V253.636C332.077 253.1 332.633 252.832 333.385 252.832C334.121 252.832 334.665 253.12 335.017 253.696C335.417 253.12 336.013 252.832 336.805 252.832ZM341.696 256.636C341.904 257.388 342.468 257.764 343.388 257.764C343.98 257.764 344.428 257.564 344.732 257.164L345.98 257.884C345.388 258.74 344.516 259.168 343.364 259.168C342.372 259.168 341.576 258.868 340.976 258.268C340.376 257.668 340.076 256.912 340.076 256C340.076 255.096 340.372 254.344 340.964 253.744C341.556 253.136 342.316 252.832 343.244 252.832C344.124 252.832 344.848 253.136 345.416 253.744C345.992 254.352 346.28 255.104 346.28 256C346.28 256.2 346.26 256.412 346.22 256.636H341.696ZM341.672 255.436H344.732C344.644 255.028 344.46 254.724 344.18 254.524C343.908 254.324 343.596 254.224 343.244 254.224C342.828 254.224 342.484 254.332 342.212 254.548C341.94 254.756 341.76 255.052 341.672 255.436ZM350.696 252.832C351.352 252.832 351.892 253.052 352.316 253.492C352.748 253.932 352.964 254.54 352.964 255.316V259H351.416V255.508C351.416 255.108 351.308 254.804 351.092 254.596C350.876 254.38 350.588 254.272 350.228 254.272C349.828 254.272 349.508 254.396 349.268 254.644C349.028 254.892 348.908 255.264 348.908 255.76V259H347.36V253H348.908V253.672C349.284 253.112 349.88 252.832 350.696 252.832ZM357.718 254.488H356.362V256.984C356.362 257.192 356.414 257.344 356.518 257.44C356.622 257.536 356.774 257.592 356.974 257.608C357.174 257.616 357.422 257.612 357.718 257.596V259C356.654 259.12 355.902 259.02 355.462 258.7C355.03 258.38 354.814 257.808 354.814 256.984V254.488H353.77V253H354.814V251.788L356.362 251.32V253H357.718V254.488ZM360.109 254.704C360.109 254.864 360.213 254.996 360.421 255.1C360.637 255.196 360.897 255.284 361.201 255.364C361.505 255.436 361.809 255.532 362.113 255.652C362.417 255.764 362.673 255.956 362.881 256.228C363.097 256.5 363.205 256.84 363.205 257.248C363.205 257.864 362.973 258.34 362.509 258.676C362.053 259.004 361.481 259.168 360.793 259.168C359.561 259.168 358.721 258.692 358.273 257.74L359.617 256.984C359.793 257.504 360.185 257.764 360.793 257.764C361.345 257.764 361.621 257.592 361.621 257.248C361.621 257.088 361.513 256.96 361.297 256.864C361.089 256.76 360.833 256.668 360.529 256.588C360.225 256.508 359.921 256.408 359.617 256.288C359.313 256.168 359.053 255.98 358.837 255.724C358.629 255.46 358.525 255.132 358.525 254.74C358.525 254.148 358.741 253.684 359.173 253.348C359.613 253.004 360.157 252.832 360.805 252.832C361.293 252.832 361.737 252.944 362.137 253.168C362.537 253.384 362.853 253.696 363.085 254.104L361.765 254.824C361.573 254.416 361.253 254.212 360.805 254.212C360.605 254.212 360.437 254.256 360.301 254.344C360.173 254.432 360.109 254.552 360.109 254.704Z" fill="#727271"/>
<rect x="48" y="75" width="64" height="8" rx="4" fill="#EFF1F2"/>
<rect x="48" y="91" width="104" height="8" rx="4" fill="#EFF1F2"/>
<rect x="258" y="167" width="58" height="8" rx="4" fill="#EFF1F2"/>
<rect x="434" y="167" width="58" height="8" rx="4" fill="#EFF1F2"/>
<rect x="258" y="186" width="104" height="8" rx="4" fill="#EFF1F2"/>
<rect x="120" y="75" width="60" height="8" rx="4" fill="#EFF1F2"/>
<rect x="160" y="91" width="98" height="8" rx="4" fill="#EFF1F2"/>
<rect x="326" y="167" width="98" height="8" rx="4" fill="#EFF1F2"/>
<rect x="372" y="186" width="120" height="8" rx="4" fill="#EFF1F2"/>
<rect x="455" y="42" width="81" height="20" rx="4" fill="#DF252A"/>
<rect x="461" y="49" width="6" height="6" rx="3" fill="white"/>
<rect x="470" y="49" width="60" height="6" rx="3" fill="white"/>
<rect x="366" y="42" width="81" height="20" rx="4" fill="#727271"/>
<rect x="372" y="49" width="6" height="6" rx="3" fill="white"/>
<rect x="381" y="49" width="60" height="6" rx="3" fill="white"/>
<rect x="258" y="207" width="81" height="20" rx="4" fill="#2B2A29"/>
<path d="M270.672 216.952V215.328H271.56C272.192 215.328 272.472 215.632 272.472 216.144C272.472 216.64 272.192 216.952 271.56 216.952H270.672ZM273.624 216.144C273.624 215.176 272.952 214.416 271.608 214.416H269.552V220H270.672V217.856H271.608C273.048 217.856 273.624 216.992 273.624 216.144ZM274.131 217.768C274.131 219.152 275.027 220.072 276.147 220.072C276.851 220.072 277.355 219.736 277.619 219.352V220H278.747V215.568H277.619V216.2C277.355 215.832 276.867 215.496 276.155 215.496C275.027 215.496 274.131 216.384 274.131 217.768ZM277.619 217.784C277.619 218.624 277.059 219.088 276.443 219.088C275.843 219.088 275.275 218.608 275.275 217.768C275.275 216.928 275.843 216.48 276.443 216.48C277.059 216.48 277.619 216.944 277.619 217.784ZM281.729 218.664L280.585 215.568H279.329L281.105 219.888L280.145 222.096H281.337L284.081 215.568H282.889L281.729 218.664ZM286.767 218.624C286.767 219.64 287.335 220 288.183 220H288.887V219.056H288.367C288.015 219.056 287.895 218.928 287.895 218.632V216.488H288.887V215.568H287.895V214.472H286.767V215.568H286.239V216.488H286.767V218.624ZM293.877 215.568H292.749V218.008C292.749 218.72 292.365 219.104 291.757 219.104C291.165 219.104 290.773 218.72 290.773 218.008V215.568H289.653V218.168C289.653 219.384 290.397 220.056 291.429 220.056C291.981 220.056 292.469 219.816 292.749 219.44V220H293.877V215.568ZM295.158 218.624C295.158 219.64 295.726 220 296.574 220H297.278V219.056H296.758C296.406 219.056 296.286 218.928 296.286 218.632V216.488H297.278V215.568H296.286V214.472H295.158V215.568H294.63V216.488H295.158V218.624ZM298.083 220H299.203V215.568H298.083V220ZM298.651 215.04C299.043 215.04 299.339 214.752 299.339 214.384C299.339 214.016 299.043 213.728 298.651 213.728C298.251 213.728 297.963 214.016 297.963 214.384C297.963 214.752 298.251 215.04 298.651 215.04ZM304.59 217.784C304.59 216.384 303.59 215.496 302.31 215.496C301.03 215.496 300.03 216.384 300.03 217.784C300.03 219.176 300.998 220.072 302.278 220.072C303.566 220.072 304.59 219.176 304.59 217.784ZM301.166 217.784C301.166 216.896 301.702 216.472 302.294 216.472C302.886 216.472 303.438 216.896 303.438 217.784C303.438 218.664 302.87 219.096 302.278 219.096C301.678 219.096 301.166 218.664 301.166 217.784ZM308.515 220H309.635V217.4C309.635 216.176 308.899 215.504 307.867 215.504C307.299 215.504 306.819 215.744 306.531 216.12V215.568H305.411V220H306.531V217.552C306.531 216.84 306.923 216.456 307.531 216.456C308.123 216.456 308.515 216.84 308.515 217.552V220ZM312.727 220H313.863V216.488H314.639V215.568H313.863V215.384C313.863 214.888 314.047 214.712 314.591 214.728V213.784C313.343 213.752 312.727 214.256 312.727 215.344V215.568H312.223V216.488H312.727V220ZM317.269 216.416C317.845 216.416 318.309 216.784 318.325 217.368H316.221C316.309 216.76 316.733 216.416 317.269 216.416ZM319.373 218.608H318.165C318.021 218.904 317.757 219.144 317.277 219.144C316.717 219.144 316.269 218.776 316.213 218.12H319.453C319.477 217.976 319.485 217.832 319.485 217.688C319.485 216.368 318.581 215.496 317.301 215.496C315.988 215.496 315.076 216.384 315.076 217.784C315.076 219.176 316.013 220.072 317.301 220.072C318.397 220.072 319.133 219.424 319.373 218.608ZM322.206 216.416C322.782 216.416 323.246 216.784 323.262 217.368H321.158C321.246 216.76 321.67 216.416 322.206 216.416ZM324.31 218.608H323.102C322.958 218.904 322.694 219.144 322.214 219.144C321.654 219.144 321.206 218.776 321.15 218.12H324.39C324.414 217.976 324.422 217.832 324.422 217.688C324.422 216.368 323.518 215.496 322.238 215.496C320.926 215.496 320.014 216.384 320.014 217.784C320.014 219.176 320.95 220.072 322.238 220.072C323.334 220.072 324.07 219.424 324.31 218.608ZM328.68 218.736C328.648 217.112 326.192 217.616 326.192 216.808C326.192 216.552 326.408 216.384 326.824 216.384C327.264 216.384 327.536 216.616 327.568 216.96H328.64C328.576 216.08 327.928 215.496 326.856 215.496C325.76 215.496 325.104 216.088 325.104 216.824C325.104 218.448 327.608 217.944 327.608 218.736C327.608 218.992 327.368 219.192 326.928 219.192C326.48 219.192 326.168 218.936 326.128 218.6H325C325.048 219.424 325.824 220.072 326.936 220.072C328.016 220.072 328.68 219.496 328.68 218.736Z" fill="white"/>
<path d="M238 121V362" stroke="#E1E5EE"/>
<path d="M76 153L76 333" stroke="#E1E5EE" stroke-width="2"/>
<path d="M76 153L76 261" stroke="#1BB161" stroke-width="2"/>
<rect x="48.5" y="121.5" width="487" height="240" rx="3.5" stroke="#E1E5EE"/>
<path d="M103.03 156.13C102.357 156.13 101.783 155.977 101.31 155.67C100.843 155.363 100.517 154.943 100.33 154.41L101.32 153.83C101.6 154.617 102.18 155.01 103.06 155.01C103.493 155.01 103.817 154.927 104.03 154.76C104.25 154.587 104.36 154.363 104.36 154.09C104.36 153.803 104.243 153.587 104.01 153.44C103.777 153.287 103.363 153.12 102.77 152.94C102.437 152.84 102.167 152.747 101.96 152.66C101.753 152.573 101.533 152.453 101.3 152.3C101.073 152.14 100.903 151.943 100.79 151.71C100.677 151.477 100.62 151.203 100.62 150.89C100.62 150.27 100.84 149.78 101.28 149.42C101.72 149.053 102.25 148.87 102.87 148.87C103.43 148.87 103.92 149.007 104.34 149.28C104.76 149.553 105.083 149.93 105.31 150.41L104.34 150.97C104.047 150.317 103.557 149.99 102.87 149.99C102.537 149.99 102.27 150.07 102.07 150.23C101.87 150.383 101.77 150.593 101.77 150.86C101.77 151.12 101.87 151.327 102.07 151.48C102.277 151.627 102.647 151.783 103.18 151.95C103.447 152.037 103.64 152.103 103.76 152.15C103.887 152.19 104.06 152.257 104.28 152.35C104.507 152.443 104.677 152.537 104.79 152.63C104.903 152.723 105.023 152.84 105.15 152.98C105.283 153.12 105.377 153.28 105.43 153.46C105.483 153.64 105.51 153.843 105.51 154.07C105.51 154.703 105.28 155.207 104.82 155.58C104.367 155.947 103.77 156.13 103.03 156.13ZM109.811 151H110.891V156H109.811V155.36C109.484 155.873 108.967 156.13 108.261 156.13C107.687 156.13 107.224 155.947 106.871 155.58C106.517 155.213 106.341 154.71 106.341 154.07V151H107.421V153.96C107.421 154.333 107.521 154.62 107.721 154.82C107.921 155.02 108.194 155.12 108.541 155.12C108.921 155.12 109.227 155.003 109.461 154.77C109.694 154.53 109.811 154.167 109.811 153.68V151ZM114.983 150.87C115.67 150.87 116.257 151.123 116.743 151.63C117.23 152.137 117.473 152.76 117.473 153.5C117.473 154.233 117.23 154.857 116.743 155.37C116.257 155.877 115.67 156.13 114.983 156.13C114.223 156.13 113.64 155.847 113.233 155.28V156H112.153V149H113.233V151.71C113.64 151.15 114.223 150.87 114.983 150.87ZM113.683 154.65C113.983 154.95 114.36 155.1 114.813 155.1C115.267 155.1 115.643 154.95 115.943 154.65C116.243 154.343 116.393 153.96 116.393 153.5C116.393 153.04 116.243 152.66 115.943 152.36C115.643 152.053 115.267 151.9 114.813 151.9C114.36 151.9 113.983 152.053 113.683 152.36C113.383 152.66 113.233 153.04 113.233 153.5C113.233 153.96 113.383 154.343 113.683 154.65ZM123.912 150.87C124.479 150.87 124.936 151.053 125.282 151.42C125.629 151.787 125.802 152.28 125.802 152.9V156H124.722V152.97C124.722 152.623 124.636 152.357 124.462 152.17C124.289 151.977 124.052 151.88 123.752 151.88C123.419 151.88 123.152 151.99 122.952 152.21C122.759 152.43 122.662 152.76 122.662 153.2V156H121.582V152.97C121.582 152.623 121.499 152.357 121.332 152.17C121.172 151.977 120.942 151.88 120.642 151.88C120.316 151.88 120.049 151.993 119.842 152.22C119.636 152.44 119.532 152.767 119.532 153.2V156H118.452V151H119.532V151.6C119.852 151.113 120.329 150.87 120.962 150.87C121.602 150.87 122.076 151.133 122.382 151.66C122.716 151.133 123.226 150.87 123.912 150.87ZM127.978 150.05C127.845 150.183 127.685 150.25 127.498 150.25C127.311 150.25 127.148 150.183 127.008 150.05C126.875 149.91 126.808 149.747 126.808 149.56C126.808 149.373 126.875 149.213 127.008 149.08C127.141 148.94 127.305 148.87 127.498 148.87C127.691 148.87 127.855 148.94 127.988 149.08C128.121 149.213 128.188 149.373 128.188 149.56C128.188 149.747 128.118 149.91 127.978 150.05ZM126.958 156V151H128.038V156H126.958ZM132.082 152.04H130.842V154.44C130.842 154.647 130.889 154.797 130.982 154.89C131.075 154.977 131.212 155.027 131.392 155.04C131.579 155.047 131.809 155.043 132.082 155.03V156C131.255 156.1 130.662 156.03 130.302 155.79C129.942 155.543 129.762 155.093 129.762 154.44V152.04H128.842V151H129.762V149.92L130.842 149.6V151H132.082V152.04ZM139.57 151H140.65V156H139.57V155.28C139.164 155.847 138.58 156.13 137.82 156.13C137.134 156.13 136.547 155.877 136.06 155.37C135.574 154.857 135.33 154.233 135.33 153.5C135.33 152.76 135.574 152.137 136.06 151.63C136.547 151.123 137.134 150.87 137.82 150.87C138.58 150.87 139.164 151.15 139.57 151.71V151ZM136.86 154.65C137.16 154.95 137.537 155.1 137.99 155.1C138.444 155.1 138.82 154.95 139.12 154.65C139.42 154.343 139.57 153.96 139.57 153.5C139.57 153.04 139.42 152.66 139.12 152.36C138.82 152.053 138.444 151.9 137.99 151.9C137.537 151.9 137.16 152.053 136.86 152.36C136.56 152.66 136.41 153.04 136.41 153.5C136.41 153.96 136.56 154.343 136.86 154.65ZM144.739 150.87C145.426 150.87 146.013 151.127 146.499 151.64C146.986 152.147 147.229 152.767 147.229 153.5C147.229 154.24 146.986 154.863 146.499 155.37C146.013 155.877 145.426 156.13 144.739 156.13C143.979 156.13 143.396 155.85 142.989 155.29V158H141.909V151H142.989V151.72C143.396 151.153 143.979 150.87 144.739 150.87ZM143.439 154.65C143.739 154.95 144.116 155.1 144.569 155.1C145.023 155.1 145.399 154.95 145.699 154.65C145.999 154.343 146.149 153.96 146.149 153.5C146.149 153.04 145.999 152.66 145.699 152.36C145.399 152.053 145.023 151.9 144.569 151.9C144.116 151.9 143.739 152.053 143.439 152.36C143.139 152.66 142.989 153.04 142.989 153.5C142.989 153.96 143.139 154.343 143.439 154.65ZM151.038 150.87C151.725 150.87 152.311 151.127 152.798 151.64C153.285 152.147 153.528 152.767 153.528 153.5C153.528 154.24 153.285 154.863 152.798 155.37C152.311 155.877 151.725 156.13 151.038 156.13C150.278 156.13 149.695 155.85 149.288 155.29V158H148.208V151H149.288V151.72C149.695 151.153 150.278 150.87 151.038 150.87ZM149.738 154.65C150.038 154.95 150.415 155.1 150.868 155.1C151.321 155.1 151.698 154.95 151.998 154.65C152.298 154.343 152.448 153.96 152.448 153.5C152.448 153.04 152.298 152.66 151.998 152.36C151.698 152.053 151.321 151.9 150.868 151.9C150.415 151.9 150.038 152.053 149.738 152.36C149.438 152.66 149.288 153.04 149.288 153.5C149.288 153.96 149.438 154.343 149.738 154.65ZM154.507 156V148.7H155.587V156H154.507ZM157.861 150.05C157.728 150.183 157.568 150.25 157.381 150.25C157.194 150.25 157.031 150.183 156.891 150.05C156.758 149.91 156.691 149.747 156.691 149.56C156.691 149.373 156.758 149.213 156.891 149.08C157.024 148.94 157.188 148.87 157.381 148.87C157.574 148.87 157.738 148.94 157.871 149.08C158.004 149.213 158.071 149.373 158.071 149.56C158.071 149.747 158.001 149.91 157.861 150.05ZM156.841 156V151H157.921V156H156.841ZM161.535 156.13C160.782 156.13 160.152 155.877 159.645 155.37C159.145 154.863 158.895 154.24 158.895 153.5C158.895 152.753 159.145 152.13 159.645 151.63C160.152 151.123 160.782 150.87 161.535 150.87C162.022 150.87 162.465 150.987 162.865 151.22C163.265 151.453 163.565 151.767 163.765 152.16L162.835 152.7C162.722 152.46 162.548 152.273 162.315 152.14C162.088 152 161.825 151.93 161.525 151.93C161.085 151.93 160.715 152.08 160.415 152.38C160.122 152.68 159.975 153.053 159.975 153.5C159.975 153.947 160.122 154.32 160.415 154.62C160.715 154.92 161.085 155.07 161.525 155.07C161.818 155.07 162.082 155 162.315 154.86C162.555 154.72 162.735 154.533 162.855 154.3L163.785 154.83C163.572 155.23 163.265 155.547 162.865 155.78C162.465 156.013 162.022 156.13 161.535 156.13ZM168.447 151H169.527V156H168.447V155.28C168.041 155.847 167.457 156.13 166.697 156.13C166.011 156.13 165.424 155.877 164.937 155.37C164.451 154.857 164.207 154.233 164.207 153.5C164.207 152.76 164.451 152.137 164.937 151.63C165.424 151.123 166.011 150.87 166.697 150.87C167.457 150.87 168.041 151.15 168.447 151.71V151ZM165.737 154.65C166.037 154.95 166.414 155.1 166.867 155.1C167.321 155.1 167.697 154.95 167.997 154.65C168.297 154.343 168.447 153.96 168.447 153.5C168.447 153.04 168.297 152.66 167.997 152.36C167.697 152.053 167.321 151.9 166.867 151.9C166.414 151.9 166.037 152.053 165.737 152.36C165.437 152.66 165.287 153.04 165.287 153.5C165.287 153.96 165.437 154.343 165.737 154.65ZM173.576 152.04H172.336V154.44C172.336 154.647 172.383 154.797 172.476 154.89C172.57 154.977 172.706 155.027 172.886 155.04C173.073 155.047 173.303 155.043 173.576 155.03V156C172.75 156.1 172.156 156.03 171.796 155.79C171.436 155.543 171.256 155.093 171.256 154.44V152.04H170.336V151H171.256V149.92L172.336 149.6V151H173.576V152.04ZM175.576 150.05C175.442 150.183 175.282 150.25 175.096 150.25C174.909 150.25 174.746 150.183 174.606 150.05C174.472 149.91 174.406 149.747 174.406 149.56C174.406 149.373 174.472 149.213 174.606 149.08C174.739 148.94 174.902 148.87 175.096 148.87C175.289 148.87 175.452 148.94 175.586 149.08C175.719 149.213 175.786 149.373 175.786 149.56C175.786 149.747 175.716 149.91 175.576 150.05ZM174.556 156V151H175.636V156H174.556ZM179.25 156.13C178.516 156.13 177.893 155.877 177.38 155.37C176.866 154.863 176.61 154.24 176.61 153.5C176.61 152.76 176.866 152.137 177.38 151.63C177.893 151.123 178.516 150.87 179.25 150.87C179.99 150.87 180.613 151.123 181.12 151.63C181.633 152.137 181.89 152.76 181.89 153.5C181.89 154.24 181.633 154.863 181.12 155.37C180.613 155.877 179.99 156.13 179.25 156.13ZM178.14 154.63C178.44 154.93 178.81 155.08 179.25 155.08C179.69 155.08 180.06 154.93 180.36 154.63C180.66 154.33 180.81 153.953 180.81 153.5C180.81 153.047 180.66 152.67 180.36 152.37C180.06 152.07 179.69 151.92 179.25 151.92C178.81 151.92 178.44 152.07 178.14 152.37C177.84 152.67 177.69 153.047 177.69 153.5C177.69 153.953 177.84 154.33 178.14 154.63ZM185.496 150.87C186.07 150.87 186.533 151.053 186.886 151.42C187.24 151.787 187.416 152.29 187.416 152.93V156H186.336V153.04C186.336 152.667 186.236 152.38 186.036 152.18C185.836 151.98 185.563 151.88 185.216 151.88C184.836 151.88 184.53 152 184.296 152.24C184.063 152.473 183.946 152.833 183.946 153.32V156H182.866V151H183.946V151.64C184.273 151.127 184.79 150.87 185.496 150.87Z" fill="#98A0AC"/>
<circle cx="76" cy="153" r="6" fill="#1BB161" stroke="#1BB161" stroke-opacity="0.15" stroke-width="2" stroke-linecap="round" stroke-linejoin="round"/>
<path d="M78.5 151.438L75.0625 154.875L73.5 153.312" stroke="white" stroke-linecap="square" stroke-linejoin="round"/>
<circle cx="76" cy="189" r="6" fill="#1BB161" stroke="#1BB161" stroke-opacity="0.15" stroke-width="2" stroke-linecap="round" stroke-linejoin="round"/>
<path d="M78.5 187.438L75.0625 190.875L73.5 189.312" stroke="white" stroke-linecap="square" stroke-linejoin="round"/>
<circle cx="76" cy="225" r="6" fill="#1BB161" stroke="#1BB161" stroke-opacity="0.15" stroke-width="2" stroke-linecap="round" stroke-linejoin="round"/>
<path d="M78.5 223.438L75.0625 226.875L73.5 225.312" stroke="white" stroke-linecap="square" stroke-linejoin="round"/>
<path d="M105.19 191.47C104.697 191.91 104.06 192.13 103.28 192.13C102.5 192.13 101.863 191.91 101.37 191.47C100.877 191.023 100.63 190.427 100.63 189.68V185H101.78V189.61C101.78 190.037 101.903 190.377 102.15 190.63C102.403 190.883 102.78 191.01 103.28 191.01C103.78 191.01 104.153 190.883 104.4 190.63C104.653 190.377 104.78 190.037 104.78 189.61V185H105.93V189.68C105.93 190.427 105.683 191.023 105.19 191.47ZM110.013 186.87C110.699 186.87 111.286 187.127 111.773 187.64C112.259 188.147 112.503 188.767 112.503 189.5C112.503 190.24 112.259 190.863 111.773 191.37C111.286 191.877 110.699 192.13 110.013 192.13C109.253 192.13 108.669 191.85 108.263 191.29V194H107.183V187H108.263V187.72C108.669 187.153 109.253 186.87 110.013 186.87ZM108.713 190.65C109.013 190.95 109.389 191.1 109.843 191.1C110.296 191.1 110.673 190.95 110.973 190.65C111.273 190.343 111.423 189.96 111.423 189.5C111.423 189.04 111.273 188.66 110.973 188.36C110.673 188.053 110.296 187.9 109.843 187.9C109.389 187.9 109.013 188.053 108.713 188.36C108.413 188.66 108.263 189.04 108.263 189.5C108.263 189.96 108.413 190.343 108.713 190.65ZM113.482 192V184.7H114.562V192H113.482ZM118.176 192.13C117.442 192.13 116.819 191.877 116.306 191.37C115.792 190.863 115.536 190.24 115.536 189.5C115.536 188.76 115.792 188.137 116.306 187.63C116.819 187.123 117.442 186.87 118.176 186.87C118.916 186.87 119.539 187.123 120.046 187.63C120.559 188.137 120.816 188.76 120.816 189.5C120.816 190.24 120.559 190.863 120.046 191.37C119.539 191.877 118.916 192.13 118.176 192.13ZM117.066 190.63C117.366 190.93 117.736 191.08 118.176 191.08C118.616 191.08 118.986 190.93 119.286 190.63C119.586 190.33 119.736 189.953 119.736 189.5C119.736 189.047 119.586 188.67 119.286 188.37C118.986 188.07 118.616 187.92 118.176 187.92C117.736 187.92 117.366 188.07 117.066 188.37C116.766 188.67 116.616 189.047 116.616 189.5C116.616 189.953 116.766 190.33 117.066 190.63ZM125.752 187H126.832V192H125.752V191.28C125.345 191.847 124.762 192.13 124.002 192.13C123.315 192.13 122.729 191.877 122.242 191.37C121.755 190.857 121.512 190.233 121.512 189.5C121.512 188.76 121.755 188.137 122.242 187.63C122.729 187.123 123.315 186.87 124.002 186.87C124.762 186.87 125.345 187.15 125.752 187.71V187ZM123.042 190.65C123.342 190.95 123.719 191.1 124.172 191.1C124.625 191.1 125.002 190.95 125.302 190.65C125.602 190.343 125.752 189.96 125.752 189.5C125.752 189.04 125.602 188.66 125.302 188.36C125.002 188.053 124.625 187.9 124.172 187.9C123.719 187.9 123.342 188.053 123.042 188.36C122.742 188.66 122.592 189.04 122.592 189.5C122.592 189.96 122.742 190.343 123.042 190.65ZM132.051 185H133.131V192H132.051V191.28C131.644 191.847 131.061 192.13 130.301 192.13C129.614 192.13 129.028 191.877 128.541 191.37C128.054 190.857 127.811 190.233 127.811 189.5C127.811 188.76 128.054 188.137 128.541 187.63C129.028 187.123 129.614 186.87 130.301 186.87C131.061 186.87 131.644 187.15 132.051 187.71V185ZM129.341 190.65C129.641 190.95 130.018 191.1 130.471 191.1C130.924 191.1 131.301 190.95 131.601 190.65C131.901 190.343 132.051 189.96 132.051 189.5C132.051 189.04 131.901 188.66 131.601 188.36C131.301 188.053 130.924 187.9 130.471 187.9C130.018 187.9 129.641 188.053 129.341 188.36C129.041 188.66 128.891 189.04 128.891 189.5C128.891 189.96 129.041 190.343 129.341 190.65ZM140.85 187H141.93V192H140.85V191.28C140.443 191.847 139.86 192.13 139.1 192.13C138.413 192.13 137.826 191.877 137.34 191.37C136.853 190.857 136.61 190.233 136.61 189.5C136.61 188.76 136.853 188.137 137.34 187.63C137.826 187.123 138.413 186.87 139.1 186.87C139.86 186.87 140.443 187.15 140.85 187.71V187ZM138.14 190.65C138.44 190.95 138.816 191.1 139.27 191.1C139.723 191.1 140.1 190.95 140.4 190.65C140.7 190.343 140.85 189.96 140.85 189.5C140.85 189.04 140.7 188.66 140.4 188.36C140.1 188.053 139.723 187.9 139.27 187.9C138.816 187.9 138.44 188.053 138.14 188.36C137.84 188.66 137.69 189.04 137.69 189.5C137.69 189.96 137.84 190.343 138.14 190.65ZM147.149 185H148.229V192H147.149V191.28C146.742 191.847 146.159 192.13 145.399 192.13C144.712 192.13 144.125 191.877 143.639 191.37C143.152 190.857 142.909 190.233 142.909 189.5C142.909 188.76 143.152 188.137 143.639 187.63C144.125 187.123 144.712 186.87 145.399 186.87C146.159 186.87 146.742 187.15 147.149 187.71V185ZM144.439 190.65C144.739 190.95 145.115 191.1 145.569 191.1C146.022 191.1 146.399 190.95 146.699 190.65C146.999 190.343 147.149 189.96 147.149 189.5C147.149 189.04 146.999 188.66 146.699 188.36C146.399 188.053 146.022 187.9 145.569 187.9C145.115 187.9 144.739 188.053 144.439 188.36C144.139 188.66 143.989 189.04 143.989 189.5C143.989 189.96 144.139 190.343 144.439 190.65ZM153.447 185H154.527V192H153.447V191.28C153.041 191.847 152.457 192.13 151.697 192.13C151.011 192.13 150.424 191.877 149.937 191.37C149.451 190.857 149.207 190.233 149.207 189.5C149.207 188.76 149.451 188.137 149.937 187.63C150.424 187.123 151.011 186.87 151.697 186.87C152.457 186.87 153.041 187.15 153.447 187.71V185ZM150.737 190.65C151.037 190.95 151.414 191.1 151.867 191.1C152.321 191.1 152.697 190.95 152.997 190.65C153.297 190.343 153.447 189.96 153.447 189.5C153.447 189.04 153.297 188.66 152.997 188.36C152.697 188.053 152.321 187.9 151.867 187.9C151.414 187.9 151.037 188.053 150.737 188.36C150.437 188.66 150.287 189.04 150.287 189.5C150.287 189.96 150.437 190.343 150.737 190.65ZM156.806 186.05C156.673 186.183 156.513 186.25 156.326 186.25C156.14 186.25 155.976 186.183 155.836 186.05C155.703 185.91 155.636 185.747 155.636 185.56C155.636 185.373 155.703 185.213 155.836 185.08C155.97 184.94 156.133 184.87 156.326 184.87C156.52 184.87 156.683 184.94 156.816 185.08C156.95 185.213 157.016 185.373 157.016 185.56C157.016 185.747 156.946 185.91 156.806 186.05ZM155.786 192V187H156.866V192H155.786ZM160.91 188.04H159.67V190.44C159.67 190.647 159.717 190.797 159.81 190.89C159.904 190.977 160.04 191.027 160.22 191.04C160.407 191.047 160.637 191.043 160.91 191.03V192C160.084 192.1 159.49 192.03 159.13 191.79C158.77 191.543 158.59 191.093 158.59 190.44V188.04H157.67V187H158.59V185.92L159.67 185.6V187H160.91V188.04ZM162.91 186.05C162.776 186.183 162.616 186.25 162.43 186.25C162.243 186.25 162.08 186.183 161.94 186.05C161.806 185.91 161.74 185.747 161.74 185.56C161.74 185.373 161.806 185.213 161.94 185.08C162.073 184.94 162.236 184.87 162.43 184.87C162.623 184.87 162.786 184.94 162.92 185.08C163.053 185.213 163.12 185.373 163.12 185.56C163.12 185.747 163.05 185.91 162.91 186.05ZM161.89 192V187H162.97V192H161.89ZM166.584 192.13C165.85 192.13 165.227 191.877 164.714 191.37C164.2 190.863 163.944 190.24 163.944 189.5C163.944 188.76 164.2 188.137 164.714 187.63C165.227 187.123 165.85 186.87 166.584 186.87C167.324 186.87 167.947 187.123 168.454 187.63C168.967 188.137 169.224 188.76 169.224 189.5C169.224 190.24 168.967 190.863 168.454 191.37C167.947 191.877 167.324 192.13 166.584 192.13ZM165.474 190.63C165.774 190.93 166.144 191.08 166.584 191.08C167.024 191.08 167.394 190.93 167.694 190.63C167.994 190.33 168.144 189.953 168.144 189.5C168.144 189.047 167.994 188.67 167.694 188.37C167.394 188.07 167.024 187.92 166.584 187.92C166.144 187.92 165.774 188.07 165.474 188.37C165.174 188.67 165.024 189.047 165.024 189.5C165.024 189.953 165.174 190.33 165.474 190.63ZM172.83 186.87C173.404 186.87 173.867 187.053 174.22 187.42C174.574 187.787 174.75 188.29 174.75 188.93V192H173.67V189.04C173.67 188.667 173.57 188.38 173.37 188.18C173.17 187.98 172.897 187.88 172.55 187.88C172.17 187.88 171.864 188 171.63 188.24C171.397 188.473 171.28 188.833 171.28 189.32V192H170.2V187H171.28V187.64C171.607 187.127 172.124 186.87 172.83 186.87ZM179.873 187H180.953V192H179.873V191.28C179.467 191.847 178.883 192.13 178.123 192.13C177.437 192.13 176.85 191.877 176.363 191.37C175.877 190.857 175.633 190.233 175.633 189.5C175.633 188.76 175.877 188.137 176.363 187.63C176.85 187.123 177.437 186.87 178.123 186.87C178.883 186.87 179.467 187.15 179.873 187.71V187ZM177.163 190.65C177.463 190.95 177.84 191.1 178.293 191.1C178.747 191.1 179.123 190.95 179.423 190.65C179.723 190.343 179.873 189.96 179.873 189.5C179.873 189.04 179.723 188.66 179.423 188.36C179.123 188.053 178.747 187.9 178.293 187.9C177.84 187.9 177.463 188.053 177.163 188.36C176.863 188.66 176.713 189.04 176.713 189.5C176.713 189.96 176.863 190.343 177.163 190.65ZM182.212 192V184.7H183.292V192H182.212ZM191.006 185H192.086V192H191.006V191.28C190.599 191.847 190.016 192.13 189.256 192.13C188.569 192.13 187.983 191.877 187.496 191.37C187.009 190.857 186.766 190.233 186.766 189.5C186.766 188.76 187.009 188.137 187.496 187.63C187.983 187.123 188.569 186.87 189.256 186.87C190.016 186.87 190.599 187.15 191.006 187.71V185ZM188.296 190.65C188.596 190.95 188.973 191.1 189.426 191.1C189.879 191.1 190.256 190.95 190.556 190.65C190.856 190.343 191.006 189.96 191.006 189.5C191.006 189.04 190.856 188.66 190.556 188.36C190.256 188.053 189.879 187.9 189.426 187.9C188.973 187.9 188.596 188.053 188.296 188.36C187.996 188.66 187.846 189.04 187.846 189.5C187.846 189.96 187.996 190.343 188.296 190.65ZM195.705 192.13C194.972 192.13 194.348 191.877 193.835 191.37C193.322 190.863 193.065 190.24 193.065 189.5C193.065 188.76 193.322 188.137 193.835 187.63C194.348 187.123 194.972 186.87 195.705 186.87C196.445 186.87 197.068 187.123 197.575 187.63C198.088 188.137 198.345 188.76 198.345 189.5C198.345 190.24 198.088 190.863 197.575 191.37C197.068 191.877 196.445 192.13 195.705 192.13ZM194.595 190.63C194.895 190.93 195.265 191.08 195.705 191.08C196.145 191.08 196.515 190.93 196.815 190.63C197.115 190.33 197.265 189.953 197.265 189.5C197.265 189.047 197.115 188.67 196.815 188.37C196.515 188.07 196.145 187.92 195.705 187.92C195.265 187.92 194.895 188.07 194.595 188.37C194.295 188.67 194.145 189.047 194.145 189.5C194.145 189.953 194.295 190.33 194.595 190.63ZM201.681 192.13C200.928 192.13 200.298 191.877 199.791 191.37C199.291 190.863 199.041 190.24 199.041 189.5C199.041 188.753 199.291 188.13 199.791 187.63C200.298 187.123 200.928 186.87 201.681 186.87C202.168 186.87 202.611 186.987 203.011 187.22C203.411 187.453 203.711 187.767 203.911 188.16L202.981 188.7C202.868 188.46 202.695 188.273 202.461 188.14C202.235 188 201.971 187.93 201.671 187.93C201.231 187.93 200.861 188.08 200.561 188.38C200.268 188.68 200.121 189.053 200.121 189.5C200.121 189.947 200.268 190.32 200.561 190.62C200.861 190.92 201.231 191.07 201.671 191.07C201.965 191.07 202.228 191 202.461 190.86C202.701 190.72 202.881 190.533 203.001 190.3L203.931 190.83C203.718 191.23 203.411 191.547 203.011 191.78C202.611 192.013 202.168 192.13 201.681 192.13ZM205.653 188.38C205.653 188.547 205.743 188.68 205.923 188.78C206.109 188.873 206.333 188.957 206.593 189.03C206.859 189.097 207.126 189.177 207.393 189.27C207.659 189.363 207.883 189.523 208.063 189.75C208.249 189.97 208.343 190.25 208.343 190.59C208.343 191.07 208.156 191.447 207.783 191.72C207.416 191.993 206.953 192.13 206.393 192.13C205.899 192.13 205.476 192.027 205.123 191.82C204.769 191.613 204.513 191.327 204.353 190.96L205.283 190.42C205.456 190.9 205.826 191.14 206.393 191.14C206.959 191.14 207.243 190.953 207.243 190.58C207.243 190.42 207.149 190.29 206.963 190.19C206.783 190.09 206.559 190.007 206.293 189.94C206.033 189.867 205.769 189.783 205.503 189.69C205.236 189.597 205.009 189.443 204.823 189.23C204.643 189.01 204.553 188.733 204.553 188.4C204.553 187.94 204.726 187.57 205.073 187.29C205.426 187.01 205.863 186.87 206.383 186.87C206.796 186.87 207.163 186.963 207.483 187.15C207.809 187.33 208.059 187.583 208.233 187.91L207.323 188.42C207.149 188.04 206.836 187.85 206.383 187.85C206.176 187.85 206.003 187.897 205.863 187.99C205.723 188.077 205.653 188.207 205.653 188.38Z" fill="#98A0AC"/>
<path d="M105.69 228L104.21 225.45H102.85V228H101.7V221H104.5C105.127 221 105.657 221.22 106.09 221.66C106.53 222.093 106.75 222.623 106.75 223.25C106.75 223.697 106.62 224.107 106.36 224.48C106.107 224.847 105.773 225.113 105.36 225.28L106.95 228H105.69ZM102.85 222.08V224.42H104.5C104.807 224.42 105.067 224.307 105.28 224.08C105.493 223.853 105.6 223.577 105.6 223.25C105.6 222.923 105.493 222.647 105.28 222.42C105.067 222.193 104.807 222.08 104.5 222.08H102.85ZM108.349 225.96C108.429 226.34 108.612 226.633 108.899 226.84C109.186 227.04 109.536 227.14 109.949 227.14C110.522 227.14 110.952 226.933 111.239 226.52L112.129 227.04C111.636 227.767 110.906 228.13 109.939 228.13C109.126 228.13 108.469 227.883 107.969 227.39C107.469 226.89 107.219 226.26 107.219 225.5C107.219 224.753 107.466 224.13 107.959 223.63C108.452 223.123 109.086 222.87 109.859 222.87C110.592 222.87 111.192 223.127 111.659 223.64C112.132 224.153 112.369 224.777 112.369 225.51C112.369 225.623 112.356 225.773 112.329 225.96H108.349ZM108.339 225.08H111.279C111.206 224.673 111.036 224.367 110.769 224.16C110.509 223.953 110.202 223.85 109.849 223.85C109.449 223.85 109.116 223.96 108.849 224.18C108.582 224.4 108.412 224.7 108.339 225.08ZM115.65 228.13C114.897 228.13 114.267 227.877 113.76 227.37C113.26 226.863 113.01 226.24 113.01 225.5C113.01 224.753 113.26 224.13 113.76 223.63C114.267 223.123 114.897 222.87 115.65 222.87C116.137 222.87 116.58 222.987 116.98 223.22C117.38 223.453 117.68 223.767 117.88 224.16L116.95 224.7C116.837 224.46 116.663 224.273 116.43 224.14C116.203 224 115.94 223.93 115.64 223.93C115.2 223.93 114.83 224.08 114.53 224.38C114.237 224.68 114.09 225.053 114.09 225.5C114.09 225.947 114.237 226.32 114.53 226.62C114.83 226.92 115.2 227.07 115.64 227.07C115.933 227.07 116.197 227 116.43 226.86C116.67 226.72 116.85 226.533 116.97 226.3L117.9 226.83C117.687 227.23 117.38 227.547 116.98 227.78C116.58 228.013 116.137 228.13 115.65 228.13ZM119.453 225.96C119.533 226.34 119.716 226.633 120.003 226.84C120.289 227.04 120.639 227.14 121.053 227.14C121.626 227.14 122.056 226.933 122.343 226.52L123.233 227.04C122.739 227.767 122.009 228.13 121.043 228.13C120.229 228.13 119.573 227.883 119.073 227.39C118.573 226.89 118.323 226.26 118.323 225.5C118.323 224.753 118.569 224.13 119.063 223.63C119.556 223.123 120.189 222.87 120.963 222.87C121.696 222.87 122.296 223.127 122.763 223.64C123.236 224.153 123.473 224.777 123.473 225.51C123.473 225.623 123.459 225.773 123.433 225.96H119.453ZM119.443 225.08H122.383C122.309 224.673 122.139 224.367 121.873 224.16C121.613 223.953 121.306 223.85 120.953 223.85C120.553 223.85 120.219 223.96 119.953 224.18C119.686 224.4 119.516 224.7 119.443 225.08ZM125.443 222.05C125.31 222.183 125.15 222.25 124.963 222.25C124.776 222.25 124.613 222.183 124.473 222.05C124.34 221.91 124.273 221.747 124.273 221.56C124.273 221.373 124.34 221.213 124.473 221.08C124.606 220.94 124.77 220.87 124.963 220.87C125.156 220.87 125.32 220.94 125.453 221.08C125.586 221.213 125.653 221.373 125.653 221.56C125.653 221.747 125.583 221.91 125.443 222.05ZM124.423 228V223H125.503V228H124.423ZM130.147 223H131.327L129.377 228H128.127L126.177 223H127.357L128.757 226.8L130.147 223ZM132.666 225.96C132.746 226.34 132.929 226.633 133.216 226.84C133.502 227.04 133.852 227.14 134.266 227.14C134.839 227.14 135.269 226.933 135.556 226.52L136.446 227.04C135.952 227.767 135.222 228.13 134.256 228.13C133.442 228.13 132.786 227.883 132.286 227.39C131.786 226.89 131.536 226.26 131.536 225.5C131.536 224.753 131.782 224.13 132.276 223.63C132.769 223.123 133.402 222.87 134.176 222.87C134.909 222.87 135.509 223.127 135.976 223.64C136.449 224.153 136.686 224.777 136.686 225.51C136.686 225.623 136.672 225.773 136.646 225.96H132.666ZM132.656 225.08H135.596C135.522 224.673 135.352 224.367 135.086 224.16C134.826 223.953 134.519 223.85 134.166 223.85C133.766 223.85 133.432 223.96 133.166 224.18C132.899 224.4 132.729 224.7 132.656 225.08ZM142.496 228.13C141.763 228.13 141.139 227.877 140.626 227.37C140.113 226.863 139.856 226.24 139.856 225.5C139.856 224.76 140.113 224.137 140.626 223.63C141.139 223.123 141.763 222.87 142.496 222.87C143.236 222.87 143.859 223.123 144.366 223.63C144.879 224.137 145.136 224.76 145.136 225.5C145.136 226.24 144.879 226.863 144.366 227.37C143.859 227.877 143.236 228.13 142.496 228.13ZM141.386 226.63C141.686 226.93 142.056 227.08 142.496 227.08C142.936 227.08 143.306 226.93 143.606 226.63C143.906 226.33 144.056 225.953 144.056 225.5C144.056 225.047 143.906 224.67 143.606 224.37C143.306 224.07 142.936 223.92 142.496 223.92C142.056 223.92 141.686 224.07 141.386 224.37C141.086 224.67 140.936 225.047 140.936 225.5C140.936 225.953 141.086 226.33 141.386 226.63ZM151.307 221.81C150.52 221.737 150.127 222.067 150.127 222.8V223H151.307V224.04H150.127V228H149.047V224.04H147.377V228H146.297V224.04H145.537V223H146.297V222.9C146.297 222.213 146.487 221.693 146.867 221.34C147.253 220.98 147.817 220.823 148.557 220.87V221.91C147.77 221.837 147.377 222.167 147.377 222.9V223H149.047V222.8C149.047 222.113 149.237 221.593 149.617 221.24C150.003 220.88 150.567 220.723 151.307 220.77V221.81ZM152.548 225.96C152.628 226.34 152.812 226.633 153.098 226.84C153.385 227.04 153.735 227.14 154.148 227.14C154.722 227.14 155.152 226.933 155.438 226.52L156.328 227.04C155.835 227.767 155.105 228.13 154.138 228.13C153.325 228.13 152.668 227.883 152.168 227.39C151.668 226.89 151.418 226.26 151.418 225.5C151.418 224.753 151.665 224.13 152.158 223.63C152.652 223.123 153.285 222.87 154.058 222.87C154.792 222.87 155.392 223.127 155.858 223.64C156.332 224.153 156.568 224.777 156.568 225.51C156.568 225.623 156.555 225.773 156.528 225.96H152.548ZM152.538 225.08H155.478C155.405 224.673 155.235 224.367 154.968 224.16C154.708 223.953 154.402 223.85 154.048 223.85C153.648 223.85 153.315 223.96 153.048 224.18C152.782 224.4 152.612 224.7 152.538 225.08ZM158.599 223.84C158.872 223.22 159.385 222.91 160.139 222.91V224.08C159.725 224.053 159.365 224.153 159.059 224.38C158.752 224.6 158.599 224.967 158.599 225.48V228H157.519V223H158.599V223.84Z" fill="#98A0AC"/>
<path d="M105.8 258.1H102.85V260.06H105.7V261.16H102.85V264H101.7V257H105.8V258.1ZM107.826 258.05C107.692 258.183 107.532 258.25 107.346 258.25C107.159 258.25 106.996 258.183 106.856 258.05C106.722 257.91 106.656 257.747 106.656 257.56C106.656 257.373 106.722 257.213 106.856 257.08C106.989 256.94 107.152 256.87 107.346 256.87C107.539 256.87 107.702 256.94 107.836 257.08C107.969 257.213 108.036 257.373 108.036 257.56C108.036 257.747 107.966 257.91 107.826 258.05ZM106.806 264V259H107.886V264H106.806ZM111.77 258.87C112.343 258.87 112.806 259.053 113.16 259.42C113.513 259.787 113.69 260.29 113.69 260.93V264H112.61V261.04C112.61 260.667 112.51 260.38 112.31 260.18C112.11 259.98 111.836 259.88 111.49 259.88C111.11 259.88 110.803 260 110.57 260.24C110.336 260.473 110.22 260.833 110.22 261.32V264H109.14V259H110.22V259.64C110.546 259.127 111.063 258.87 111.77 258.87ZM118.813 259H119.893V264H118.813V263.28C118.406 263.847 117.823 264.13 117.063 264.13C116.376 264.13 115.789 263.877 115.303 263.37C114.816 262.857 114.573 262.233 114.573 261.5C114.573 260.76 114.816 260.137 115.303 259.63C115.789 259.123 116.376 258.87 117.063 258.87C117.823 258.87 118.406 259.15 118.813 259.71V259ZM116.103 262.65C116.403 262.95 116.779 263.1 117.233 263.1C117.686 263.1 118.063 262.95 118.363 262.65C118.663 262.343 118.813 261.96 118.813 261.5C118.813 261.04 118.663 260.66 118.363 260.36C118.063 260.053 117.686 259.9 117.233 259.9C116.779 259.9 116.403 260.053 116.103 260.36C115.803 260.66 115.653 261.04 115.653 261.5C115.653 261.96 115.803 262.343 116.103 262.65ZM121.151 264V256.7H122.231V264H121.151ZM124.505 258.05C124.372 258.183 124.212 258.25 124.025 258.25C123.839 258.25 123.675 258.183 123.535 258.05C123.402 257.91 123.335 257.747 123.335 257.56C123.335 257.373 123.402 257.213 123.535 257.08C123.669 256.94 123.832 256.87 124.025 256.87C124.219 256.87 124.382 256.94 124.515 257.08C124.649 257.213 124.715 257.373 124.715 257.56C124.715 257.747 124.645 257.91 124.505 258.05ZM123.485 264V259H124.565V264H123.485ZM127.109 262.98H129.539V264H125.639V263.28L127.979 260.02H125.739V259H129.439V259.72L127.109 262.98ZM131.093 261.96C131.173 262.34 131.357 262.633 131.643 262.84C131.93 263.04 132.28 263.14 132.693 263.14C133.267 263.14 133.697 262.933 133.983 262.52L134.873 263.04C134.38 263.767 133.65 264.13 132.683 264.13C131.87 264.13 131.213 263.883 130.713 263.39C130.213 262.89 129.963 262.26 129.963 261.5C129.963 260.753 130.21 260.13 130.703 259.63C131.197 259.123 131.83 258.87 132.603 258.87C133.337 258.87 133.937 259.127 134.403 259.64C134.877 260.153 135.113 260.777 135.113 261.51C135.113 261.623 135.1 261.773 135.073 261.96H131.093ZM131.083 261.08H134.023C133.95 260.673 133.78 260.367 133.513 260.16C133.253 259.953 132.947 259.85 132.593 259.85C132.193 259.85 131.86 259.96 131.593 260.18C131.327 260.4 131.157 260.7 131.083 261.08ZM144.484 263.08C143.784 263.78 142.927 264.13 141.914 264.13C140.9 264.13 140.04 263.78 139.334 263.08C138.634 262.373 138.284 261.513 138.284 260.5C138.284 259.487 138.634 258.63 139.334 257.93C140.04 257.223 140.9 256.87 141.914 256.87C142.927 256.87 143.784 257.223 144.484 257.93C145.19 258.63 145.544 259.487 145.544 260.5C145.544 261.513 145.19 262.373 144.484 263.08ZM140.144 262.3C140.624 262.773 141.214 263.01 141.914 263.01C142.614 263.01 143.2 262.773 143.674 262.3C144.154 261.82 144.394 261.22 144.394 260.5C144.394 259.78 144.154 259.183 143.674 258.71C143.2 258.23 142.614 257.99 141.914 257.99C141.214 257.99 140.624 258.23 140.144 258.71C139.67 259.183 139.434 259.78 139.434 260.5C139.434 261.22 139.67 261.82 140.144 262.3ZM151.893 257.81C151.106 257.737 150.713 258.067 150.713 258.8V259H151.893V260.04H150.713V264H149.633V260.04H147.963V264H146.883V260.04H146.123V259H146.883V258.9C146.883 258.213 147.073 257.693 147.453 257.34C147.839 256.98 148.403 256.823 149.143 256.87V257.91C148.356 257.837 147.963 258.167 147.963 258.9V259H149.633V258.8C149.633 258.113 149.823 257.593 150.203 257.24C150.589 256.88 151.153 256.723 151.893 256.77V257.81ZM153.134 261.96C153.214 262.34 153.398 262.633 153.684 262.84C153.971 263.04 154.321 263.14 154.734 263.14C155.308 263.14 155.738 262.933 156.024 262.52L156.914 263.04C156.421 263.767 155.691 264.13 154.724 264.13C153.911 264.13 153.254 263.883 152.754 263.39C152.254 262.89 152.004 262.26 152.004 261.5C152.004 260.753 152.251 260.13 152.744 259.63C153.238 259.123 153.871 258.87 154.644 258.87C155.378 258.87 155.978 259.127 156.444 259.64C156.918 260.153 157.154 260.777 157.154 261.51C157.154 261.623 157.141 261.773 157.114 261.96H153.134ZM153.124 261.08H156.064C155.991 260.673 155.821 260.367 155.554 260.16C155.294 259.953 154.988 259.85 154.634 259.85C154.234 259.85 153.901 259.96 153.634 260.18C153.368 260.4 153.198 260.7 153.124 261.08ZM159.185 259.84C159.458 259.22 159.971 258.91 160.725 258.91V260.08C160.311 260.053 159.951 260.153 159.645 260.38C159.338 260.6 159.185 260.967 159.185 261.48V264H158.105V259H159.185V259.84Z" fill="#98A0AC"/>
<ellipse cx="76" cy="261" rx="8" ry="8" transform="rotate(90 76 261)" fill="#1BB161" fill-opacity="0.15"/>
<circle cx="76.0003" cy="261" r="2.85714" transform="rotate(90 76.0003 261)" fill="#1BB161"/>
<path d="M103.48 300L101.05 293H102.31L104.17 298.61L106.04 293H107.29L104.86 300H103.48ZM108.793 294.05C108.659 294.183 108.499 294.25 108.313 294.25C108.126 294.25 107.963 294.183 107.823 294.05C107.689 293.91 107.623 293.747 107.623 293.56C107.623 293.373 107.689 293.213 107.823 293.08C107.956 292.94 108.119 292.87 108.313 292.87C108.506 292.87 108.669 292.94 108.803 293.08C108.936 293.213 109.003 293.373 109.003 293.56C109.003 293.747 108.933 293.91 108.793 294.05ZM107.773 300V295H108.853V300H107.773ZM111.047 296.38C111.047 296.547 111.137 296.68 111.317 296.78C111.504 296.873 111.727 296.957 111.987 297.03C112.254 297.097 112.521 297.177 112.787 297.27C113.054 297.363 113.277 297.523 113.457 297.75C113.644 297.97 113.737 298.25 113.737 298.59C113.737 299.07 113.551 299.447 113.177 299.72C112.811 299.993 112.347 300.13 111.787 300.13C111.294 300.13 110.871 300.027 110.517 299.82C110.164 299.613 109.907 299.327 109.747 298.96L110.677 298.42C110.851 298.9 111.221 299.14 111.787 299.14C112.354 299.14 112.637 298.953 112.637 298.58C112.637 298.42 112.544 298.29 112.357 298.19C112.177 298.09 111.954 298.007 111.687 297.94C111.427 297.867 111.164 297.783 110.897 297.69C110.631 297.597 110.404 297.443 110.217 297.23C110.037 297.01 109.947 296.733 109.947 296.4C109.947 295.94 110.121 295.57 110.467 295.29C110.821 295.01 111.257 294.87 111.777 294.87C112.191 294.87 112.557 294.963 112.877 295.15C113.204 295.33 113.454 295.583 113.627 295.91L112.717 296.42C112.544 296.04 112.231 295.85 111.777 295.85C111.571 295.85 111.397 295.897 111.257 295.99C111.117 296.077 111.047 296.207 111.047 296.38ZM118.52 295H119.6V300H118.52V299.28C118.113 299.847 117.53 300.13 116.77 300.13C116.083 300.13 115.496 299.877 115.01 299.37C114.523 298.857 114.28 298.233 114.28 297.5C114.28 296.76 114.523 296.137 115.01 295.63C115.496 295.123 116.083 294.87 116.77 294.87C117.53 294.87 118.113 295.15 118.52 295.71V295ZM115.81 298.65C116.11 298.95 116.486 299.1 116.94 299.1C117.393 299.1 117.77 298.95 118.07 298.65C118.37 298.343 118.52 297.96 118.52 297.5C118.52 297.04 118.37 296.66 118.07 296.36C117.77 296.053 117.393 295.9 116.94 295.9C116.486 295.9 116.11 296.053 115.81 296.36C115.51 296.66 115.36 297.04 115.36 297.5C115.36 297.96 115.51 298.343 115.81 298.65ZM127.319 295H128.399V300H127.319V299.28C126.912 299.847 126.329 300.13 125.569 300.13C124.882 300.13 124.295 299.877 123.809 299.37C123.322 298.857 123.079 298.233 123.079 297.5C123.079 296.76 123.322 296.137 123.809 295.63C124.295 295.123 124.882 294.87 125.569 294.87C126.329 294.87 126.912 295.15 127.319 295.71V295ZM124.609 298.65C124.909 298.95 125.285 299.1 125.739 299.1C126.192 299.1 126.569 298.95 126.869 298.65C127.169 298.343 127.319 297.96 127.319 297.5C127.319 297.04 127.169 296.66 126.869 296.36C126.569 296.053 126.192 295.9 125.739 295.9C125.285 295.9 124.909 296.053 124.609 296.36C124.309 296.66 124.159 297.04 124.159 297.5C124.159 297.96 124.309 298.343 124.609 298.65ZM132.487 294.87C133.174 294.87 133.761 295.127 134.247 295.64C134.734 296.147 134.977 296.767 134.977 297.5C134.977 298.24 134.734 298.863 134.247 299.37C133.761 299.877 133.174 300.13 132.487 300.13C131.727 300.13 131.144 299.85 130.737 299.29V302H129.657V295H130.737V295.72C131.144 295.153 131.727 294.87 132.487 294.87ZM131.187 298.65C131.487 298.95 131.864 299.1 132.317 299.1C132.771 299.1 133.147 298.95 133.447 298.65C133.747 298.343 133.897 297.96 133.897 297.5C133.897 297.04 133.747 296.66 133.447 296.36C133.147 296.053 132.771 295.9 132.317 295.9C131.864 295.9 131.487 296.053 131.187 296.36C130.887 296.66 130.737 297.04 130.737 297.5C130.737 297.96 130.887 298.343 131.187 298.65ZM138.786 294.87C139.473 294.87 140.06 295.127 140.546 295.64C141.033 296.147 141.276 296.767 141.276 297.5C141.276 298.24 141.033 298.863 140.546 299.37C140.06 299.877 139.473 300.13 138.786 300.13C138.026 300.13 137.443 299.85 137.036 299.29V302H135.956V295H137.036V295.72C137.443 295.153 138.026 294.87 138.786 294.87ZM137.486 298.65C137.786 298.95 138.163 299.1 138.616 299.1C139.07 299.1 139.446 298.95 139.746 298.65C140.046 298.343 140.196 297.96 140.196 297.5C140.196 297.04 140.046 296.66 139.746 296.36C139.446 296.053 139.07 295.9 138.616 295.9C138.163 295.9 137.786 296.053 137.486 296.36C137.186 296.66 137.036 297.04 137.036 297.5C137.036 297.96 137.186 298.343 137.486 298.65ZM143.335 295.84C143.608 295.22 144.122 294.91 144.875 294.91V296.08C144.462 296.053 144.102 296.153 143.795 296.38C143.488 296.6 143.335 296.967 143.335 297.48V300H142.255V295H143.335V295.84ZM147.799 300.13C147.065 300.13 146.442 299.877 145.929 299.37C145.415 298.863 145.159 298.24 145.159 297.5C145.159 296.76 145.415 296.137 145.929 295.63C146.442 295.123 147.065 294.87 147.799 294.87C148.539 294.87 149.162 295.123 149.669 295.63C150.182 296.137 150.439 296.76 150.439 297.5C150.439 298.24 150.182 298.863 149.669 299.37C149.162 299.877 148.539 300.13 147.799 300.13ZM146.689 298.63C146.989 298.93 147.359 299.08 147.799 299.08C148.239 299.08 148.609 298.93 148.909 298.63C149.209 298.33 149.359 297.953 149.359 297.5C149.359 297.047 149.209 296.67 148.909 296.37C148.609 296.07 148.239 295.92 147.799 295.92C147.359 295.92 146.989 296.07 146.689 296.37C146.389 296.67 146.239 297.047 146.239 297.5C146.239 297.953 146.389 298.33 146.689 298.63ZM154.61 295H155.79L153.84 300H152.59L150.64 295H151.82L153.22 298.8L154.61 295ZM160.238 295H161.318V300H160.238V299.28C159.832 299.847 159.248 300.13 158.488 300.13C157.802 300.13 157.215 299.877 156.728 299.37C156.242 298.857 155.998 298.233 155.998 297.5C155.998 296.76 156.242 296.137 156.728 295.63C157.215 295.123 157.802 294.87 158.488 294.87C159.248 294.87 159.832 295.15 160.238 295.71V295ZM157.528 298.65C157.828 298.95 158.205 299.1 158.658 299.1C159.112 299.1 159.488 298.95 159.788 298.65C160.088 298.343 160.238 297.96 160.238 297.5C160.238 297.04 160.088 296.66 159.788 296.36C159.488 296.053 159.112 295.9 158.658 295.9C158.205 295.9 157.828 296.053 157.528 296.36C157.228 296.66 157.078 297.04 157.078 297.5C157.078 297.96 157.228 298.343 157.528 298.65ZM162.577 300V292.7H163.657V300H162.577Z" fill="#98A0AC"/>
<circle cx="76" cy="297" r="6" transform="rotate(90 76 297)" fill="#B3B3B2"/>
<circle cx="76" cy="297" r="4" transform="rotate(90 76 297)" fill="white"/>
<circle cx="76" cy="333" r="6" transform="rotate(90 76 333)" fill="#B3B3B2"/>
<circle cx="76" cy="333" r="4" transform="rotate(90 76 333)" fill="white"/>
<path d="M102.85 334.9H105.95V336H101.7V329H105.9V330.1H102.85V331.92H105.65V333.01H102.85V334.9ZM109.563 330.87C110.136 330.87 110.599 331.053 110.953 331.42C111.306 331.787 111.483 332.29 111.483 332.93V336H110.403V333.04C110.403 332.667 110.303 332.38 110.103 332.18C109.903 331.98 109.629 331.88 109.283 331.88C108.903 331.88 108.596 332 108.363 332.24C108.129 332.473 108.013 332.833 108.013 333.32V336H106.933V331H108.013V331.64C108.339 331.127 108.856 330.87 109.563 330.87ZM113.726 331.84C113.999 331.22 114.512 330.91 115.266 330.91V332.08C114.852 332.053 114.492 332.153 114.186 332.38C113.879 332.6 113.726 332.967 113.726 333.48V336H112.646V331H113.726V331.84ZM118.189 336.13C117.456 336.13 116.833 335.877 116.319 335.37C115.806 334.863 115.549 334.24 115.549 333.5C115.549 332.76 115.806 332.137 116.319 331.63C116.833 331.123 117.456 330.87 118.189 330.87C118.929 330.87 119.553 331.123 120.059 331.63C120.573 332.137 120.829 332.76 120.829 333.5C120.829 334.24 120.573 334.863 120.059 335.37C119.553 335.877 118.929 336.13 118.189 336.13ZM117.079 334.63C117.379 334.93 117.749 335.08 118.189 335.08C118.629 335.08 118.999 334.93 119.299 334.63C119.599 334.33 119.749 333.953 119.749 333.5C119.749 333.047 119.599 332.67 119.299 332.37C118.999 332.07 118.629 331.92 118.189 331.92C117.749 331.92 117.379 332.07 117.079 332.37C116.779 332.67 116.629 333.047 116.629 333.5C116.629 333.953 116.779 334.33 117.079 334.63ZM121.806 336V328.7H122.886V336H121.806ZM124.14 336V328.7H125.22V336H124.14Z" fill="#98A0AC"/>
<path d="M371.95 287.99V289.01H370.26V290.7H369.24V289.01H367.55V287.99H369.24V286.3H370.26V287.99H371.95ZM377.688 291.47C377.195 291.91 376.558 292.13 375.778 292.13C374.998 292.13 374.361 291.91 373.868 291.47C373.375 291.023 373.128 290.427 373.128 289.68V285H374.278V289.61C374.278 290.037 374.401 290.377 374.648 290.63C374.901 290.883 375.278 291.01 375.778 291.01C376.278 291.01 376.651 290.883 376.898 290.63C377.151 290.377 377.278 290.037 377.278 289.61V285H378.428V289.68C378.428 290.427 378.181 291.023 377.688 291.47ZM382.511 286.87C383.197 286.87 383.784 287.127 384.271 287.64C384.757 288.147 385.001 288.767 385.001 289.5C385.001 290.24 384.757 290.863 384.271 291.37C383.784 291.877 383.197 292.13 382.511 292.13C381.751 292.13 381.167 291.85 380.761 291.29V294H379.681V287H380.761V287.72C381.167 287.153 381.751 286.87 382.511 286.87ZM381.211 290.65C381.511 290.95 381.887 291.1 382.341 291.1C382.794 291.1 383.171 290.95 383.471 290.65C383.771 290.343 383.921 289.96 383.921 289.5C383.921 289.04 383.771 288.66 383.471 288.36C383.171 288.053 382.794 287.9 382.341 287.9C381.887 287.9 381.511 288.053 381.211 288.36C380.911 288.66 380.761 289.04 380.761 289.5C380.761 289.96 380.911 290.343 381.211 290.65ZM385.98 292V284.7H387.06V292H385.98ZM390.674 292.13C389.94 292.13 389.317 291.877 388.804 291.37C388.29 290.863 388.034 290.24 388.034 289.5C388.034 288.76 388.29 288.137 388.804 287.63C389.317 287.123 389.94 286.87 390.674 286.87C391.414 286.87 392.037 287.123 392.544 287.63C393.057 288.137 393.314 288.76 393.314 289.5C393.314 290.24 393.057 290.863 392.544 291.37C392.037 291.877 391.414 292.13 390.674 292.13ZM389.564 290.63C389.864 290.93 390.234 291.08 390.674 291.08C391.114 291.08 391.484 290.93 391.784 290.63C392.084 290.33 392.234 289.953 392.234 289.5C392.234 289.047 392.084 288.67 391.784 288.37C391.484 288.07 391.114 287.92 390.674 287.92C390.234 287.92 389.864 288.07 389.564 288.37C389.264 288.67 389.114 289.047 389.114 289.5C389.114 289.953 389.264 290.33 389.564 290.63ZM398.25 287H399.33V292H398.25V291.28C397.843 291.847 397.26 292.13 396.5 292.13C395.813 292.13 395.227 291.877 394.74 291.37C394.253 290.857 394.01 290.233 394.01 289.5C394.01 288.76 394.253 288.137 394.74 287.63C395.227 287.123 395.813 286.87 396.5 286.87C397.26 286.87 397.843 287.15 398.25 287.71V287ZM395.54 290.65C395.84 290.95 396.217 291.1 396.67 291.1C397.123 291.1 397.5 290.95 397.8 290.65C398.1 290.343 398.25 289.96 398.25 289.5C398.25 289.04 398.1 288.66 397.8 288.36C397.5 288.053 397.123 287.9 396.67 287.9C396.217 287.9 395.84 288.053 395.54 288.36C395.24 288.66 395.09 289.04 395.09 289.5C395.09 289.96 395.24 290.343 395.54 290.65ZM404.549 285H405.629V292H404.549V291.28C404.142 291.847 403.559 292.13 402.799 292.13C402.112 292.13 401.526 291.877 401.039 291.37C400.552 290.857 400.309 290.233 400.309 289.5C400.309 288.76 400.552 288.137 401.039 287.63C401.526 287.123 402.112 286.87 402.799 286.87C403.559 286.87 404.142 287.15 404.549 287.71V285ZM401.839 290.65C402.139 290.95 402.516 291.1 402.969 291.1C403.422 291.1 403.799 290.95 404.099 290.65C404.399 290.343 404.549 289.96 404.549 289.5C404.549 289.04 404.399 288.66 404.099 288.36C403.799 288.053 403.422 287.9 402.969 287.9C402.516 287.9 402.139 288.053 401.839 288.36C401.539 288.66 401.389 289.04 401.389 289.5C401.389 289.96 401.539 290.343 401.839 290.65Z" fill="#DF252A"/>
<rect x="258.5" y="274.5" width="251" height="29" rx="3.5" stroke="#B3B3B2" stroke-dasharray="2 2"/>
<defs>
<filter id="filter0_d_2313_7716" x="0" y="0" width="584" height="414" filterUnits="userSpaceOnUse" color-interpolation-filters="sRGB">
<feFlood flood-opacity="0" result="BackgroundImageFix"/>
<feColorMatrix in="SourceAlpha" type="matrix" values="0 0 0 0 0 0 0 0 0 0 0 0 0 0 0 0 0 0 127 0" result="hardAlpha"/>
<feOffset dy="4"/>
<feGaussianBlur stdDeviation="12"/>
<feComposite in2="hardAlpha" operator="out"/>
<feColorMatrix type="matrix" values="0 0 0 0 0 0 0 0 0 0 0 0 0 0 0 0 0 0 0.04 0"/>
<feBlend mode="normal" in2="BackgroundImageFix" result="effect1_dropShadow_2313_7716"/>
<feBlend mode="normal" in="SourceGraphic" in2="effect1_dropShadow_2313_7716" result="shape"/>
</filter>
</defs>
</svg>