<svg width="32" height="32" viewBox="0 0 32 32" fill="none" xmlns="http://www.w3.org/2000/svg">
<path d="M4 28.5001L4 22.9575C4 21.3775 4.57946 19.8622 5.61091 18.745C6.64236 17.6277 8.04131 17.0001 9.5 17.0001H20.5C21.5 17 23.3 16.6959 24.5 18.5" stroke="#DF252A" stroke-width="1.5" stroke-linecap="square" stroke-linejoin="round"/>
<path d="M26 25V28.5" stroke="#DF252A" stroke-width="1.5" stroke-linecap="square" stroke-linejoin="round"/>
<path d="M12.333 26.6666L14.9997 17.3333L17.6663 26.6666L14.9997 29.3333L12.333 26.6666Z" stroke="#DF252A" stroke-width="1.5" stroke-linecap="round" stroke-linejoin="round"/>
<path d="M15 12C17.2091 12 19 10.2091 19 8C19 5.79086 17.2091 4 15 4C12.7909 4 11 5.79086 11 8C11 10.2091 12.7909 12 15 12Z" stroke="#DF252A" stroke-width="1.5" stroke-linecap="round" stroke-linejoin="round"/>
<path d="M21 23L23.5 26L30 20" stroke="#DF252A" stroke-width="1.5" stroke-linecap="square" stroke-linejoin="round"/>
</svg>
