<svg xmlns="http://www.w3.org/2000/svg" viewBox="0 0 20.94 20.9"><defs><style>.cls-1{fill:#727271;}</style></defs><title>Architecture and Construction</title><g id="Layer_2" data-name="Layer 2"><g id="Layer_1-2" data-name="Layer 1"><path class="cls-1" d="M18.2,11.47h.68v4l.06,0a1.13,1.13,0,0,0,.12-.18c.37-.94.75-1.87,1.12-2.81a1.05,1.05,0,0,0,.08-.18l.62.24-1.16,2.92h1.22a2.71,2.71,0,0,1-2.3,2.64,10.86,10.86,0,0,1-1.4.05h-.73c-.36.93-.91,1.37-1.71,1.35a1.71,1.71,0,0,1-1.62-1.34h-1V20.9H2c0-.52,0-1,0-1.54a.31.31,0,0,0-.17-.31A3.57,3.57,0,0,1,0,15.89a5.86,5.86,0,0,1,3.24-5.58,3.81,3.81,0,0,1,.89-.37.56.56,0,0,0,.46-.57,1.72,1.72,0,0,1-1-.87s-.11-.06-.16-.07A1.35,1.35,0,0,1,2,7V5.42c-.54-.15-.68-.33-.68-.89V4.18a.71.71,0,0,1,.73-.82c0-.13.06-.26.1-.4A4,4,0,0,1,10,3.19c0,.13.07.18.2.2a.66.66,0,0,1,.57.66v.48c0,.56-.14.74-.68.89,0,.53,0,1.07,0,1.6A1.36,1.36,0,0,1,8.76,8.44a.22.22,0,0,0-.17.07,1.81,1.81,0,0,1-1,.87A.57.57,0,0,0,8,9.94a5.7,5.7,0,0,1,2.57,1.66l.21.23v-1.7h1.35V6.07h1.35V4.74h.67V6.05h.68v-2h.67v2h.68V4.74h.68V6.07H18.2ZM4.37,10.55a7.58,7.58,0,0,0-.81.35,5.26,5.26,0,0,0-2.89,5,3,3,0,0,0,1.19,2.38c1,.77,2.08.63,3.18.62v-.73c-.4-.09-.8-.17-1.2-.27a2.24,2.24,0,0,1-1.76-1.81A13.16,13.16,0,0,1,2,14.18h.69v1.38a1.71,1.71,0,0,0,1.68,1.72Zm5.58,5L8.79,12.61l.62-.25c0,.09.08.17.11.25.36.92.73,1.83,1.1,2.75a.82.82,0,0,0,.11.17l.06,0c0-.8,0-1.59,0-2.38a.42.42,0,0,0-.08-.21A4.91,4.91,0,0,0,9,11.17c-.39-.24-.81-.42-1.25-.65v7a1,1,0,0,1,1,1c0,.55-.34.92-1,1v.64H9.44c0-.86,0-1.71,0-2.56a.91.91,0,0,0-.19-.61,2.77,2.77,0,0,1-.53-1.53Zm5.57-5.4v1.33h2V6.76H12.83v3.36ZM4,5.41v2.3A1,1,0,0,0,5.1,8.77H7A1,1,0,0,0,8.09,7.7V5.59c0-.06,0-.12,0-.18Zm10.79,5.4H11.48V15.5h3.35ZM9.54,16.2a1.92,1.92,0,0,0,1.53,1.28,15.71,15.71,0,0,0,2.06.05s.11-.07.14-.12a1,1,0,0,1,.91-.54c.44,0,.87,0,1.31,0a1,1,0,0,1,.91.54.21.21,0,0,0,.22.13c.53,0,1.06,0,1.58,0a2,2,0,0,0,1.6-.77c.13-.17.22-.36.35-.57ZM6.07,12.68c-.32.4-.62.76-.9,1.14a.46.46,0,0,0-.11.3c0,.69,0,1.39,0,2.08v1.23a.24.24,0,0,0,.36-.05,1.32,1.32,0,0,1,1.25-.52l.4,0s0,0,0-.06V14a.23.23,0,0,0,0-.14Zm9.45,2.82H18.2V12.16H15.52ZM2,4.06V4.7H10.1V4.06Zm3-3.21A3.19,3.19,0,0,0,2.8,3.36H5.05Zm2,2.51H9.35A3.24,3.24,0,0,0,7.08.86Zm4.37,16.87v-2l-1.33-.35v2.31Zm-5.38-8.7c.25-.38.46-.74.72-1.07a.7.7,0,0,0,.1-.85l0,0s-.11-.12-.17-.12h-1c-.43,0-.44,0-.57.43a.37.37,0,0,0,0,.27C5.43,10.6,5.74,11.05,6.07,11.53Zm-.34,7.36h2c.25,0,.4-.14.4-.34s-.15-.33-.4-.34H7.08v-.28c0-.26-.13-.37-.39-.39a.79.79,0,0,0-.81.33c0,.08-.14.16-.14.25C5.72,18.37,5.73,18.61,5.73,18.89Zm9.12-1.35h-.64a.34.34,0,0,0-.38.41,1,1,0,0,0,1,.94,1,1,0,0,0,1-.94.35.35,0,0,0-.37-.41ZM5.74.69V3.36h.65V.69ZM5.06,20.22h2v-.65h-2Zm-2.35-.75v.75H4.37V19.6ZM8.77,7.75A.68.68,0,0,0,9.44,7a.64.64,0,0,0-.67-.61ZM3.36,6.42a.67.67,0,0,0-.67.7.65.65,0,0,0,.67.62Zm1.71,4.84v1.58l.58-.72Zm1.41.86.58.73V11.26ZM8.77,5.7l.66.18V5.41H8.77ZM3.36,5.41H2.7v.48l.66-.19Z"/><path class="cls-1" d="M13.5,8.78h.65v.65H13.5Z"/><path class="cls-1" d="M16.19,8.08V7.43h.66v.65Z"/><path class="cls-1" d="M15.5,7.43v.65h-.65V7.43Z"/><path class="cls-1" d="M13.5,8.08V7.44h.65v.64Z"/><path class="cls-1" d="M16.85,8.79v.64H16.2V8.79Z"/><path class="cls-1" d="M14.85,8.78h.65v.65h-.65Z"/><path class="cls-1" d="M16.85,10.78H16.2v-.65h.65Z"/><path class="cls-1" d="M14.14,14.83H13.5V11.48h.64Z"/><path class="cls-1" d="M12.8,14.83h-.65V11.48h.65Z"/><path class="cls-1" d="M17.52,13.49H16.2v-.66h1.32Z"/><path class="cls-1" d="M17.53,14.18v.64H16.2v-.64Z"/></g></g></svg>