<svg width="40" height="40" viewBox="0 0 40 40" fill="none" xmlns="http://www.w3.org/2000/svg">
<circle cx="20" cy="20" r="20" fill="white"/>
<path d="M27.6804 15.2H12.3204C11.26 15.2 10.4004 16.0442 10.4004 17.0857V26.5142C10.4004 27.5557 11.26 28.4 12.3204 28.4H27.6804C28.7408 28.4 29.6004 27.5557 29.6004 26.5142V17.0857C29.6004 16.0442 28.7408 15.2 27.6804 15.2Z" stroke="#727271" stroke-width="1.5" stroke-linecap="square"/>
<path d="M24 15.2V13C24 12.4696 23.7893 11.9609 23.4142 11.5858C23.0391 11.2107 22.5304 11 22 11H18C17.4696 11 16.9609 11.2107 16.5858 11.5858C16.2107 11.9609 16 12.4696 16 13L16 15.2" stroke="#727271" stroke-width="1.5" stroke-linecap="square"/>
<path d="M10.4004 18.8L15.2004 20.6H24.8004L29.6004 18.8" stroke="#727271" stroke-width="1.5"/>
</svg>
