<svg width="51" height="51" viewBox="0 0 51 51" fill="none" xmlns="http://www.w3.org/2000/svg">
<path d="M40 40H41.5C45.6415 40 49 36.4177 49 32C49 27.5825 45.6415 24 41.5 24H40V40Z" stroke="#333333" stroke-width="2.3" stroke-miterlimit="10" stroke-linejoin="round"/>
<path d="M9.49998 40H11V24H9.49998C5.35854 24 2 27.5825 2 32C2 36.4177 5.35854 40 9.49998 40Z" stroke="#333333" stroke-width="2.3" stroke-miterlimit="10" stroke-linejoin="round"/>
<path d="M43 24V19.2858C43 9.7393 35.1648 2 25.5 2C15.8352 2 8 9.7393 8 19.2858V24" stroke="#333333" stroke-width="2.3" stroke-miterlimit="10" stroke-linejoin="round"/>
<path d="M8 40V46C8 47.6575 9.4319 49 11.1999 49H16" stroke="#333333" stroke-width="2.3" stroke-miterlimit="10" stroke-linejoin="round"/>
<path d="M19 49H22" stroke="#333333" stroke-width="2.3" stroke-miterlimit="10" stroke-linejoin="round"/>
<path d="M26 38V41" stroke="#333333" stroke-width="2.3" stroke-miterlimit="10" stroke-linejoin="round"/>
<path d="M25.5 36V31.816C25.5 29.5103 26.8155 27.4384 28.8226 26.5824C31.3455 25.5056 33 22.8992 33 19.9999C33 15.5824 29.6416 12 25.5 12C21.3586 12 18 15.5824 18 19.9999" stroke="#333333" stroke-width="2.3" stroke-miterlimit="10" stroke-linejoin="round"/>
</svg>
