<svg width="40" height="40" viewBox="0 0 40 40" fill="none" xmlns="http://www.w3.org/2000/svg">
<circle cx="20" cy="20" r="20" fill="white"/>
<path d="M20.0001 23.4375C21.8987 23.4375 23.4377 21.8984 23.4377 19.9999C23.4377 18.1013 21.8987 16.5623 20.0001 16.5623C18.1016 16.5623 16.5625 18.1013 16.5625 19.9999C16.5625 21.8984 18.1016 23.4375 20.0001 23.4375Z" stroke="#727271" stroke-width="1.5" stroke-linecap="square"/>
<path d="M27.4007 23C27.2675 23.3016 27.2278 23.6362 27.2866 23.9606C27.3455 24.285 27.5001 24.5844 27.7307 24.8201L27.7907 24.8801C27.9766 25.0658 28.1241 25.2864 28.2248 25.5292C28.3255 25.772 28.3773 26.0323 28.3773 26.2951C28.3773 26.558 28.3255 26.8182 28.2248 27.061C28.1241 27.3038 27.9766 27.5244 27.7907 27.7102C27.6049 27.8961 27.3843 28.0437 27.1415 28.1443C26.8987 28.245 26.6385 28.2968 26.3756 28.2968C26.1128 28.2968 25.8525 28.245 25.6097 28.1443C25.3669 28.0437 25.1463 27.8961 24.9606 27.7102L24.9006 27.6502C24.6649 27.4196 24.3655 27.265 24.0411 27.2062C23.7167 27.1473 23.3821 27.187 23.0805 27.3202C22.7847 27.4469 22.5325 27.6574 22.3548 27.9257C22.1771 28.194 22.0817 28.5084 22.0805 28.8302V29.0002C22.0805 29.5307 21.8697 30.0394 21.4947 30.4145C21.1196 30.7896 20.6108 31.0003 20.0804 31.0003C19.5499 31.0003 19.0412 30.7896 18.6661 30.4145C18.291 30.0394 18.0803 29.5307 18.0803 29.0002V28.9102C18.0726 28.5792 17.9654 28.2582 17.7728 27.9889C17.5802 27.7196 17.311 27.5145 17.0003 27.4002C16.6987 27.267 16.3641 27.2273 16.0397 27.2862C15.7153 27.345 15.4159 27.4996 15.1802 27.7302L15.1202 27.7902C14.9345 27.9761 14.7139 28.1237 14.4711 28.2243C14.2283 28.325 13.968 28.3768 13.7052 28.3768C13.4423 28.3768 13.1821 28.325 12.9393 28.2243C12.6965 28.1237 12.4759 27.9761 12.2901 27.7902C12.1042 27.6044 11.9566 27.3838 11.856 27.141C11.7553 26.8982 11.7035 26.638 11.7035 26.3751C11.7035 26.1123 11.7553 25.852 11.856 25.6092C11.9566 25.3664 12.1042 25.1458 12.2901 24.9601L12.3501 24.9001C12.5807 24.6644 12.7353 24.365 12.7941 24.0406C12.853 23.7162 12.8133 23.3816 12.6801 23.08C12.5534 22.7842 12.3429 22.532 12.0746 22.3543C11.8063 22.1766 11.4919 22.0813 11.1701 22.08H11.0001C10.4696 22.08 9.96089 21.8693 9.58581 21.4942C9.21072 21.1191 9 20.6104 9 20.0799C9 19.5495 9.21072 19.0407 9.58581 18.6656C9.96089 18.2906 10.4696 18.0798 11.0001 18.0798H11.0901C11.4211 18.0721 11.7421 17.9649 12.0114 17.7723C12.2807 17.5797 12.4858 17.3105 12.6001 16.9998C12.7332 16.6982 12.773 16.3636 12.7141 16.0392C12.6553 15.7148 12.5007 15.4154 12.2701 15.1797L12.2101 15.1197C12.0242 14.934 11.8766 14.7134 11.776 14.4706C11.6753 14.2278 11.6235 13.9675 11.6235 13.7047C11.6235 13.4418 11.6753 13.1816 11.776 12.9388C11.8766 12.696 12.0242 12.4754 12.2101 12.2896C12.3959 12.1037 12.6165 11.9561 12.8593 11.8555C13.1021 11.7548 13.3623 11.703 13.6252 11.703C13.888 11.703 14.1483 11.7548 14.3911 11.8555C14.6339 11.9561 14.8545 12.1037 15.0402 12.2896L15.1002 12.3496C15.3359 12.5802 15.6353 12.7348 15.9597 12.7937C16.2841 12.8525 16.6187 12.8128 16.9203 12.6796H17.0003C17.2961 12.5529 17.5483 12.3424 17.726 12.0741C17.9037 11.8058 17.999 11.4914 18.0003 11.1696V10.9996C18.0003 10.4691 18.211 9.96041 18.5861 9.58532C18.9612 9.21023 19.4699 8.99951 20.0004 8.99951C20.5308 8.99951 21.0396 9.21023 21.4147 9.58532C21.7897 9.96041 22.0005 10.4691 22.0005 10.9996V11.0896C22.0017 11.4114 22.0971 11.7258 22.2748 11.9941C22.4525 12.2624 22.7047 12.4729 23.0005 12.5996C23.3021 12.7328 23.6367 12.7725 23.9611 12.7136C24.2855 12.6548 24.5849 12.5002 24.8206 12.2696L24.8806 12.2096C25.0663 12.0237 25.2869 11.8761 25.5297 11.7755C25.7725 11.6748 26.0328 11.623 26.2956 11.623C26.5585 11.623 26.8187 11.6748 27.0615 11.7755C27.3043 11.8761 27.5249 12.0237 27.7107 12.2096C27.8966 12.3954 28.0441 12.616 28.1448 12.8588C28.2455 13.1016 28.2973 13.3618 28.2973 13.6247C28.2973 13.8875 28.2455 14.1478 28.1448 14.3906C28.0441 14.6334 27.8966 14.854 27.7107 15.0397L27.6507 15.0997C27.4201 15.3354 27.2655 15.6348 27.2066 15.9592C27.1478 16.2836 27.1875 16.6182 27.3207 16.9198V16.9998C27.4474 17.2956 27.6579 17.5478 27.9262 17.7255C28.1945 17.9032 28.5089 17.9985 28.8307 17.9998H29.0007C29.5312 17.9998 30.0399 18.2106 30.415 18.5856C30.7901 18.9607 31.0008 19.4695 31.0008 19.9999C31.0008 20.5304 30.7901 21.0391 30.415 21.4142C30.0399 21.7893 29.5312 22 29.0007 22H28.9107C28.5889 22.0013 28.2745 22.0966 28.0062 22.2743C27.7379 22.452 27.5274 22.7042 27.4007 23V23Z" stroke="#727271" stroke-width="1.5" stroke-linecap="square"/>
</svg>
