<?xml version="1.0" encoding="UTF-8"?>
<!DOCTYPE svg PUBLIC "-//W3C//DTD SVG 1.1//EN" "http://www.w3.org/Graphics/SVG/1.1/DTD/svg11.dtd">
<!-- Creator: CorelDRAW 2020 (64-Bit) -->
<svg xmlns="http://www.w3.org/2000/svg" xml:space="preserve" width="3.33681in" height="1.654in" version="1.1" style="shape-rendering:geometricPrecision; text-rendering:geometricPrecision; image-rendering:optimizeQuality; fill-rule:evenodd; clip-rule:evenodd"
viewBox="0 0 3333.33 1652.28"
 xmlns:xlink="http://www.w3.org/1999/xlink"
 xmlns:xodm="http://www.corel.com/coreldraw/odm/2003">
 <defs>
  <style type="text/css">
   <![CDATA[
    .str0 {stroke:#373435;stroke-width:6.94;stroke-miterlimit:22.9256}
    .fil5 {fill:#727376;fill-rule:nonzero}
    .fil0 {fill:#373435;fill-rule:nonzero}
    .fil1 {fill:url(#id0)}
    .fil4 {fill:url(#id1)}
    .fil3 {fill:url(#id2)}
    .fil2 {fill:url(#id3)}
   ]]>
  </style>
  <linearGradient id="id0" gradientUnits="userSpaceOnUse" x1="2424.74" y1="449.49" x2="2421.02" y2="7.21">
   <stop offset="0" style="stop-opacity:1; stop-color:#ED3237"/>
   <stop offset="1" style="stop-opacity:1; stop-color:#972A2B"/>
  </linearGradient>
  <linearGradient id="id1" gradientUnits="userSpaceOnUse" xlink:href="#id0" x1="2792.45" y1="1078.08" x2="3105.4" y2="1390.63">
  </linearGradient>
  <linearGradient id="id2" gradientUnits="userSpaceOnUse" xlink:href="#id0" x1="2883.85" y1="775.28" x2="3326.11" y2="780.39">
  </linearGradient>
  <linearGradient id="id3" gradientUnits="userSpaceOnUse" xlink:href="#id0" x1="2707.62" y1="518.88" x2="3019.27" y2="205.04">
  </linearGradient>
 </defs>
 <g id="Layer_x0020_1">
  <metadata id="CorelCorpID_0Corel-Layer"/>
  <g id="_892679568">
   <path class="fil0 str0" d="M329.33 1346.94l-22.06 -55.14c-10.02,7.35 -21.56,13.54 -34.59,18.55 -13.03,5.01 -28.91,7.52 -47.63,7.52 -22.06,0 -41.27,-5.35 -57.65,-16.04 -16.38,-10.69 -30.25,-25.56 -41.61,-44.62 -11.37,-19.05 -19.89,-42.11 -25.57,-69.18 -5.68,-27.07 -8.52,-56.65 -8.52,-88.73 0,-31.42 2.51,-60.33 7.52,-86.73 5.01,-26.41 13.03,-49.13 24.07,-68.18 11.03,-19.05 25.06,-33.92 42.11,-44.62 17.05,-10.69 37.94,-16.04 62.67,-16.04 20.05,0 36.43,2.84 49.13,8.52 12.7,5.68 23.06,11.53 31.08,17.55l21.05 -51.14c-8.69,-7.35 -22.39,-15.21 -41.1,-23.56 -18.72,-8.36 -44.78,-12.53 -78.21,-12.53 -30.08,0 -57.82,6.18 -83.22,18.55 -25.4,12.37 -47.12,30.58 -65.34,54.64 -18.22,24.07 -32.42,53.48 -42.61,88.23 -10.19,34.76 -15.38,74.2 -15.38,118.31 0,43.45 5.18,82.56 15.38,117.31 10.19,34.76 24.4,64.17 42.61,88.23 18.21,24.06 39.77,42.61 64.84,55.65 25.07,13.03 52.3,19.55 81.72,19.55 30.07,0 55.14,-3.67 75.2,-11.03 20.05,-7.35 35.43,-15.71 46.12,-25.07zm416.53 -2.01l0 -346.91c0,-32.75 -5.18,-60.49 -15.54,-83.22 -10.36,-22.73 -24.07,-40.78 -41.11,-54.14 -17.04,-13.37 -37.1,-23.06 -60.16,-29.08 -23.06,-6.01 -46.96,-9.02 -71.69,-9.02 -37.43,0 -70.52,4.51 -99.26,13.53 -28.74,9.03 -50.81,17.88 -66.18,26.57l21.05 52.13c15.38,-7.35 34.42,-14.87 57.15,-22.56 22.73,-7.69 47.12,-11.53 73.2,-11.53 34.76,0 63.33,7.52 85.73,22.56 22.39,15.04 33.59,43.28 33.59,84.73l0 33.09c-42.11,4.01 -81.38,10.19 -117.81,18.55 -36.43,8.36 -68.35,20.22 -95.75,35.59 -27.4,15.37 -48.96,34.93 -64.67,58.66 -15.71,23.73 -23.56,53.64 -23.56,89.74 0,49.46 16.54,88.4 49.63,116.81 33.09,28.41 85.06,42.61 155.91,42.61 38.1,0 72.36,-3.51 102.77,-10.53 30.41,-7.02 55.98,-16.21 76.7,-27.57zm-83.22 -31.08c-11.36,6.02 -24.73,10.53 -40.11,13.54 -15.37,3.01 -31.75,4.51 -49.13,4.51 -40.1,0 -71.52,-8.52 -94.24,-25.57 -22.73,-17.04 -34.09,-45.28 -34.09,-84.72 0,-27.41 5.01,-50.13 15.04,-68.18 10.03,-18.05 24.23,-32.75 42.62,-44.12 18.38,-11.36 41.11,-20.38 68.18,-27.07 27.07,-6.68 57.66,-12.03 91.74,-16.04l0 247.65zm568.93 59.16l0 -390.03c0,-19.39 -3.01,-38.6 -9.02,-57.65 -6.02,-19.05 -16.55,-36.26 -31.59,-51.64 -15.04,-15.38 -35.09,-27.74 -60.16,-37.1 -25.06,-9.36 -56.31,-14.04 -93.74,-14.04 -43.45,0 -81.21,3.51 -113.3,10.53 -32.08,7.02 -60.16,16.21 -84.22,27.57l0 512.35 88.23 0 0 -474.25c14.04,-6.02 28.24,-10.69 42.61,-14.04 14.37,-3.34 34.26,-5.01 59.66,-5.01 22.73,0 41.45,3.18 56.15,9.53 14.71,6.35 26.41,14.54 35.09,24.56 8.69,10.02 14.54,21.22 17.54,33.59 3.01,12.37 4.51,24.9 4.51,37.6l0 388.02 88.23 0zm451.62 -28.08l0 -346.91c0,-32.75 -5.18,-60.49 -15.54,-83.22 -10.36,-22.73 -24.06,-40.78 -41.11,-54.14 -17.04,-13.37 -37.1,-23.06 -60.16,-29.08 -23.06,-6.01 -46.96,-9.02 -71.69,-9.02 -37.43,0 -70.52,4.51 -99.26,13.53 -28.74,9.03 -50.8,17.88 -66.18,26.57l21.06 52.13c15.37,-7.35 34.42,-14.87 57.15,-22.56 22.73,-7.69 47.13,-11.53 73.2,-11.53 34.76,0 63.34,7.52 85.73,22.56 22.39,15.04 33.59,43.28 33.59,84.73l0 33.09c-42.11,4.01 -81.38,10.19 -117.81,18.55 -36.43,8.36 -68.35,20.22 -95.75,35.59 -27.41,15.37 -48.96,34.93 -64.67,58.66 -15.71,23.73 -23.56,53.64 -23.56,89.74 0,49.46 16.54,88.4 49.63,116.81 33.09,28.41 85.06,42.61 155.92,42.61 38.1,0 72.35,-3.51 102.77,-10.53 30.41,-7.02 55.98,-16.21 76.71,-27.57zm-83.22 -31.08c-11.37,6.02 -24.73,10.53 -40.11,13.54 -15.37,3.01 -31.75,4.51 -49.13,4.51 -40.1,0 -71.52,-8.52 -94.25,-25.57 -22.73,-17.04 -34.09,-45.28 -34.09,-84.72 0,-27.41 5.01,-50.13 15.04,-68.18 10.02,-18.05 24.23,-32.75 42.61,-44.12 18.38,-11.36 41.11,-20.38 68.18,-27.07 27.07,-6.68 57.66,-12.03 91.75,-16.04l0 247.65zm872.74 59.16l0 -391.03c0,-18.72 -3.01,-37.6 -9.03,-56.65 -6.01,-19.05 -16.04,-36.1 -30.08,-51.14 -14.04,-15.04 -32.25,-27.4 -54.64,-37.1 -22.39,-9.69 -49.63,-14.54 -81.71,-14.54 -38.1,0 -70.86,6.01 -98.26,18.05 -27.41,12.03 -50.47,27.74 -69.18,47.12 -16.04,-20.05 -37.1,-35.93 -63.17,-47.63 -26.07,-11.7 -60.16,-17.54 -102.27,-17.54 -43.45,0 -79.38,3.34 -107.79,10.02 -28.41,6.69 -54.98,16.04 -79.71,28.08l0 512.35 88.23 0 0 -475.26c14.71,-6.01 29.08,-10.53 43.11,-13.53 14.04,-3.01 32.09,-4.51 54.14,-4.51 39.44,0 69.01,9.19 88.73,27.57 19.72,18.38 29.58,42.61 29.58,72.69l0 393.04 88.23 0 0 -444.18c30.08,-32.08 67.18,-48.13 111.29,-48.13 19.39,0 35.76,2.84 49.13,8.52 13.37,5.68 24.07,13.37 32.09,23.06 8.02,9.69 13.87,20.72 17.54,33.09 3.68,12.37 5.51,25.23 5.51,38.6l0 389.03 88.23 0z"/>
   <path class="fil1" d="M2414.04 0.03c8.04,-3.69 316.49,329.22 15.99,761.23 0,0 -37.87,-264.03 -82.31,-332.94 -10,19.64 -26.06,87.05 -33.69,136.15 0,0 -135.63,-280.46 100.01,-564.44z"/>
   <path class="fil2" d="M3023.29 198.92c8.33,2.97 -3.57,456.66 -520.38,555.82 0,0 157.36,-215.37 173.72,-295.72 -20.88,7.06 -79.46,44.08 -119.23,73.88 0,0 98.91,-295.42 465.9,-333.98z"/>
   <path class="fil3" d="M3333.3 779.01c3.67,8.05 -330.22,315.45 -761.28,13.6 0,0 264.15,-37.04 333.2,-81.26 -19.61,-10.06 -86.97,-26.33 -136.05,-34.12 0,0 280.89,-134.74 564.13,101.78z"/>
   <path class="fil4" d="M3111.51 1394.66c-3,8.32 -456.65,-4.87 -554.34,-521.96 0,0 214.92,157.98 295.22,174.56 -7,-20.9 -43.85,-79.59 -73.54,-119.44 0,0 295.14,99.75 332.65,466.84z"/>
   <path class="fil5" d="M813.24 1588.82c0,-5.01 -0.5,-10.13 -1.51,-15.34 -1,-5.21 -3.16,-10.42 -6.47,-15.64 -3.31,-5.21 -8.02,-10.28 -14.13,-15.19 -6.12,-4.91 -14.29,-9.47 -24.51,-13.69 -9.02,-3.81 -16.49,-8.17 -22.41,-13.08 -5.92,-4.91 -8.88,-11.88 -8.88,-20.9 0,-9.23 2.56,-16.54 7.67,-21.96 5.12,-5.41 12.49,-8.12 22.11,-8.12 6.62,0 12.68,1 18.2,3.01 5.51,2.01 10.08,4.11 13.69,6.32l8.42 -23.46c-4.61,-3.41 -10.73,-6.22 -18.35,-8.42 -7.62,-2.2 -16.64,-3.31 -27.07,-3.31 -9.62,0 -18.24,1.6 -25.86,4.81 -7.62,3.21 -14.09,7.62 -19.4,13.23 -5.31,5.61 -9.43,12.08 -12.33,19.4 -2.91,7.32 -4.36,15.09 -4.36,23.31 0,5.01 0.65,10.13 1.95,15.34 1.3,5.22 3.56,10.28 6.76,15.19 3.21,4.91 7.57,9.57 13.08,13.99 5.51,4.41 12.48,8.42 20.9,12.03 11.63,4.81 19.9,9.88 24.82,15.19 4.91,5.31 7.37,11.88 7.37,19.7 0,9.62 -2.96,17.34 -8.87,23.16 -5.92,5.82 -13.99,8.73 -24.21,8.73 -7.82,0 -14.64,-1.01 -20.45,-3.01 -5.82,-2 -10.53,-4.21 -14.14,-6.62l-9.32 26.77c5.62,3.61 12.44,6.47 20.46,8.57 8.02,2.1 18.24,3.16 30.68,3.16 9.62,0 18.5,-1.55 26.62,-4.66 8.12,-3.11 15.09,-7.46 20.9,-13.08 5.82,-5.61 10.38,-12.28 13.69,-20 3.31,-7.72 4.96,-16.19 4.96,-25.41zm132.68 -121.21l0 -25.57 -115.5 0 0 25.57 38.5 0 0 181.36 38.2 0 0 -181.36 38.8 0zm160.65 121.21l0 -146.78 -35.49 0 0 146.48c0,11.23 -3,19.75 -9.03,25.56 -6.01,5.81 -13.43,8.72 -22.26,8.72 -8.62,0 -16.04,-2.91 -22.26,-8.72 -6.21,-5.82 -9.32,-14.34 -9.32,-25.56l0 -146.48 -38.2 0 0 146.78c0,9.42 1.65,18.05 4.96,25.86 3.31,7.82 7.97,14.49 13.99,20.01 6.02,5.51 13.19,9.82 21.51,12.93 8.32,3.11 17.6,4.66 27.82,4.66 10.23,0 19.5,-1.55 27.82,-4.66 8.32,-3.11 15.49,-7.42 21.51,-12.93 6.02,-5.51 10.68,-12.18 13.99,-20.01 3.31,-7.81 4.96,-16.44 4.96,-25.86zm182.61 -44.81c0,-15.44 -1.75,-29.63 -5.26,-42.56 -3.51,-12.94 -8.87,-24.01 -16.09,-33.24 -7.21,-9.22 -16.49,-16.39 -27.82,-21.51 -11.33,-5.11 -24.82,-7.67 -40.46,-7.67 -12.03,0 -22.76,1.11 -32.18,3.31 -9.43,2.21 -17.54,5.01 -24.36,8.42l0 189.48c6.41,3.61 14.58,6.47 24.51,8.57 9.92,2.1 21.31,3.16 34.14,3.16 15.64,0 28.97,-2.76 40.01,-8.27 11.03,-5.51 20.1,-13.08 27.22,-22.71 7.11,-9.63 12.28,-21.01 15.49,-34.14 3.21,-13.14 4.81,-27.42 4.81,-42.86zm-38.8 -0.76c0,28.32 -3.76,49.13 -11.28,62.36 -7.52,13.29 -20.2,19.9 -38.05,19.9 -4.01,0 -7.82,-0.3 -11.43,-0.9 -3.61,-0.6 -6.52,-1.3 -8.72,-2.11l0 -155.8c5.21,-2.01 11.73,-3.01 19.55,-3.01 17.45,0 30.13,6.47 38.05,19.45 7.92,12.94 11.88,32.99 11.88,60.11zm200.06 -101.21l-36.39 0 -37 85.72 -0.6 0 -35.49 -85.72 -40.6 0 55.64 117.6 0 89.33 38.2 0 0 -89.33 56.24 -117.6z"/>
   <path class="fil0" d="M1622.83 1648.97l-68.28 -206.93 -36.1 0 -68.57 206.93 34.29 0 16.54 -53.24 66.77 0 15.94 53.24 39.4 0zm-60.76 -75.5l-55.34 0 22.26 -72.78c2.41,-7.62 3.96,-13.69 4.66,-18.2 0.7,-4.51 1.05,-6.76 1.05,-6.76l0.6 0c0,0 0.35,2.25 1.05,6.76 0.7,4.51 2.16,10.58 4.36,18.2l21.35 72.78zm219.9 18.95c0,-7.41 -1.45,-14.13 -4.36,-20.15 -2.91,-6.01 -6.62,-11.23 -11.13,-15.64 -4.51,-4.41 -9.42,-8.02 -14.74,-10.83 -5.32,-2.81 -10.38,-4.71 -15.19,-5.71l0 -0.6c4.41,-1 8.87,-2.66 13.38,-4.96 4.51,-2.3 8.62,-5.42 12.33,-9.32 3.71,-3.91 6.77,-8.57 9.18,-13.99 2.4,-5.42 3.61,-11.63 3.61,-18.65 0,-7.62 -1.56,-14.69 -4.66,-21.21 -3.11,-6.51 -7.77,-12.18 -13.99,-16.99 -6.21,-4.81 -13.99,-8.57 -23.31,-11.28 -9.32,-2.71 -20.2,-4.06 -32.64,-4.06 -12.63,0 -24.01,1.11 -34.13,3.31 -10.13,2.21 -18.4,5.01 -24.82,8.42l0 189.48c7.02,3.81 15.69,6.72 26.02,8.72 10.33,2.01 22.11,3.01 35.34,3.01 11.83,0 22.61,-1.15 32.33,-3.46 9.73,-2.31 18.05,-5.92 24.97,-10.83 6.92,-4.91 12.28,-11.13 16.09,-18.65 3.81,-7.52 5.71,-16.39 5.71,-26.62zm-43.61 -97.45c0,6.21 -0.85,11.68 -2.56,16.39 -1.7,4.71 -4.46,8.62 -8.27,11.73 -3.81,3.11 -8.82,5.36 -15.04,6.76 -6.22,1.41 -13.94,2.01 -23.16,1.81l-11.73 -0.3 0 -67.07c3.41,-1.2 6.92,-2.1 10.53,-2.71 3.61,-0.6 7.72,-0.9 12.33,-0.9 25.27,0 37.9,11.43 37.9,34.29zm5.42 96.85c0,6.62 -1.05,12.28 -3.16,16.99 -2.11,4.72 -5.01,8.52 -8.72,11.43 -3.7,2.91 -8.12,5.01 -13.23,6.32 -5.11,1.3 -10.78,1.95 -16.99,1.95 -5.22,0 -9.68,-0.3 -13.39,-0.9 -3.71,-0.6 -7.27,-1.6 -10.68,-3l0 -74.29 11.73 -0.3c19.65,-0.4 33.64,2.86 41.96,9.77 8.32,6.92 12.48,17.6 12.48,32.03zm206.07 57.15l-61.66 -91.74 0 -0.6c8.22,-0.6 15.74,-2.31 22.56,-5.11 6.82,-2.81 12.63,-6.57 17.44,-11.28 4.81,-4.71 8.57,-10.33 11.28,-16.84 2.71,-6.52 4.06,-13.69 4.06,-21.51 0,-19.45 -6.27,-34.79 -18.8,-46.02 -12.53,-11.23 -31.73,-16.84 -57.6,-16.84 -12.03,0 -22.86,1.11 -32.49,3.31 -9.62,2.21 -17.65,5.01 -24.06,8.42l0 198.21 37.3 0 0 -93.84 0.6 0 58.95 93.84 42.41 0zm-43.61 -145.42c0,13.89 -3.61,24.66 -10.88,32.29 -7.27,7.67 -18.35,11.48 -33.23,11.48 -2.86,0 -5.62,-0.15 -8.32,-0.45 -2.76,-0.3 -4.71,-0.65 -5.92,-1.05l0 -81.51c2.2,-1 4.96,-1.85 8.17,-2.55 3.21,-0.71 6.87,-1.06 10.88,-1.06 14.08,0 24.16,3.51 30.23,10.58 6.06,7.02 9.07,17.8 9.07,32.28zm216.6 41.96c0,-14.63 -1.45,-28.42 -4.36,-41.35 -2.91,-12.94 -7.47,-24.21 -13.68,-33.83 -6.22,-9.63 -14.24,-17.25 -24.07,-22.86 -9.82,-5.61 -21.65,-8.42 -35.49,-8.42 -13.84,0 -25.72,2.81 -35.64,8.42 -9.93,5.62 -18,13.23 -24.21,22.86 -6.22,9.62 -10.78,20.9 -13.69,33.83 -2.91,12.94 -4.36,26.72 -4.36,41.35 0,14.84 1.46,28.73 4.36,41.66 2.91,12.94 7.47,24.21 13.69,33.84 6.21,9.62 14.28,17.19 24.21,22.71 9.92,5.51 21.8,8.27 35.64,8.27 13.84,0 25.67,-2.76 35.49,-8.27 9.82,-5.51 17.85,-13.08 24.07,-22.71 6.21,-9.63 10.78,-20.9 13.68,-33.84 2.91,-12.93 4.36,-26.81 4.36,-41.66zm-38.8 -1.2c0,9.62 -0.5,19.2 -1.5,28.72 -1.01,9.53 -2.91,18.05 -5.72,25.57 -2.81,7.52 -6.72,13.58 -11.73,18.19 -5.01,4.61 -11.63,6.92 -19.85,6.92 -8.22,0 -14.89,-2.3 -20,-6.92 -5.11,-4.61 -9.08,-10.68 -11.88,-18.19 -2.81,-7.52 -4.72,-16.04 -5.71,-25.57 -1,-9.52 -1.5,-19.1 -1.5,-28.72 0,-9.63 0.55,-19.25 1.65,-28.88 1.11,-9.62 3.11,-18.19 6.01,-25.71 2.91,-7.52 6.87,-13.64 11.89,-18.35 5.01,-4.71 11.53,-7.07 19.55,-7.07 8.02,0 14.54,2.36 19.55,7.07 5.01,4.72 8.92,10.83 11.73,18.35 2.81,7.52 4.76,16.09 5.87,25.71 1.1,9.62 1.65,19.25 1.65,28.88zm223.82 104.67l-68.28 -206.93 -36.09 0 -68.58 206.93 34.29 0 16.54 -53.24 66.77 0 15.94 53.24 39.4 0zm-60.76 -75.5l-55.34 0 22.26 -72.78c2.41,-7.62 3.96,-13.69 4.66,-18.2 0.7,-4.51 1.05,-6.76 1.05,-6.76l0.61 0c0,0 0.35,2.25 1.05,6.76 0.7,4.51 2.16,10.58 4.37,18.2l21.35 72.78zm225.62 -29.47c0,-15.44 -1.75,-29.63 -5.26,-42.56 -3.51,-12.94 -8.87,-24.01 -16.09,-33.24 -7.22,-9.22 -16.49,-16.39 -27.82,-21.51 -11.33,-5.11 -24.81,-7.67 -40.45,-7.67 -12.03,0 -22.76,1.11 -32.18,3.31 -9.43,2.21 -17.55,5.01 -24.36,8.42l0 189.48c6.41,3.61 14.59,6.47 24.51,8.57 9.92,2.1 21.3,3.16 34.14,3.16 15.64,0 28.97,-2.76 40,-8.27 11.03,-5.51 20.1,-13.08 27.22,-22.71 7.12,-9.63 12.28,-21.01 15.49,-34.14 3.21,-13.14 4.81,-27.42 4.81,-42.86zm-38.8 -0.76c0,28.32 -3.76,49.13 -11.28,62.36 -7.52,13.29 -20.2,19.9 -38.05,19.9 -4.01,0 -7.82,-0.3 -11.43,-0.9 -3.61,-0.6 -6.52,-1.3 -8.72,-2.11l0 -155.8c5.22,-2.01 11.73,-3.01 19.55,-3.01 17.44,0 30.13,6.47 38.05,19.45 7.92,12.94 11.88,32.99 11.88,60.11z"/>
  </g>
 </g>
</svg>
