<svg width="40" height="40" viewBox="0 0 40 40" fill="none" xmlns="http://www.w3.org/2000/svg">
<circle cx="20" cy="20" r="20" fill="white"/>
<path d="M22.019 24.0078L24.371 22.2438C24.6185 22.0582 24.9203 21.9808 25.2143 22.004C25.4851 22.0272 25.7481 22.151 25.957 22.3522C26.4289 22.8241 26.4289 23.59 25.957 24.062L24.4561 25.942C23.4193 27.2418 21.8488 28 20.1931 28H12M13.3538 24.0078C13.7871 24.0078 14.2049 23.8376 14.5143 23.5281L15.0327 23.0098C15.4118 22.6307 15.9302 22.4141 16.4717 22.4141H17.5781C17.8721 22.4141 18.1661 22.4837 18.4291 22.6152L19.1177 22.9634C19.4504 23.1258 19.814 23.2187 20.1854 23.2187H20.8198C21.4852 23.2187 22.019 23.7525 22.019 24.4179C22.019 25.0832 21.4852 25.6171 20.8198 25.6171H18.8237" stroke="#727271" stroke-width="1.5" stroke-miterlimit="10" stroke-linecap="square" stroke-linejoin="round"/>
<path d="M9.04395 21.5H30.957" stroke="#727271" stroke-width="1.5"/>
<path d="M20.001 12.8261C20.4665 12.8261 20.8438 12.4173 20.8438 11.913C20.8438 11.4088 20.4665 11 20.001 11C19.5355 11 19.1582 11.4088 19.1582 11.913C19.1582 12.4173 19.5355 12.8261 20.001 12.8261Z" stroke="#727271" stroke-width="1.5" stroke-miterlimit="10" stroke-linecap="round" stroke-linejoin="round"/>
<path d="M11.5723 21.5001C11.5723 18.6088 13.2579 12.8262 20.0004 12.8262C26.7428 12.8262 28.7094 18.6088 28.8499 21.5001" stroke="#727271" stroke-width="1.5"/>
</svg>
