<svg xmlns="http://www.w3.org/2000/svg" viewBox="0 0 19.84 19.84"><defs><style>.cls-1{fill:#727271;}</style></defs><title>Journalism &amp;amp; Media</title><g id="Layer_2" data-name="Layer 2"><g id="Layer_1-2" data-name="Layer 1"><path class="cls-1" d="M3.68,0H19.84V18l0,.05a2.07,2.07,0,0,1-2.17,1.77H2.18A2.09,2.09,0,0,1,0,17.67V5.06c0-.35.13-.49.49-.49H1.71V4.36c0-.59,0-1.18,0-1.78,0-.35.13-.49.49-.49H3.41c0-.53,0-1,0-1.56A.51.51,0,0,1,3.68,0ZM.78,5.36V17.63a1.2,1.2,0,0,0,0,.19,1.32,1.32,0,0,0,2.63-.09V12.6c0-.29.15-.46.38-.47a.4.4,0,0,1,.4.45c0,1.73,0,3.45,0,5.18a2.07,2.07,0,0,1-.35,1.15s-.05.09-.09.16H17.65a1.32,1.32,0,0,0,1.42-1.42V.79H4.19V9a.41.41,0,0,1-.4.42A.4.4,0,0,1,3.41,9V2.88H2.48V17.2c0,.36-.13.55-.39.55s-.38-.19-.38-.54V5.36Z"/><path class="cls-1" d="M11.61,6.12H5.8c-.41,0-.53-.12-.53-.53V3.05c0-.36.13-.49.49-.49H17.49c.36,0,.49.13.49.49V5.61c0,.39-.12.51-.51.51Zm5.58-.78v-2H6.06v2Z"/><path class="cls-1" d="M12,11.32V14.9c0,.4-.12.52-.51.52H5.79c-.4,0-.52-.12-.52-.52V7.73c0-.4.12-.52.52-.52H11.5c.39,0,.51.12.51.52Zm-.78,3.32V8H6.06v6.64Z"/><path class="cls-1" d="M11.63,17.28h-6a.39.39,0,0,1-.36-.39.4.4,0,0,1,.35-.38h12a.39.39,0,0,1,.35.39.38.38,0,0,1-.35.38h-6Z"/><path class="cls-1" d="M15.56,7.21h2c.29,0,.46.14.47.38S17.8,8,17.51,8H13.57c-.29,0-.48-.15-.47-.39s.18-.38.47-.38Z"/><path class="cls-1" d="M15.53,9.84h-2a.39.39,0,0,1-.42-.37.4.4,0,0,1,.32-.4h4.1c.28,0,.46.15.46.39s-.18.38-.46.38Z"/><path class="cls-1" d="M15.54,10.93h2c.28,0,.46.15.46.38s-.18.39-.47.39H13.57c-.29,0-.46-.14-.47-.38s.18-.39.47-.39Z"/><path class="cls-1" d="M15.56,12.79h2c.28,0,.46.15.46.38s-.18.39-.47.39H13.57c-.29,0-.46-.14-.47-.38s.18-.39.47-.39Z"/><path class="cls-1" d="M15.53,15.42h-2a.38.38,0,0,1-.37-.56.51.51,0,0,1,.35-.2c1.36,0,2.72,0,4.08,0A.38.38,0,0,1,18,15a.39.39,0,0,1-.41.39Z"/><path class="cls-1" d="M3.81,11.16a.37.37,0,0,1-.37-.39.37.37,0,0,1,.37-.38.37.37,0,0,1,.39.39A.4.4,0,0,1,3.81,11.16Z"/></g></g></svg>