<svg width="12" height="12" viewBox="0 0 12 12" fill="none" xmlns="http://www.w3.org/2000/svg">
<path d="M10.25 5.09091C10.25 7.79011 7.1915 10.1622 6.26367 10.8197C6.10416 10.9327 5.89584 10.9327 5.73633 10.8197C4.8085 10.1622 1.75 7.79011 1.75 5.09091C1.75 4.00593 2.19777 2.96539 2.9948 2.1982C3.79183 1.43101 4.87283 1 6 1C7.12717 1 8.20817 1.43101 9.0052 2.1982C9.80223 2.96539 10.25 4.00593 10.25 5.09091Z" fill="#727271" stroke="#727271" stroke-linecap="square"/>
<path d="M6 6.5C6.82843 6.5 7.5 5.82843 7.5 5C7.5 4.17157 6.82843 3.5 6 3.5C5.17157 3.5 4.5 4.17157 4.5 5C4.5 5.82843 5.17157 6.5 6 6.5Z" fill="white" stroke="white" stroke-linecap="square"/>
</svg>
