<svg xmlns="http://www.w3.org/2000/svg" viewBox="0 0 20.71 20.71"><defs><style>.cls-1{fill:#727271;}</style></defs><title>Marine Sciences</title><g id="Layer_2" data-name="Layer 2"><g id="Layer_1-2" data-name="Layer 1"><path class="cls-1" d="M0,11.61c.27-.36.44-.39.83-.13a1.6,1.6,0,0,0,2.06-.26l0-.06a.6.6,0,0,1,1,0,1.58,1.58,0,0,0,1.79.48.69.69,0,0,0,.41-.36L8.85,5.66a.64.64,0,0,0,0-.09c-.4-.12-.47-.43-.45-.8,0-.12,0-.25,0-.38a.59.59,0,0,1,.63-.62h1c0-.38,0-.75,0-1.12,0,0-.11-.1-.17-.13a1.29,1.29,0,0,1-.81-1.37,1.29,1.29,0,0,1,1-1.12A1.32,1.32,0,0,1,11.6.91a1.3,1.3,0,0,1-.74,1.6.26.26,0,0,0-.21.3c0,.31,0,.62,0,1,.33,0,.64,0,.95,0a.85.85,0,0,1,.47.15,1.36,1.36,0,0,1,0,1.5,2,2,0,0,1-.26.16s.05.12.08.18c.85,1.75,1.69,3.51,2.54,5.26.1.2.15.44.4.56a1.61,1.61,0,0,0,1.91-.41.6.6,0,0,1,1,0,1.58,1.58,0,0,0,2.15.27.47.47,0,0,1,.54-.07.48.48,0,0,1,.24.48q0,3.87,0,7.76a1,1,0,0,1-.65,1.1H11c-.14-.1-.25-.22-.18-.41s.22-.2.39-.2h8.54c.34,0,.39-.05.39-.4V17.83a2.25,2.25,0,0,1-2.84-.54,2.22,2.22,0,0,1-3.45,0,2.22,2.22,0,0,1-3.46,0,2.22,2.22,0,0,1-3.46,0,2.18,2.18,0,0,1-1.72.83,2.21,2.21,0,0,1-1.73-.82,2.26,2.26,0,0,1-2.83.54v1.85c0,.37,0,.42.41.42H9.53c.17,0,.33,0,.4.2s0,.31-.18.41H.65A1.1,1.1,0,0,1,0,20.06Zm10.34,2.8a2.17,2.17,0,0,1-1.72.82,2.22,2.22,0,0,1-1.73-.83,2.22,2.22,0,0,1-3.45,0A2.26,2.26,0,0,1,.62,15a.31.31,0,0,0,0,.09c0,.63,0,1.26,0,1.9a.36.36,0,0,0,.13.22A1.6,1.6,0,0,0,2.9,17c.38-.43.69-.43,1.07,0a1.53,1.53,0,0,0,1.42.52,1.6,1.6,0,0,0,1-.57.59.59,0,0,1,1,0,1.72,1.72,0,0,0,.27.27,1.59,1.59,0,0,0,2.2-.26.58.58,0,0,1,1,0,1.6,1.6,0,0,0,2.53,0,.58.58,0,0,1,.94,0,1.58,1.58,0,0,0,2.52,0,.59.59,0,0,1,.52-.22.68.68,0,0,1,.47.28,1.58,1.58,0,0,0,2.17.24.32.32,0,0,0,.14-.28c0-.53,0-1,0-1.58V15a2.26,2.26,0,0,1-2.83-.53,2.25,2.25,0,0,1-3.46,0A2.25,2.25,0,0,1,10.34,14.41Zm4.1-1.85c-.21-1.69-2.4-3.23-4.37-3.09a4.23,4.23,0,0,0-2.9,1.42,3.92,3.92,0,0,0-.92,1.67Zm.73,2a1.58,1.58,0,0,0,1.58-.52.59.59,0,0,1,.65-.26,1,1,0,0,1,.4.29A1.62,1.62,0,0,0,20,14.3.3.3,0,0,0,20.1,14c0-.55,0-1.1,0-1.64v-.3a2.29,2.29,0,0,1-2.84-.55A2.26,2.26,0,0,1,15,12.3,5.16,5.16,0,0,1,15.17,14.58ZM5.68,12.3a2.27,2.27,0,0,1-2.24-.77,2.27,2.27,0,0,1-2.83.55v.2c0,.6,0,1.2,0,1.8a.34.34,0,0,0,.13.21,1.6,1.6,0,0,0,2.17-.21,1.17,1.17,0,0,1,.44-.29c.25-.07.44.08.61.27a1.58,1.58,0,0,0,1.58.52A4.9,4.9,0,0,1,5.68,12.3Zm8.93.89H6.1v1.09l.05,0L6.43,14a.57.57,0,0,1,.92,0A1.62,1.62,0,0,0,9.9,14a.56.56,0,0,1,.91,0,1.61,1.61,0,0,0,2.54,0,.58.58,0,0,1,.93,0l.28.3,0,0ZM10,5.6c-.44-.08-.46-.07-.64.31-.58,1.2-1.16,2.4-1.73,3.6,0,.05,0,.11-.1.22A5.11,5.11,0,0,1,10,8.86ZM13.1,9.71s0-.05,0-.06l-1.91-4a.19.19,0,0,0-.12-.09h-.4V8.86A5.07,5.07,0,0,1,13.1,9.71ZM11.67,4.39H9V5h2.63ZM10.34.61a.68.68,0,0,0-.68.72.69.69,0,0,0,.7.68.7.7,0,1,0,0-1.4Z"/><path class="cls-1" d="M0,2.43a2.92,2.92,0,0,1,.25-.5,1.17,1.17,0,0,1,1.1-.47.2.2,0,0,0,.22-.11A1.16,1.16,0,0,1,2.77.74.22.22,0,0,0,3,.63a1.19,1.19,0,0,1,2.1,0,.2.2,0,0,0,.22.12,1.17,1.17,0,0,1,1.21.62c.06.11.13.1.23.1a1.19,1.19,0,0,1,1.31,1,1.21,1.21,0,0,1-1,1.39,2.83,2.83,0,0,1-.41,0H1.5a1.3,1.3,0,0,1-1.5-1Zm4,.83H6.14c.26,0,.52,0,.78,0a.6.6,0,0,0,.55-.69.62.62,0,0,0-.78-.48c-.36.09-.52,0-.67-.35a.59.59,0,0,0-.71-.38c-.43.1-.53,0-.71-.36A.6.6,0,0,0,3.48,1c-.16.39-.29.46-.69.36a.62.62,0,0,0-.72.35c-.19.43-.26.46-.73.37a.6.6,0,1,0-.23,1.17,1.27,1.27,0,0,0,.28,0Z"/><path class="cls-1" d="M19,8.21h-.75c-.22,0-.35-.12-.35-.3s.13-.3.35-.3h1.34a.85.85,0,0,0,.16,0,.41.41,0,1,0-.11-.81c-.43.07-.47,0-.66-.33a.41.41,0,0,0-.5-.23c-.34.07-.47,0-.6-.31a.39.39,0,0,0-.38-.28.4.4,0,0,0-.4.29.42.42,0,0,1-.58.3.43.43,0,0,0-.55.29.42.42,0,0,1-.56.29.4.4,0,0,0-.47.13.36.36,0,0,0-.06.41.44.44,0,0,0,.43.25h1.39c.24,0,.38.11.38.3s-.13.31-.38.31H15.27a1,1,0,1,1,0-2,.24.24,0,0,0,.18-.1,1.08,1.08,0,0,1,.93-.47.26.26,0,0,0,.19-.09,1,1,0,0,1,1.73,0,.2.2,0,0,0,.17.09,1.08,1.08,0,0,1,1,.48.24.24,0,0,0,.18.09,1,1,0,1,1,0,2Z"/></g></g></svg>