<svg width="40" height="40" viewBox="0 0 40 40" fill="none" xmlns="http://www.w3.org/2000/svg">
<circle cx="20" cy="20" r="20" fill="white"/>
<path d="M14.9738 27.8965L27.8133 13.8403C28.0035 13.6368 28.1517 13.3978 28.2495 13.1369C28.3473 12.8761 28.3928 12.5986 28.3834 12.3201C28.3739 12.0417 28.3097 11.7679 28.1944 11.5143C28.0792 11.2607 27.9151 11.0323 27.7115 10.8421C27.508 10.6519 27.269 10.5037 27.0081 10.4058C26.7473 10.308 26.4697 10.2625 26.1913 10.272C25.629 10.2911 25.0974 10.5327 24.7132 10.9438L11.8737 25M14.9738 27.8965L9.63656 30.5352L11.8737 25M14.9738 27.8965L11.8737 25" stroke="#727271" stroke-width="1.5" stroke-linecap="square" stroke-linejoin="round"/>
<rect x="9.25586" y="14.4424" width="7.27054" height="22.7204" transform="rotate(-45.4631 9.25586 14.4424)" fill="white" stroke="#727271" stroke-width="1.5"/>
<path d="M15.3633 14.7144L17.5942 12.447" stroke="#727271" stroke-width="1.5"/>
<path d="M18.6016 17.9016L20.8325 15.6343" stroke="#727271" stroke-width="1.5"/>
<path d="M21.8398 21.0886L24.0708 18.8213" stroke="#727271" stroke-width="1.5"/>
<path d="M25.0801 24.2756L27.311 22.0083" stroke="#727271" stroke-width="1.5"/>
</svg>
