<svg width="40" height="40" viewBox="0 0 40 40" fill="none" xmlns="http://www.w3.org/2000/svg">
<circle cx="20" cy="20" r="20" fill="white"/>
<path d="M20.7469 15.25L21.1102 14.5939H21.1102L20.7469 15.25ZM20.7469 24.375L20.4381 23.6915L20.7469 24.375ZM14.295 9.25589C14.5588 9.98263 14.8144 11.0095 15.6491 12.1465C16.4874 13.2884 17.8787 14.5193 20.3836 15.9061L21.1102 14.5939C18.7211 13.2711 17.5263 12.1687 16.8583 11.2588C16.1867 10.344 16.0159 9.60071 15.705 8.74411L14.295 9.25589ZM20.3836 15.9061C21.9185 16.7559 22.9298 17.5675 23.5321 18.3088C24.1263 19.0404 24.2967 19.6677 24.2395 20.2013C24.1808 20.7481 23.8682 21.3362 23.2218 21.9471C22.5754 22.5582 21.6377 23.1496 20.4381 23.6915L21.0556 25.0585C22.3464 24.4754 23.444 23.8012 24.2522 23.0372C25.0606 22.2732 25.622 21.3769 25.7309 20.3612C25.8413 19.3323 25.4729 18.319 24.6963 17.363C23.9277 16.4169 22.7361 15.4941 21.1102 14.5939L20.3836 15.9061ZM20.4381 23.6915C15.8255 25.7753 14.25 28.7487 14.25 31H15.75C15.75 29.5013 16.8138 26.9747 21.0556 25.0585L20.4381 23.6915Z" fill="#727271"/>
<path d="M19.2531 15.25L18.8898 14.5939L19.2531 15.25ZM19.2531 24.375L19.5619 23.6915L19.2531 24.375ZM25.705 9.25589C25.4412 9.98263 25.1856 11.0095 24.3509 12.1465C23.5126 13.2884 22.1213 14.5193 19.6164 15.9061L18.8898 14.5939C21.2789 13.2711 22.4737 12.1687 23.1417 11.2588C23.8133 10.344 23.9841 9.60071 24.295 8.74411L25.705 9.25589ZM19.6164 15.9061C18.0815 16.7559 17.0702 17.5675 16.4679 18.3088C15.8737 19.0404 15.7033 19.6677 15.7605 20.2013C15.8192 20.7481 16.1318 21.3362 16.7782 21.9471C17.4246 22.5582 18.3623 23.1496 19.5619 23.6915L18.9444 25.0585C17.6536 24.4754 16.556 23.8012 15.7478 23.0372C14.9394 22.2732 14.378 21.3769 14.2691 20.3612C14.1587 19.3323 14.5271 18.319 15.3037 17.363C16.0723 16.4169 17.2639 15.4941 18.8898 14.5939L19.6164 15.9061ZM19.5619 23.6915C21.6034 24.6137 23.1374 25.8742 24.1673 27.1751C25.1845 28.46 25.75 29.8386 25.75 31H24.25C24.25 30.2864 23.8789 29.2275 22.9912 28.1062C22.1161 27.0008 20.7767 25.8863 18.9444 25.0585L19.5619 23.6915Z" fill="#727271"/>
<path d="M15 18.5652H25" stroke="#727271" stroke-width="1.5"/>
<path d="M16.1113 11.8696L23.8891 11.8696" stroke="#727271" stroke-width="1.5"/>
<path d="M16.1113 28.1304L23.8891 28.1304" stroke="#727271" stroke-width="1.5"/>
<path d="M15 21.4348H25" stroke="#727271" stroke-width="1.5"/>
</svg>
