<svg xmlns="http://www.w3.org/2000/svg" viewBox="0 0 19.2 19.19"><defs><style>.cls-1{fill:#727271;}</style></defs><title>Social Sciences</title><g id="Layer_2" data-name="Layer 2"><g id="Layer_1-2" data-name="Layer 1"><path class="cls-1" d="M13.33,16.73h5.86v.6H0v-.6H2.77v-6.2H3.4V5.58h6.81v.61H11A2.2,2.2,0,0,1,13.3,8.08L13.44,8a2.16,2.16,0,0,1,1.44-.54H16.4a2.21,2.21,0,0,1-.48,1.68,2.12,2.12,0,0,1-1.63.8h-1v1.24l.08-.05A2.14,2.14,0,0,1,15,10.53h1.44a2.17,2.17,0,0,1-2,2.47h-1Zm-3.74,0V6.2H4v4.33H8.36v6.18ZM3.42,11.16v5.55H7.73V11.16Zm9.26,5.56v-5a2.87,2.87,0,0,1-2.45-.65v5.61Zm0-8.06A2.9,2.9,0,0,1,10.23,8V9.3A2.9,2.9,0,0,1,12.7,10V8.66ZM10.26,6.79A1.48,1.48,0,0,0,11.44,8a12.09,12.09,0,0,0,1.21.07,1.46,1.46,0,0,0-1.16-1.21C11.09,6.8,10.68,6.81,10.26,6.79Zm3.1,2.5c.35,0,.68,0,1,0a1.5,1.5,0,0,0,1.38-1.22c-.34,0-.68,0-1,0A1.51,1.51,0,0,0,13.36,9.29Zm-.71,1.87A1.44,1.44,0,0,0,11.53,10a8.84,8.84,0,0,0-1.27-.08,1.48,1.48,0,0,0,1.18,1.21A9.61,9.61,0,0,0,12.65,11.16Zm3.12,0c-.37,0-.71,0-1,0a1.51,1.51,0,0,0-1.36,1.24,8.24,8.24,0,0,0,1.23-.06A1.52,1.52,0,0,0,15.77,11.15Z"/><path class="cls-1" d="M4.5,5.25l-.71-.76A7.07,7.07,0,0,0,2.6,6.28a7.76,7.76,0,0,0-.5,5.28,7.09,7.09,0,0,1,.09.82H.39A9.72,9.72,0,0,1,2.44,3.17l-.61-.54,3.55-.89ZM3.3,3.18l-.14.15c-.38.49-.8,1-1.14,1.46A8.75,8.75,0,0,0,.62,9.16a8.86,8.86,0,0,0,.23,2.46c0,.06.07.14.11.14a4.87,4.87,0,0,0,.54,0A8.49,8.49,0,0,1,3.77,3.58l.39.49.36-1.48L3.09,3l.11.12Z"/><path class="cls-1" d="M16.73,15.12l.61.53-3.52.88.86-3.45.73.74c.25-.34.47-.6.66-.89a7.73,7.73,0,0,0,1-6.21,1.26,1.26,0,0,1-.05-.28c0-.18,0-.36,0-.55h1.77A9.7,9.7,0,0,1,16.73,15.12Zm.95-8.61a8.4,8.4,0,0,1-2.26,8.17L15,14.2l-.37,1.48,1.44-.36-.21-.23a9,9,0,0,0,2.4-8.58Z"/><path class="cls-1" d="M14,4.5l.75-.71a7.39,7.39,0,0,0-1.77-1.18,7.76,7.76,0,0,0-5.3-.51,1,1,0,0,1-.24,0c-.19,0-.38,0-.58,0V.39A9.68,9.68,0,0,1,16,2.45l.26-.29.28-.32.89,3.54Zm1.21-.39,0,.06,1.41.35-.36-1.43L16,3.3l-.11-.1c-.52-.4-1-.85-1.55-1.21A8.6,8.6,0,0,0,10.25.64,8.88,8.88,0,0,0,7.58.85c-.06,0-.14.08-.14.13a4.47,4.47,0,0,0,0,.52,8.48,8.48,0,0,1,8.16,2.24Z"/><path class="cls-1" d="M0,19.19v-.6H19.19v.6Z"/><path class="cls-1" d="M6.49,8.66H5.9v-.6h.59Z"/><path class="cls-1" d="M9,8.66h-.6v-.6H9Z"/><path class="cls-1" d="M5.25,9.9H4.66V9.3h.59Z"/><path class="cls-1" d="M7.14,8.05h.59v.61H7.14Z"/><path class="cls-1" d="M7.73,9.3v.59h-.6V9.3Z"/><path class="cls-1" d="M9,9.3v.6h-.6V9.3Z"/><path class="cls-1" d="M4.65,6.82h.6v.6h-.6Z"/><path class="cls-1" d="M6.49,6.83v.59h-.6V6.83Z"/><path class="cls-1" d="M5.89,9.3h.6v.6h-.6Z"/><path class="cls-1" d="M7.13,7.42v-.6h.6v.6Z"/><path class="cls-1" d="M8.37,7.42v-.6H9v.6Z"/><path class="cls-1" d="M4.65,8.66v-.6h.6v.6Z"/><path class="cls-1" d="M4.63,12.38H4v-.6h.59Z"/><path class="cls-1" d="M5.87,11.78v.59h-.6v-.59Z"/><path class="cls-1" d="M4.63,13.62H4V13h.59Z"/><path class="cls-1" d="M5.87,13.62H5.28V13h.59Z"/><path class="cls-1" d="M7.11,13.62h-.6V13h.6Z"/><path class="cls-1" d="M4,14.25h.59v.6H4Z"/><path class="cls-1" d="M6.51,12.38v-.6h.6v.6Z"/><path class="cls-1" d="M6.52,14.25h.59v.6H6.52Z"/><path class="cls-1" d="M4.63,16.1H4v-.6h.6Z"/><path class="cls-1" d="M5.28,15.49h.59v.6H5.28Z"/><path class="cls-1" d="M7.11,16.1h-.6v-.6h.6Z"/><path class="cls-1" d="M5.87,14.86h-.6v-.6h.6Z"/></g></g></svg>