<svg width="10" height="10" viewBox="0 0 10 10" fill="none" xmlns="http://www.w3.org/2000/svg">
<path d="M9.7 8.2H8.8V7.3C8.8 7.13441 8.6656 7 8.5 7C8.3344 7 8.2 7.13441 8.2 7.3V8.2H7.30001C7.1344 8.2 7 8.3344 7 8.5C7 8.66561 7.1344 8.8 7.30001 8.8H8.2V9.7C8.2 9.8656 8.3344 10 8.5 10C8.6656 10 8.8 9.8656 8.8 9.7V8.8H9.7C9.8656 8.8 10 8.66561 10 8.5C10 8.3344 9.8656 8.2 9.7 8.2Z" fill="#008E35"/>
<path d="M0.625664 8.73804C0.625664 8.48953 0.812238 8.41169 0.886618 8.37731L3.63148 7.08159C3.82836 6.99125 3.964 6.80494 3.99056 6.58987C4.01713 6.37481 3.93025 6.16161 3.76149 6.02626C3.11207 5.50485 2.80955 4.35886 2.80955 3.74836V2.18631C2.80955 1.53298 3.9465 0.624883 4.99844 0.624883C6.05975 0.624883 7.18514 1.51922 7.18514 2.18631V3.74867C7.18514 4.35011 6.93512 5.50047 6.26477 6.02813C6.09382 6.16255 6.00506 6.37668 6.03069 6.593C6.05632 6.80932 6.19258 6.99656 6.3904 7.08753L7.32702 7.53204L7.48141 6.9081L6.65104 6.51954C7.51703 5.83807 7.80986 4.49922 7.80986 3.74867V2.18662C7.80986 1.15192 6.3779 0 4.99781 0C3.61773 0 2.18389 1.15224 2.18389 2.18662V3.74867C2.18389 4.43139 2.49547 5.81244 3.36927 6.51391L0.624414 7.80963C0.624414 7.80963 0 8.08784 0 8.43451V9.37262C0 9.71804 0.279705 9.9975 0.624414 9.9975H7.49891V9.3723L0.624727 9.37262L0.625664 8.73804Z" fill="#2B2A29"/>
</svg>