<svg width="34" height="28" viewBox="0 0 34 28" fill="none" xmlns="http://www.w3.org/2000/svg">
<path d="M11.0956 13.0941C12.4165 13.698 13.4468 14.6039 14.1865 15.8118C14.9262 17.0196 15.296 18.4471 15.296 20.0941C15.296 22.4549 14.5828 24.3765 13.1562 25.8588C11.7296 27.2863 9.90676 28 7.68765 28C5.46853 28 3.61927 27.2588 2.13986 25.7765C0.713286 24.2941 0 22.4 0 20.0941C0 18.9961 0.13209 17.898 0.39627 16.8C0.660451 15.702 1.24165 14.0549 2.13986 11.8588L6.7366 0H14.5828L11.0956 13.0941ZM29.7995 13.0941C31.1204 13.698 32.1507 14.6039 32.8904 15.8118C33.6301 17.0196 34 18.4471 34 20.0941C34 22.4549 33.2867 24.3765 31.8601 25.8588C30.4336 27.2863 28.6107 28 26.3916 28C24.1725 28 22.3232 27.2588 20.8438 25.7765C19.4172 24.2941 18.704 22.4 18.704 20.0941C18.704 18.9961 18.8361 17.898 19.1002 16.8C19.3644 15.702 19.9456 14.0549 20.8438 11.8588L25.4406 0H33.2867L29.7995 13.0941Z" fill="#DF252A"/>
</svg>
