<svg width="154" height="50" viewBox="0 0 154 50" fill="none" xmlns="http://www.w3.org/2000/svg">
<path fill-rule="evenodd" clip-rule="evenodd" d="M30.6879 23.6153C31.0078 23.4112 31.2 23.0678 31.2 22.7V18.3C31.2 16.4775 29.6553 15 27.75 15H23.15C22.5149 15 22 15.4925 22 16.1C22 27.0352 32.4177 37 43.8499 37C44.485 37 44.9999 36.5075 44.9999 35.9V31.5C44.9999 29.6775 43.4553 28.2 41.5499 28.2H36.9499C36.5654 28.2 36.2064 28.3838 35.9931 28.6898L33.8019 31.8337C31.4155 30.3576 29.3246 28.4081 27.7163 26.1639L27.4012 25.7111L30.6879 23.6153ZM37.5654 30.4H41.5499C42.185 30.4 42.6999 30.8925 42.6999 31.5V34.7619C40.4721 34.6144 38.2979 34.0445 36.27 33.1407L35.8046 32.9263L37.5654 30.4ZM27.75 17.2C28.3851 17.2 28.9 17.6925 28.9 18.3V22.1113L26.2589 23.7955C25.1841 21.7303 24.5059 19.4949 24.3399 17.2H27.75ZM33.5316 19.657L33.5177 19.5924L33.5021 19.4651V19.3351L33.5176 19.208L33.5574 19.0561L33.5942 18.9636L33.668 18.8274L33.7145 18.7601L33.7492 18.7163L33.8369 18.6223L37.2869 15.3222L37.3952 15.2307C37.8087 14.9231 38.3913 14.9231 38.8049 15.2307L38.9132 15.3222L39.0089 15.4258C39.3304 15.8214 39.3304 16.3787 39.0089 16.7742L38.9132 16.8779L37.4273 18.3002L43.85 18.3001C44.4398 18.3001 44.9258 18.7247 44.9923 19.2718L45 19.4001L44.9923 19.5284C44.9309 20.0334 44.5121 20.4341 43.9841 20.4927L43.85 20.5001L37.4273 20.5002L38.9132 21.9224L39.0089 22.026C39.3596 22.4575 39.3278 23.0815 38.9132 23.478C38.4987 23.8746 37.8463 23.9051 37.3952 23.5695L37.2869 23.478L33.8369 20.178L33.7258 20.0548L33.6437 19.9328L33.6078 19.8657L33.5573 19.7435L33.5316 19.657Z" fill="#505050"/>
<rect x="1" y="1" width="152" height="48" rx="24" stroke="#E31003" stroke-width="2"/>
<path d="M56.518 34.114C56.518 33.162 56.7373 32.308 57.176 31.552C57.624 30.796 58.226 30.208 58.982 29.788C59.7473 29.3587 60.5827 29.144 61.488 29.144C62.524 29.144 63.4433 29.4007 64.246 29.914C65.058 30.418 65.646 31.1367 66.01 32.07H64.092C63.84 31.5567 63.49 31.174 63.042 30.922C62.594 30.67 62.076 30.544 61.488 30.544C60.844 30.544 60.27 30.6887 59.766 30.978C59.262 31.2673 58.8653 31.6827 58.576 32.224C58.296 32.7653 58.156 33.3953 58.156 34.114C58.156 34.8327 58.296 35.4627 58.576 36.004C58.8653 36.5453 59.262 36.9653 59.766 37.264C60.27 37.5533 60.844 37.698 61.488 37.698C62.076 37.698 62.594 37.572 63.042 37.32C63.49 37.068 63.84 36.6853 64.092 36.172H66.01C65.646 37.1053 65.058 37.824 64.246 38.328C63.4433 38.832 62.524 39.084 61.488 39.084C60.5733 39.084 59.738 38.874 58.982 38.454C58.226 38.0247 57.624 37.432 57.176 36.676C56.7373 35.92 56.518 35.066 56.518 34.114ZM67.4461 35.108C67.4461 34.3333 67.6048 33.6473 67.9221 33.05C68.2488 32.4527 68.6875 31.9907 69.2381 31.664C69.7981 31.328 70.4141 31.16 71.0861 31.16C71.6928 31.16 72.2201 31.2813 72.6681 31.524C73.1255 31.7573 73.4895 32.0513 73.7601 32.406V31.286H75.3701V39H73.7601V37.852C73.4895 38.216 73.1208 38.5193 72.6541 38.762C72.1875 39.0047 71.6555 39.126 71.0581 39.126C70.3955 39.126 69.7888 38.958 69.2381 38.622C68.6875 38.2767 68.2488 37.8007 67.9221 37.194C67.6048 36.578 67.4461 35.8827 67.4461 35.108ZM73.7601 35.136C73.7601 34.604 73.6481 34.142 73.4241 33.75C73.2095 33.358 72.9248 33.0593 72.5701 32.854C72.2155 32.6487 71.8328 32.546 71.4221 32.546C71.0115 32.546 70.6288 32.6487 70.2741 32.854C69.9195 33.05 69.6301 33.344 69.4061 33.736C69.1915 34.1187 69.0841 34.576 69.0841 35.108C69.0841 35.64 69.1915 36.1067 69.4061 36.508C69.6301 36.9093 69.9195 37.2173 70.2741 37.432C70.6381 37.6373 71.0208 37.74 71.4221 37.74C71.8328 37.74 72.2155 37.6373 72.5701 37.432C72.9248 37.2267 73.2095 36.928 73.4241 36.536C73.6481 36.1347 73.7601 35.668 73.7601 35.136ZM79.1624 28.64V39H77.5664V28.64H79.1624ZM82.9538 28.64V39H81.3578V28.64H82.9538ZM86.7452 32.434C87.0159 32.0607 87.3846 31.7573 87.8512 31.524C88.3272 31.2813 88.8546 31.16 89.4332 31.16C90.1146 31.16 90.7306 31.3233 91.2812 31.65C91.8319 31.9767 92.2659 32.4433 92.5832 33.05C92.9006 33.6473 93.0592 34.3333 93.0592 35.108C93.0592 35.8827 92.9006 36.578 92.5832 37.194C92.2659 37.8007 91.8272 38.2767 91.2672 38.622C90.7166 38.958 90.1052 39.126 89.4332 39.126C88.8359 39.126 88.3039 39.0093 87.8372 38.776C87.3799 38.5427 87.0159 38.244 86.7452 37.88V39H85.1492V28.64H86.7452V32.434ZM91.4352 35.108C91.4352 34.576 91.3232 34.1187 91.0992 33.736C90.8846 33.344 90.5952 33.05 90.2312 32.854C89.8766 32.6487 89.4939 32.546 89.0832 32.546C88.6819 32.546 88.2992 32.6487 87.9352 32.854C87.5806 33.0593 87.2912 33.358 87.0672 33.75C86.8526 34.142 86.7452 34.604 86.7452 35.136C86.7452 35.668 86.8526 36.1347 87.0672 36.536C87.2912 36.928 87.5806 37.2267 87.9352 37.432C88.2992 37.6373 88.6819 37.74 89.0832 37.74C89.4939 37.74 89.8766 37.6373 90.2312 37.432C90.5952 37.2173 90.8846 36.9093 91.0992 36.508C91.3232 36.1067 91.4352 35.64 91.4352 35.108ZM94.2055 35.108C94.2055 34.3333 94.3642 33.6473 94.6815 33.05C95.0082 32.4527 95.4468 31.9907 95.9975 31.664C96.5575 31.328 97.1735 31.16 97.8455 31.16C98.4522 31.16 98.9795 31.2813 99.4275 31.524C99.8848 31.7573 100.249 32.0513 100.52 32.406V31.286H102.13V39H100.52V37.852C100.249 38.216 99.8802 38.5193 99.4135 38.762C98.9468 39.0047 98.4148 39.126 97.8175 39.126C97.1548 39.126 96.5482 38.958 95.9975 38.622C95.4468 38.2767 95.0082 37.8007 94.6815 37.194C94.3642 36.578 94.2055 35.8827 94.2055 35.108ZM100.52 35.136C100.52 34.604 100.408 34.142 100.184 33.75C99.9688 33.358 99.6842 33.0593 99.3295 32.854C98.9748 32.6487 98.5922 32.546 98.1815 32.546C97.7708 32.546 97.3882 32.6487 97.0335 32.854C96.6788 33.05 96.3895 33.344 96.1655 33.736C95.9508 34.1187 95.8435 34.576 95.8435 35.108C95.8435 35.64 95.9508 36.1067 96.1655 36.508C96.3895 36.9093 96.6788 37.2173 97.0335 37.432C97.3975 37.6373 97.7802 37.74 98.1815 37.74C98.5922 37.74 98.9748 37.6373 99.3295 37.432C99.6842 37.2267 99.9688 36.928 100.184 36.536C100.408 36.1347 100.52 35.668 100.52 35.136ZM103.794 35.136C103.794 34.3427 103.952 33.6473 104.27 33.05C104.596 32.4433 105.044 31.9767 105.614 31.65C106.183 31.3233 106.836 31.16 107.574 31.16C108.507 31.16 109.277 31.384 109.884 31.832C110.5 32.2707 110.915 32.9007 111.13 33.722H109.408C109.268 33.3393 109.044 33.0407 108.736 32.826C108.428 32.6113 108.04 32.504 107.574 32.504C106.92 32.504 106.398 32.7373 106.006 33.204C105.623 33.6613 105.432 34.3053 105.432 35.136C105.432 35.9667 105.623 36.6153 106.006 37.082C106.398 37.5487 106.92 37.782 107.574 37.782C108.498 37.782 109.109 37.376 109.408 36.564H111.13C110.906 37.348 110.486 37.9733 109.87 38.44C109.254 38.8973 108.488 39.126 107.574 39.126C106.836 39.126 106.183 38.9627 105.614 38.636C105.044 38.3 104.596 37.8333 104.27 37.236C103.952 36.6293 103.794 35.9293 103.794 35.136ZM115.872 35.15L119.428 39H117.272L114.416 35.682V39H112.82V28.64H114.416V34.66L117.216 31.286H119.428L115.872 35.15Z" fill="#333333"/>
<path d="M61.328 21L59.336 17.58H58.016V21H56.924V12.636H59.624C60.256 12.636 60.788 12.744 61.22 12.96C61.66 13.176 61.988 13.468 62.204 13.836C62.42 14.204 62.528 14.624 62.528 15.096C62.528 15.672 62.36 16.18 62.024 16.62C61.696 17.06 61.2 17.352 60.536 17.496L62.636 21H61.328ZM58.016 16.704H59.624C60.216 16.704 60.66 16.56 60.956 16.272C61.252 15.976 61.4 15.584 61.4 15.096C61.4 14.6 61.252 14.216 60.956 13.944C60.668 13.672 60.224 13.536 59.624 13.536H58.016V16.704ZM70.3248 17.46C70.3248 17.668 70.3128 17.888 70.2888 18.12H65.0328C65.0728 18.768 65.2928 19.276 65.6928 19.644C66.1008 20.004 66.5928 20.184 67.1688 20.184C67.6408 20.184 68.0328 20.076 68.3448 19.86C68.6648 19.636 68.8888 19.34 69.0168 18.972H70.1928C70.0168 19.604 69.6648 20.12 69.1368 20.52C68.6088 20.912 67.9528 21.108 67.1688 21.108C66.5448 21.108 65.9848 20.968 65.4888 20.688C65.0008 20.408 64.6168 20.012 64.3368 19.5C64.0568 18.98 63.9168 18.38 63.9168 17.7C63.9168 17.02 64.0528 16.424 64.3248 15.912C64.5968 15.4 64.9768 15.008 65.4648 14.736C65.9608 14.456 66.5288 14.316 67.1688 14.316C67.7928 14.316 68.3448 14.452 68.8248 14.724C69.3048 14.996 69.6728 15.372 69.9288 15.852C70.1928 16.324 70.3248 16.86 70.3248 17.46ZM69.1968 17.232C69.1968 16.816 69.1048 16.46 68.9208 16.164C68.7368 15.86 68.4848 15.632 68.1648 15.48C67.8528 15.32 67.5048 15.24 67.1208 15.24C66.5688 15.24 66.0968 15.416 65.7048 15.768C65.3208 16.12 65.1008 16.608 65.0448 17.232H69.1968ZM71.4582 17.688C71.4582 17.016 71.5942 16.428 71.8662 15.924C72.1382 15.412 72.5102 15.016 72.9822 14.736C73.4622 14.456 73.9982 14.316 74.5902 14.316C75.1582 14.316 75.6542 14.444 76.0782 14.7C76.5102 14.948 76.8262 15.256 77.0262 15.624V14.424H78.1302V24.12H77.0262V19.788C76.8182 20.156 76.4982 20.468 76.0662 20.724C75.6342 20.98 75.1302 21.108 74.5542 21.108C73.9782 21.108 73.4542 20.964 72.9822 20.676C72.5102 20.388 72.1382 19.984 71.8662 19.464C71.5942 18.944 71.4582 18.352 71.4582 17.688ZM77.0262 17.7C77.0262 17.204 76.9262 16.772 76.7262 16.404C76.5262 16.036 76.2542 15.756 75.9102 15.564C75.5742 15.364 75.2022 15.264 74.7942 15.264C74.3862 15.264 74.0142 15.36 73.6782 15.552C73.3422 15.744 73.0742 16.024 72.8742 16.392C72.6742 16.76 72.5742 17.192 72.5742 17.688C72.5742 18.192 72.6742 18.632 72.8742 19.008C73.0742 19.376 73.3422 19.66 73.6782 19.86C74.0142 20.052 74.3862 20.148 74.7942 20.148C75.2022 20.148 75.5742 20.052 75.9102 19.86C76.2542 19.66 76.5262 19.376 76.7262 19.008C76.9262 18.632 77.0262 18.196 77.0262 17.7ZM85.9076 14.424V21H84.8156V20.028C84.6076 20.364 84.3156 20.628 83.9396 20.82C83.5716 21.004 83.1636 21.096 82.7156 21.096C82.2036 21.096 81.7436 20.992 81.3356 20.784C80.9276 20.568 80.6036 20.248 80.3636 19.824C80.1316 19.4 80.0156 18.884 80.0156 18.276V14.424H81.0956V18.132C81.0956 18.78 81.2596 19.28 81.5876 19.632C81.9156 19.976 82.3636 20.148 82.9316 20.148C83.5156 20.148 83.9756 19.968 84.3116 19.608C84.6476 19.248 84.8156 18.724 84.8156 18.036V14.424H85.9076ZM93.8513 17.46C93.8513 17.668 93.8393 17.888 93.8153 18.12H88.5593C88.5993 18.768 88.8193 19.276 89.2193 19.644C89.6273 20.004 90.1193 20.184 90.6953 20.184C91.1673 20.184 91.5593 20.076 91.8713 19.86C92.1913 19.636 92.4153 19.34 92.5433 18.972H93.7193C93.5433 19.604 93.1913 20.12 92.6633 20.52C92.1353 20.912 91.4793 21.108 90.6953 21.108C90.0713 21.108 89.5113 20.968 89.0153 20.688C88.5273 20.408 88.1433 20.012 87.8633 19.5C87.5833 18.98 87.4433 18.38 87.4433 17.7C87.4433 17.02 87.5793 16.424 87.8513 15.912C88.1233 15.4 88.5033 15.008 88.9913 14.736C89.4873 14.456 90.0553 14.316 90.6953 14.316C91.3193 14.316 91.8713 14.452 92.3513 14.724C92.8313 14.996 93.1993 15.372 93.4553 15.852C93.7193 16.324 93.8513 16.86 93.8513 17.46ZM92.7233 17.232C92.7233 16.816 92.6313 16.46 92.4473 16.164C92.2633 15.86 92.0113 15.632 91.6913 15.48C91.3793 15.32 91.0313 15.24 90.6473 15.24C90.0953 15.24 89.6233 15.416 89.2313 15.768C88.8473 16.12 88.6273 16.608 88.5713 17.232H92.7233ZM97.7208 21.108C97.2168 21.108 96.7648 21.024 96.3648 20.856C95.9648 20.68 95.6488 20.44 95.4168 20.136C95.1848 19.824 95.0568 19.468 95.0328 19.068H96.1608C96.1928 19.396 96.3448 19.664 96.6168 19.872C96.8968 20.08 97.2608 20.184 97.7088 20.184C98.1248 20.184 98.4528 20.092 98.6928 19.908C98.9328 19.724 99.0528 19.492 99.0528 19.212C99.0528 18.924 98.9248 18.712 98.6688 18.576C98.4128 18.432 98.0168 18.292 97.4808 18.156C96.9928 18.028 96.5928 17.9 96.2808 17.772C95.9768 17.636 95.7128 17.44 95.4888 17.184C95.2728 16.92 95.1648 16.576 95.1648 16.152C95.1648 15.816 95.2648 15.508 95.4648 15.228C95.6648 14.948 95.9488 14.728 96.3168 14.568C96.6848 14.4 97.1048 14.316 97.5768 14.316C98.3048 14.316 98.8928 14.5 99.3408 14.868C99.7888 15.236 100.029 15.74 100.061 16.38H98.9688C98.9448 16.036 98.8048 15.76 98.5488 15.552C98.3008 15.344 97.9648 15.24 97.5408 15.24C97.1488 15.24 96.8368 15.324 96.6048 15.492C96.3728 15.66 96.2568 15.88 96.2568 16.152C96.2568 16.368 96.3248 16.548 96.4608 16.692C96.6048 16.828 96.7808 16.94 96.9888 17.028C97.2048 17.108 97.5008 17.2 97.8768 17.304C98.3488 17.432 98.7328 17.56 99.0288 17.688C99.3248 17.808 99.5768 17.992 99.7848 18.24C100.001 18.488 100.113 18.812 100.121 19.212C100.121 19.572 100.021 19.896 99.8208 20.184C99.6208 20.472 99.3368 20.7 98.9688 20.868C98.6088 21.028 98.1928 21.108 97.7208 21.108ZM103.094 15.324V19.2C103.094 19.52 103.162 19.748 103.298 19.884C103.434 20.012 103.67 20.076 104.006 20.076H104.81V21H103.826C103.218 21 102.762 20.86 102.458 20.58C102.154 20.3 102.002 19.84 102.002 19.2V15.324H101.15V14.424H102.002V12.768H103.094V14.424H104.81V15.324H103.094ZM109.125 17.688C109.125 17.016 109.261 16.428 109.533 15.924C109.805 15.412 110.177 15.016 110.649 14.736C111.129 14.456 111.661 14.316 112.245 14.316C112.821 14.316 113.321 14.44 113.745 14.688C114.169 14.936 114.485 15.248 114.693 15.624V14.424H115.797V21H114.693V19.776C114.477 20.16 114.153 20.48 113.721 20.736C113.297 20.984 112.801 21.108 112.233 21.108C111.649 21.108 111.121 20.964 110.649 20.676C110.177 20.388 109.805 19.984 109.533 19.464C109.261 18.944 109.125 18.352 109.125 17.688ZM114.693 17.7C114.693 17.204 114.593 16.772 114.393 16.404C114.193 16.036 113.921 15.756 113.577 15.564C113.241 15.364 112.869 15.264 112.461 15.264C112.053 15.264 111.681 15.36 111.345 15.552C111.009 15.744 110.741 16.024 110.541 16.392C110.341 16.76 110.241 17.192 110.241 17.688C110.241 18.192 110.341 18.632 110.541 19.008C110.741 19.376 111.009 19.66 111.345 19.86C111.681 20.052 112.053 20.148 112.461 20.148C112.869 20.148 113.241 20.052 113.577 19.86C113.921 19.66 114.193 19.376 114.393 19.008C114.593 18.632 114.693 18.196 114.693 17.7Z" fill="#E31003"/>
</svg>
