<svg width="161" height="50" viewBox="0 0 161 50" fill="none" xmlns="http://www.w3.org/2000/svg">
<path d="M15 17.8559V29.3277C15.0078 31.9218 16.7664 34.0085 18.9118 34H32.7906C33.1839 34 33.5032 33.617 33.5032 33.1522V21.6805C33.4928 19.0883 31.734 16.9996 29.5912 17.0099H15.7098C15.3179 17.0099 15 17.3913 15 17.8559ZM34.3858 22.3323L40.1173 17.289C40.6145 16.7921 41 16.9163 41 17.815V33.1949C41 34.2178 40.5287 34.0935 40.1173 33.7208L34.3858 28.6877V22.3323Z" stroke="#505050" stroke-width="2" stroke-linecap="round" stroke-linejoin="round"/>
<rect x="1" y="1" width="159" height="48" rx="24" stroke="#00A8F0" stroke-width="2"/>
<path d="M52.518 31.114C52.518 30.162 52.7373 29.308 53.176 28.552C53.624 27.796 54.226 27.208 54.982 26.788C55.7473 26.3587 56.5827 26.144 57.488 26.144C58.524 26.144 59.4433 26.4007 60.246 26.914C61.058 27.418 61.646 28.1367 62.01 29.07H60.092C59.84 28.5567 59.49 28.174 59.042 27.922C58.594 27.67 58.076 27.544 57.488 27.544C56.844 27.544 56.27 27.6887 55.766 27.978C55.262 28.2673 54.8653 28.6827 54.576 29.224C54.296 29.7653 54.156 30.3953 54.156 31.114C54.156 31.8327 54.296 32.4627 54.576 33.004C54.8653 33.5453 55.262 33.9653 55.766 34.264C56.27 34.5533 56.844 34.698 57.488 34.698C58.076 34.698 58.594 34.572 59.042 34.32C59.49 34.068 59.84 33.6853 60.092 33.172H62.01C61.646 34.1053 61.058 34.824 60.246 35.328C59.4433 35.832 58.524 36.084 57.488 36.084C56.5733 36.084 55.738 35.874 54.982 35.454C54.226 35.0247 53.624 34.432 53.176 33.676C52.7373 32.92 52.518 32.066 52.518 31.114ZM67.3241 36.126C66.5961 36.126 65.9381 35.9627 65.3501 35.636C64.7621 35.3 64.3001 34.8333 63.9641 34.236C63.6281 33.6293 63.4601 32.9293 63.4601 32.136C63.4601 31.352 63.6328 30.6567 63.9781 30.05C64.3235 29.4433 64.7948 28.9767 65.3921 28.65C65.9895 28.3233 66.6568 28.16 67.3941 28.16C68.1315 28.16 68.7988 28.3233 69.3961 28.65C69.9935 28.9767 70.4648 29.4433 70.8101 30.05C71.1555 30.6567 71.3281 31.352 71.3281 32.136C71.3281 32.92 71.1508 33.6153 70.7961 34.222C70.4415 34.8287 69.9561 35.3 69.3401 35.636C68.7335 35.9627 68.0615 36.126 67.3241 36.126ZM67.3241 34.74C67.7348 34.74 68.1175 34.642 68.4721 34.446C68.8361 34.25 69.1301 33.956 69.3541 33.564C69.5781 33.172 69.6901 32.696 69.6901 32.136C69.6901 31.576 69.5828 31.1047 69.3681 30.722C69.1535 30.33 68.8688 30.036 68.5141 29.84C68.1595 29.644 67.7768 29.546 67.3661 29.546C66.9555 29.546 66.5728 29.644 66.2181 29.84C65.8728 30.036 65.5975 30.33 65.3921 30.722C65.1868 31.1047 65.0841 31.576 65.0841 32.136C65.0841 32.9667 65.2941 33.6107 65.7141 34.068C66.1435 34.516 66.6801 34.74 67.3241 34.74ZM79.9919 28.286V36H78.3959V35.09C78.1439 35.4073 77.8125 35.6593 77.4019 35.846C77.0005 36.0233 76.5712 36.112 76.1139 36.112C75.5072 36.112 74.9612 35.986 74.4759 35.734C73.9999 35.482 73.6219 35.1087 73.3419 34.614C73.0712 34.1193 72.9359 33.522 72.9359 32.822V28.286H74.5179V32.584C74.5179 33.2747 74.6905 33.8067 75.0359 34.18C75.3812 34.544 75.8525 34.726 76.4499 34.726C77.0472 34.726 77.5185 34.544 77.8639 34.18C78.2185 33.8067 78.3959 33.2747 78.3959 32.584V28.286H79.9919ZM86.0897 28.16C86.6963 28.16 87.2377 28.286 87.7137 28.538C88.199 28.79 88.577 29.1633 88.8477 29.658C89.1183 30.1527 89.2537 30.75 89.2537 31.45V36H87.6717V31.688C87.6717 30.9973 87.499 30.47 87.1537 30.106C86.8083 29.7327 86.337 29.546 85.7397 29.546C85.1423 29.546 84.6663 29.7327 84.3117 30.106C83.9663 30.47 83.7937 30.9973 83.7937 31.688V36H82.1977V28.286H83.7937V29.168C84.055 28.8507 84.3863 28.6033 84.7877 28.426C85.1983 28.2487 85.6323 28.16 86.0897 28.16ZM94.1895 36.126C93.5828 36.126 93.0368 36.0187 92.5515 35.804C92.0755 35.58 91.6975 35.2813 91.4175 34.908C91.1375 34.5253 90.9881 34.1007 90.9695 33.634H92.6215C92.6495 33.9607 92.8035 34.236 93.0835 34.46C93.3728 34.6747 93.7321 34.782 94.1615 34.782C94.6095 34.782 94.9548 34.698 95.1975 34.53C95.4495 34.3527 95.5755 34.1287 95.5755 33.858C95.5755 33.5687 95.4355 33.354 95.1555 33.214C94.8848 33.074 94.4508 32.92 93.8535 32.752C93.2748 32.5933 92.8035 32.4393 92.4395 32.29C92.0755 32.1407 91.7581 31.912 91.4875 31.604C91.2261 31.296 91.0955 30.89 91.0955 30.386C91.0955 29.9753 91.2168 29.602 91.4595 29.266C91.7021 28.9207 92.0475 28.65 92.4955 28.454C92.9528 28.258 93.4755 28.16 94.0635 28.16C94.9408 28.16 95.6455 28.384 96.1775 28.832C96.7188 29.2707 97.0081 29.8727 97.0455 30.638H95.4495C95.4215 30.2927 95.2815 30.0173 95.0295 29.812C94.7775 29.6067 94.4368 29.504 94.0075 29.504C93.5875 29.504 93.2655 29.5833 93.0415 29.742C92.8175 29.9007 92.7055 30.1107 92.7055 30.372C92.7055 30.5773 92.7801 30.75 92.9295 30.89C93.0788 31.03 93.2608 31.142 93.4755 31.226C93.6901 31.3007 94.0075 31.3987 94.4275 31.52C94.9875 31.6693 95.4448 31.8233 95.7995 31.982C96.1635 32.1313 96.4761 32.3553 96.7375 32.654C96.9988 32.9527 97.1341 33.3493 97.1435 33.844C97.1435 34.2827 97.0221 34.6747 96.7795 35.02C96.5368 35.3653 96.1915 35.636 95.7435 35.832C95.3048 36.028 94.7868 36.126 94.1895 36.126ZM106.038 31.954C106.038 32.2433 106.019 32.5047 105.982 32.738H100.088C100.135 33.354 100.363 33.8487 100.774 34.222C101.185 34.5953 101.689 34.782 102.286 34.782C103.145 34.782 103.751 34.4227 104.106 33.704H105.828C105.595 34.4133 105.17 34.9967 104.554 35.454C103.947 35.902 103.191 36.126 102.286 36.126C101.549 36.126 100.886 35.9627 100.298 35.636C99.7193 35.3 99.262 34.8333 98.926 34.236C98.5993 33.6293 98.436 32.9293 98.436 32.136C98.436 31.3427 98.5946 30.6473 98.912 30.05C99.2386 29.4433 99.6913 28.9767 100.27 28.65C100.858 28.3233 101.53 28.16 102.286 28.16C103.014 28.16 103.663 28.3187 104.232 28.636C104.801 28.9533 105.245 29.4013 105.562 29.98C105.879 30.5493 106.038 31.2073 106.038 31.954ZM104.372 31.45C104.363 30.862 104.153 30.3907 103.742 30.036C103.331 29.6813 102.823 29.504 102.216 29.504C101.665 29.504 101.194 29.6813 100.802 30.036C100.41 30.3813 100.177 30.8527 100.102 31.45H104.372ZM109.305 25.64V36H107.709V25.64H109.305ZM113.096 25.64V36H111.5V25.64H113.096ZM116.103 27.264C115.814 27.264 115.571 27.166 115.375 26.97C115.179 26.774 115.081 26.5313 115.081 26.242C115.081 25.9527 115.179 25.71 115.375 25.514C115.571 25.318 115.814 25.22 116.103 25.22C116.383 25.22 116.621 25.318 116.817 25.514C117.013 25.71 117.111 25.9527 117.111 26.242C117.111 26.5313 117.013 26.774 116.817 26.97C116.621 27.166 116.383 27.264 116.103 27.264ZM116.887 28.286V36H115.291V28.286H116.887ZM122.975 28.16C123.581 28.16 124.123 28.286 124.599 28.538C125.084 28.79 125.462 29.1633 125.733 29.658C126.003 30.1527 126.139 30.75 126.139 31.45V36H124.557V31.688C124.557 30.9973 124.384 30.47 124.039 30.106C123.693 29.7327 123.222 29.546 122.625 29.546C122.027 29.546 121.551 29.7327 121.197 30.106C120.851 30.47 120.679 30.9973 120.679 31.688V36H119.083V28.286H120.679V29.168C120.94 28.8507 121.271 28.6033 121.673 28.426C122.083 28.2487 122.517 28.16 122.975 28.16ZM131.383 28.16C131.98 28.16 132.507 28.2813 132.965 28.524C133.431 28.7573 133.795 29.0513 134.057 29.406V28.286H135.667V36.126C135.667 36.8353 135.517 37.4653 135.219 38.016C134.92 38.576 134.486 39.0147 133.917 39.332C133.357 39.6493 132.685 39.808 131.901 39.808C130.855 39.808 129.987 39.5607 129.297 39.066C128.606 38.5807 128.214 37.918 128.121 37.078H129.703C129.824 37.4793 130.081 37.8013 130.473 38.044C130.874 38.296 131.35 38.422 131.901 38.422C132.545 38.422 133.063 38.226 133.455 37.834C133.856 37.442 134.057 36.8727 134.057 36.126V34.838C133.786 35.202 133.417 35.51 132.951 35.762C132.493 36.0047 131.971 36.126 131.383 36.126C130.711 36.126 130.095 35.958 129.535 35.622C128.984 35.2767 128.545 34.8007 128.219 34.194C127.901 33.578 127.743 32.8827 127.743 32.108C127.743 31.3333 127.901 30.6473 128.219 30.05C128.545 29.4527 128.984 28.9907 129.535 28.664C130.095 28.328 130.711 28.16 131.383 28.16ZM134.057 32.136C134.057 31.604 133.945 31.142 133.721 30.75C133.506 30.358 133.221 30.0593 132.867 29.854C132.512 29.6487 132.129 29.546 131.719 29.546C131.308 29.546 130.925 29.6487 130.571 29.854C130.216 30.05 129.927 30.344 129.703 30.736C129.488 31.1187 129.381 31.576 129.381 32.108C129.381 32.64 129.488 33.1067 129.703 33.508C129.927 33.9093 130.216 34.2173 130.571 34.432C130.935 34.6373 131.317 34.74 131.719 34.74C132.129 34.74 132.512 34.6373 132.867 34.432C133.221 34.2267 133.506 33.928 133.721 33.536C133.945 33.1347 134.057 32.668 134.057 32.136Z" fill="#333333"/>
<path d="M59.836 11.636L56.68 20H55.42L52.264 11.636H53.428L56.056 18.848L58.684 11.636H59.836ZM61.6974 12.356C61.4894 12.356 61.3134 12.284 61.1694 12.14C61.0254 11.996 60.9534 11.82 60.9534 11.612C60.9534 11.404 61.0254 11.228 61.1694 11.084C61.3134 10.94 61.4894 10.868 61.6974 10.868C61.8974 10.868 62.0654 10.94 62.2014 11.084C62.3454 11.228 62.4174 11.404 62.4174 11.612C62.4174 11.82 62.3454 11.996 62.2014 12.14C62.0654 12.284 61.8974 12.356 61.6974 12.356ZM62.2254 13.424V20H61.1334V13.424H62.2254ZM65.2785 14.492C65.4705 14.116 65.7425 13.824 66.0945 13.616C66.4545 13.408 66.8905 13.304 67.4025 13.304V14.432H67.1145C65.8905 14.432 65.2785 15.096 65.2785 16.424V20H64.1865V13.424H65.2785V14.492ZM70.0951 14.324V18.2C70.0951 18.52 70.1631 18.748 70.2991 18.884C70.4351 19.012 70.6711 19.076 71.0071 19.076H71.8111V20H70.8271C70.2191 20 69.7631 19.86 69.4591 19.58C69.1551 19.3 69.0031 18.84 69.0031 18.2V14.324H68.1511V13.424H69.0031V11.768H70.0951V13.424H71.8111V14.324H70.0951ZM79.0662 13.424V20H77.9742V19.028C77.7662 19.364 77.4742 19.628 77.0982 19.82C76.7302 20.004 76.3222 20.096 75.8742 20.096C75.3622 20.096 74.9022 19.992 74.4942 19.784C74.0862 19.568 73.7622 19.248 73.5222 18.824C73.2902 18.4 73.1742 17.884 73.1742 17.276V13.424H74.2542V17.132C74.2542 17.78 74.4182 18.28 74.7462 18.632C75.0742 18.976 75.5222 19.148 76.0902 19.148C76.6742 19.148 77.1342 18.968 77.4702 18.608C77.8062 18.248 77.9742 17.724 77.9742 17.036V13.424H79.0662ZM80.6019 16.688C80.6019 16.016 80.7379 15.428 81.0099 14.924C81.2819 14.412 81.6539 14.016 82.1259 13.736C82.6059 13.456 83.1379 13.316 83.7219 13.316C84.2979 13.316 84.7979 13.44 85.2219 13.688C85.6459 13.936 85.9619 14.248 86.1699 14.624V13.424H87.2739V20H86.1699V18.776C85.9539 19.16 85.6299 19.48 85.1979 19.736C84.7739 19.984 84.2779 20.108 83.7099 20.108C83.1259 20.108 82.5979 19.964 82.1259 19.676C81.6539 19.388 81.2819 18.984 81.0099 18.464C80.7379 17.944 80.6019 17.352 80.6019 16.688ZM86.1699 16.7C86.1699 16.204 86.0699 15.772 85.8699 15.404C85.6699 15.036 85.3979 14.756 85.0539 14.564C84.7179 14.364 84.3459 14.264 83.9379 14.264C83.5299 14.264 83.1579 14.36 82.8219 14.552C82.4859 14.744 82.2179 15.024 82.0179 15.392C81.8179 15.76 81.7179 16.192 81.7179 16.688C81.7179 17.192 81.8179 17.632 82.0179 18.008C82.2179 18.376 82.4859 18.66 82.8219 18.86C83.1579 19.052 83.5299 19.148 83.9379 19.148C84.3459 19.148 84.7179 19.052 85.0539 18.86C85.3979 18.66 85.6699 18.376 85.8699 18.008C86.0699 17.632 86.1699 17.196 86.1699 16.7ZM90.3113 11.12V20H89.2193V11.12H90.3113Z" fill="#00A8F0"/>
</svg>
