<svg width="45" height="50" viewBox="0 0 45 50" fill="none" xmlns="http://www.w3.org/2000/svg">
<g clip-path="url(#clip0_114_195)">
<path d="M29.9121 0.000644709C29.5147 -0.00493063 29.1355 0.025888 28.7597 0.0840504C27.2567 0.3167 25.9983 0.862499 23.5401 1.28607C21.2822 1.67513 19.7501 1.1118 17.8369 0.623733C15.9237 0.135664 13.6009 -0.175711 10.7324 1.12907C10.0314 1.44967 9.78283 2.32486 10.21 2.9689L14.6436 9.64626C13.6998 10.5488 10.9652 13.2217 7.74902 17.5306C3.92391 22.6551 0 29.4008 0 36.1839C0 42.8413 3.27196 46.6445 7.67578 48.3464C12.0797 50.0483 17.5 49.9999 22.5 49.9999C27.5 49.9999 32.9203 50.0483 37.3242 48.3464C41.728 46.6445 45 42.8413 45 36.1839C45 29.4008 41.0761 22.6551 37.251 17.5306C34.0348 13.2217 31.3002 10.5488 30.3564 9.64626L34.7901 2.9689C35.2223 2.316 34.9601 1.42912 34.2432 1.11926C32.4467 0.345786 31.1042 0.0173705 29.9121 0.000644709ZM29.1406 2.5666C29.8069 2.46345 30.8275 2.86583 31.6992 3.10137L28.0811 8.55218H16.9189L13.2617 3.0376C14.6991 2.69173 15.9099 2.72749 17.2217 3.06212C18.9805 3.51081 21.1011 4.25633 23.96 3.76371C26.6186 3.30561 28.0687 2.73251 29.1406 2.5666ZM16.7676 11.0642H28.2324C28.7009 11.5033 31.8361 14.4693 35.249 19.0417C38.9239 23.965 42.5 30.4071 42.5 36.1839C42.5 42.0865 40.147 44.5632 36.4257 46.0013C32.7046 47.4394 27.5 47.4879 22.5 47.4879C17.5 47.4879 12.2954 47.4394 8.57422 46.0013C4.85304 44.5632 2.5 42.0865 2.5 36.1839C2.5 30.4071 6.07609 23.965 9.75098 19.0417C13.1639 14.4693 16.2991 11.5033 16.7676 11.0642ZM21.2499 22.3681V24.88C19.1937 24.88 17.5 26.5819 17.5 28.648C17.5 30.7142 19.1937 32.416 21.2499 32.416H23.7501C24.4551 32.416 25 32.9635 25 33.672C25 34.3805 24.4551 34.928 23.7501 34.928H21.2499H17.5V37.44H21.2499V39.9519H23.7501V37.44C25.8063 37.44 27.5 35.7381 27.5 33.672C27.5 31.6058 25.8063 29.904 23.7501 29.904H21.2499C20.5449 29.904 20 29.3565 20 28.648C20 27.9395 20.5449 27.392 21.2499 27.392H23.7501H27.5V24.88H23.7501V22.3681H21.2499Z" fill="#333333"/>
</g>
<defs>
<clipPath id="clip0_114_195">
<rect width="45" height="50" fill="white"/>
</clipPath>
</defs>
</svg>
