<svg width="41" height="50" viewBox="0 0 41 50" fill="none" xmlns="http://www.w3.org/2000/svg">
<path d="M3.39485 46.5927L3.39491 46.5928C4.44916 47.653 5.88055 48.25 7.3746 48.25H33.6222C35.1162 48.25 36.5477 47.653 37.6019 46.5927C38.656 45.5326 39.2469 44.0964 39.2469 42.6002V18.8638C39.2947 17.4238 38.7928 16.0186 37.8421 14.9368C37.8397 14.934 37.8372 14.9312 37.8347 14.9284C37.8283 14.9213 37.8219 14.9142 37.8153 14.9073L27.0976 3.468L27.0814 3.45099C26.5346 2.88896 25.8768 2.44744 25.1498 2.15501C24.4302 1.86549 23.6586 1.72851 22.8837 1.75273H7.3746C5.88055 1.75273 4.44914 2.34973 3.39488 3.41004C2.34087 4.47011 1.75 5.90636 1.75 7.40246V42.6002C1.75 44.0964 2.34088 45.5326 3.39485 46.5927Z" stroke="#333333" stroke-width="2.5" stroke-linecap="round" stroke-linejoin="round"/>
<mask id="path-2-outside-1_114_196" maskUnits="userSpaceOnUse" x="10" y="35" width="22" height="4" fill="black">
<rect fill="white" x="10" y="35" width="22" height="4"/>
<path d="M12 37H30Z"/>
</mask>
<path d="M12 35.5C11.1716 35.5 10.5 36.1716 10.5 37C10.5 37.8284 11.1716 38.5 12 38.5V35.5ZM30 38.5C30.8284 38.5 31.5 37.8284 31.5 37C31.5 36.1716 30.8284 35.5 30 35.5V38.5ZM12 38.5H30V35.5H12V38.5Z" fill="#333333" mask="url(#path-2-outside-1_114_196)"/>
<mask id="path-4-outside-2_114_196" maskUnits="userSpaceOnUse" x="10" y="27" width="22" height="4" fill="black">
<rect fill="white" x="10" y="27" width="22" height="4"/>
<path d="M12 29H30Z"/>
</mask>
<path d="M12 27.5C11.1716 27.5 10.5 28.1716 10.5 29C10.5 29.8284 11.1716 30.5 12 30.5V27.5ZM30 30.5C30.8284 30.5 31.5 29.8284 31.5 29C31.5 28.1716 30.8284 27.5 30 27.5V30.5ZM12 30.5H30V27.5H12V30.5Z" fill="#333333" mask="url(#path-4-outside-2_114_196)"/>
<mask id="path-6-outside-3_114_196" maskUnits="userSpaceOnUse" x="10" y="18" width="15" height="4" fill="black">
<rect fill="white" x="10" y="18" width="15" height="4"/>
<path d="M12 20H23Z"/>
</mask>
<path d="M12 18.5C11.1716 18.5 10.5 19.1716 10.5 20C10.5 20.8284 11.1716 21.5 12 21.5V18.5ZM23 21.5C23.8284 21.5 24.5 20.8284 24.5 20C24.5 19.1716 23.8284 18.5 23 18.5V21.5ZM12 21.5H23V18.5H12V21.5Z" fill="#333333" mask="url(#path-6-outside-3_114_196)"/>
</svg>
