<svg width="43" height="50" viewBox="0 0 43 50" fill="none" xmlns="http://www.w3.org/2000/svg">
<path d="M34.6455 17.8496V48.677H1.25714V8.36426H25.106V17.8496H34.6455Z" stroke="#333333" stroke-width="2" stroke-miterlimit="10" stroke-linecap="round" stroke-linejoin="round"/>
<path d="M34.6456 17.8496H25.106V8.36426L34.6456 17.8496Z" stroke="#333333" stroke-width="2" stroke-miterlimit="10" stroke-linecap="round" stroke-linejoin="round"/>
<path d="M41.8004 10.7353V41.5626H34.6457V17.8494H25.1063V8.364H8.41205V1.25H32.2609L41.8004 10.7353Z" stroke="#333333" stroke-width="2" stroke-miterlimit="10" stroke-linecap="round" stroke-linejoin="round"/>
<path d="M34.6456 17.8496H25.106V8.36426L34.6456 17.8496Z" stroke="#333333" stroke-width="2" stroke-miterlimit="10" stroke-linecap="round" stroke-linejoin="round"/>
<path d="M10.7952 22.5932C13.4294 22.5932 15.5649 20.4698 15.5649 17.8506C15.5649 15.2312 13.4294 13.1078 10.7952 13.1078C8.16095 13.1078 6.02545 15.2312 6.02545 17.8506C6.02545 20.4698 8.16095 22.5932 10.7952 22.5932Z" stroke="#333333" stroke-width="2" stroke-miterlimit="10" stroke-linecap="round" stroke-linejoin="round"/>
<path d="M28.6827 40.3784H7.21875" stroke="#333333" stroke-width="2" stroke-miterlimit="10" stroke-linecap="round" stroke-linejoin="round"/>
<path d="M28.6827 34.4482H7.21875" stroke="#333333" stroke-width="2" stroke-miterlimit="10" stroke-linecap="round" stroke-linejoin="round"/>
<path d="M17.9507 28.5205H7.21875" stroke="#333333" stroke-width="2" stroke-miterlimit="10" stroke-linecap="round" stroke-linejoin="round"/>
</svg>
