<svg width="42" height="50" viewBox="0 0 42 50" fill="none" xmlns="http://www.w3.org/2000/svg">
<path d="M12.5908 35.5367C11.8962 35.5367 11.3293 34.9658 11.3293 34.2632C11.3293 33.5606 11.8922 32.9898 12.5908 32.9898H20.7744C21.469 32.9898 22.0359 33.5606 22.0359 34.2632C22.0359 34.9658 21.473 35.5367 20.7744 35.5367H12.5908ZM12.5908 17.7004C11.8962 17.7004 11.3333 17.1375 11.3333 16.4429C11.3333 15.7483 11.8962 15.1854 12.5908 15.1854H29.2016C29.8962 15.1854 30.4591 15.7483 30.4591 16.4429C30.4591 17.1375 29.8962 17.7004 29.2016 17.7004H12.5908ZM26.5748 44.2033C26.0319 43.7722 25.9401 42.9818 26.3752 42.4389C26.8064 41.8959 27.5968 41.8041 28.1397 42.2393L31.9601 45.2692L39.2295 36.379C39.6686 35.8401 40.463 35.7642 40.998 36.2033C41.5369 36.6425 41.6127 37.4369 41.1736 37.9718L33.1217 47.8201C32.6866 48.351 31.9082 48.4349 31.3692 48.0077L26.5748 44.2033ZM22.6946 47.365C23.3892 47.365 23.9521 47.9279 23.9521 48.6225C23.9521 49.3171 23.3892 49.88 22.6946 49.88H2.92615C2.11976 49.88 1.38922 49.5526 0.858283 49.0217C0.327345 48.4908 0 47.7602 0 46.9538V3.75226C0 2.94587 0.327345 2.21533 0.858283 1.68439C1.38922 1.15346 2.11976 0.826111 2.92615 0.826111H38.8623C39.6686 0.826111 40.3992 1.15346 40.9301 1.68439C41.4611 2.21533 41.7884 2.94587 41.7884 3.75226V29.8081C41.7884 30.5027 41.2255 31.0656 40.5309 31.0656C39.8363 31.0656 39.2734 30.5027 39.2734 29.8081V3.75226C39.2734 3.64048 39.2255 3.53669 39.1537 3.46084C39.0778 3.38499 38.974 3.34108 38.8623 3.34108H2.92615C2.81437 3.34108 2.71058 3.38898 2.63473 3.46084C2.56287 3.54068 2.51497 3.64048 2.51497 3.75226V46.9498C2.51497 47.0616 2.56287 47.1654 2.63473 47.2412C2.71058 47.3171 2.81437 47.361 2.92615 47.361H22.6946V47.365ZM12.5908 26.6105C11.8962 26.6105 11.3333 26.0477 11.3333 25.353C11.3333 24.6584 11.8962 24.0956 12.5908 24.0956H29.2016C29.8962 24.0956 30.4591 24.6584 30.4591 25.353C30.4591 26.0477 29.8962 26.6105 29.2016 26.6105H12.5908Z" fill="#333333"/>
</svg>
