<svg width="19" height="17" viewBox="0 0 19 17" fill="none" xmlns="http://www.w3.org/2000/svg">
<path d="M2 1V16H10V1H2ZM1.625 0H10.375C10.5408 0 10.6997 0.0688871 10.8169 0.191507C10.9342 0.314127 11 0.480435 11 0.653846V16.3462C11 16.5196 10.9342 16.6859 10.8169 16.8085C10.6997 16.9311 10.5408 17 10.375 17H1.625C1.45924 17 1.30027 16.9311 1.18306 16.8085C1.06585 16.6859 1 16.5196 1 16.3462V0.653846C1 0.480435 1.06585 0.314127 1.18306 0.191507C1.30027 0.0688871 1.45924 0 1.625 0Z" fill="#A8A8A5"/>
<path d="M0 16H19V17H0V16Z" fill="#A8A8A5"/>
<path d="M11 6V16H17V6H11ZM10.8 5H17.2C17.4122 5 17.6157 5.07024 17.7657 5.19526C17.9157 5.32029 18 5.48986 18 5.66667V16.3333C18 16.5101 17.9157 16.6797 17.7657 16.8047C17.6157 16.9298 17.4122 17 17.2 17H10.8C10.5878 17 10.3843 16.9298 10.2343 16.8047C10.0843 16.6797 10 16.5101 10 16.3333V5.66667C10 5.48986 10.0843 5.32029 10.2343 5.19526C10.3843 5.07024 10.5878 5 10.8 5Z" fill="#A8A8A5"/>
<path d="M3 4H9V5H3V4Z" fill="#A8A8A5"/>
<path d="M12 8H16V9H12V8Z" fill="#A8A8A5"/>
<path d="M3 7H9V8H3V7Z" fill="#A8A8A5"/>
<path d="M12 11H16V12H12V11Z" fill="#A8A8A5"/>
<path d="M3 10H9V11H3V10Z" fill="#A8A8A5"/>
<path d="M12 14H16V15H12V14Z" fill="#A8A8A5"/>
<path d="M3 13H9V14H3V13Z" fill="#A8A8A5"/>
</svg>
