<svg width="164" height="410" viewBox="0 0 164 410" fill="none" xmlns="http://www.w3.org/2000/svg">
<path fill-rule="evenodd" clip-rule="evenodd" d="M82 41C82 18.3563 63.6437 -2.78195e-06 41 -1.79217e-06C18.3563 -8.0238e-07 -1.71193e-05 18.3563 -1.61295e-05 41C-1.51397e-05 63.6437 18.3563 82 41 82C18.3563 82 -1.3535e-05 100.356 -1.25452e-05 123C-1.15554e-05 145.644 18.3563 164 41 164L-1.0753e-05 164L-7.16867e-06 246L-5.68248e-06 280C-4.52371e-06 306.51 21.4903 328 48 328L-3.58433e-06 328L-1.04907e-06 386C-4.69686e-07 399.255 10.7452 410 24 410L82 410L82 369C82 391.644 100.356 410 123 410C145.644 410 164 391.644 164 369L82 369L82 352C82 338.745 71.2548 328 58 328L82 328L82 327.75C82 350.394 100.356 368.75 123 368.75C145.644 368.75 164 350.394 164 327.75L127.553 327.75C148.054 325.485 164 308.105 164 287C164 264.356 145.644 246 123 246C100.356 246 82 264.356 82 287C82 308.105 97.9457 325.485 118.447 327.75L82 327.75L82 294C82 267.49 60.5097 246 34 246L82 246L82 198C82 224.51 103.49 246 130 246L164 246L164 212C164 185.49 142.51 164 116 164L82 164C104.644 164 123 145.644 123 123L123 164C145.644 164 164 145.644 164 123C164 100.356 145.644 82 123 82C145.644 82 164 63.6437 164 41C164 18.3563 145.644 -6.36629e-06 123 -5.3765e-06C100.356 -4.38671e-06 82 18.3563 82 41ZM82 41C82 63.6437 100.356 82 123 82L123 123C123 100.356 104.644 82 82 82L82 123C82 100.356 63.6437 82 41 82C63.6437 82 82 63.6437 82 41ZM82 123L82 164L41 164C63.6437 164 82 145.644 82 123ZM40.9997 103.391C51.8293 103.391 60.6084 112.17 60.6084 123C60.6084 133.829 51.8293 142.608 40.9997 142.608C30.1702 142.608 21.391 133.829 21.391 123C21.391 112.17 30.1701 103.391 40.9997 103.391Z" fill="white"/>
</svg>
