<svg xmlns="http://www.w3.org/2000/svg" viewBox="0 0 15.88 19.84"><defs><style>.cls-1{fill:#727271;}</style></defs><title>Hospitality, Tourism, Wellness Leisure &amp;amp; Sports</title><g id="Layer_2" data-name="Layer 2"><g id="Layer_1-2" data-name="Layer 1"><path class="cls-1" d="M7.17,19.84,6,19.73A7.37,7.37,0,0,1,4,19.22a2.34,2.34,0,0,1-.61-.36.78.78,0,0,1,0-1.34,3.35,3.35,0,0,1,1-.49c.46-.15.95-.22,1.43-.33l.23,0L5,15.32a.52.52,0,0,0-.18-.1A7.8,7.8,0,0,1,.17,9.52a7.93,7.93,0,1,1,11,5.69.87.87,0,0,0-.33.27c-.3.38-.58.77-.86,1.16.51.11,1,.21,1.5.34a2.71,2.71,0,0,1,1.16.58.78.78,0,0,1,0,1.23,1.31,1.31,0,0,1-.44.31,10,10,0,0,1-1.37.46c-.61.12-1.23.17-1.84.25l-.25,0Zm2.66-4.19-.44.09c-.25,0-.41-.06-.45-.25s.08-.36.34-.41A7.27,7.27,0,1,0,.7,8.42a7.05,7.05,0,0,0,2.78,5.25,7,7,0,0,0,3.15,1.41c.24.05.36.2.32.4s-.19.29-.44.25l-.45-.08c.52.7,1,1.37,1.5,2a.53.53,0,0,0,.81,0L8.84,17ZM7.94,19.14c.37,0,.75,0,1.12,0a8.35,8.35,0,0,0,2.52-.49,2.39,2.39,0,0,0,.48-.24c.24-.16.24-.28,0-.43a2.55,2.55,0,0,0-.43-.23,7.67,7.67,0,0,0-2.07-.46.34.34,0,0,0-.19.09l-.44.6a1.18,1.18,0,0,1-2,0c-.14-.19-.28-.4-.44-.59a.31.31,0,0,0-.22-.09c-.54.09-1.08.18-1.61.31a2.94,2.94,0,0,0-.8.33c-.31.17-.31.32,0,.49a3.24,3.24,0,0,0,.63.29A10,10,0,0,0,7.94,19.14Z"/><path class="cls-1" d="M14.56,8A6.62,6.62,0,1,1,8,1.32,6.62,6.62,0,0,1,14.56,8Zm-10.92,1C3.23,8.86,3,8.65,3,8.31s0-.5,0-.75A.64.64,0,0,1,3.48,7a1.32,1.32,0,0,1,.28,0H5.67a2.87,2.87,0,0,1,0-.39c0-.84,0-1.68,0-2.52a1,1,0,1,1,2,0v.28h.65a3.56,3.56,0,0,1,.06-.58A1,1,0,0,1,9.41,3a1,1,0,0,1,.85,1c0,1,0,2,0,3H12.2a.66.66,0,0,1,.71.7v.43c0,.55-.12.71-.65.87V12a5.95,5.95,0,1,0-8.62,0Zm7.28,4.15.52-.34a.31.31,0,0,0,.15-.29c0-1.11,0-2.22,0-3.33a1.28,1.28,0,0,0,0-.19H4.32s0,.05,0,.07v3.52s0,.11,0,.13c.2.15.41.29.63.44a.74.74,0,0,1,.78-.54h1.1a.67.67,0,0,1,.76.74v.56h.67c0-.21,0-.4,0-.59A.66.66,0,0,1,9,12.57c.36,0,.72,0,1.09,0A.76.76,0,0,1,10.92,13.09Zm1.32-5.47H3.66v.63h8.58ZM6.29,5.27c0,.44,0,.88,0,1.32a.33.33,0,1,0,.66,0V6a.35.35,0,0,1,.38-.39H8.55A.35.35,0,0,1,8.94,6v.58a.33.33,0,1,0,.66,0V4a.33.33,0,0,0-.33-.36c-.2,0-.32.14-.33.36v.58c0,.26-.13.38-.38.38H7.34A.34.34,0,0,1,7,4.58a4,4,0,0,0,0-.6.48.48,0,0,0-.19-.3c-.22-.13-.45,0-.46.33S6.29,4.85,6.29,5.27ZM9,13.83c.42-.13.82-.24,1.21-.38.06,0,.09-.11.15-.21H9Zm-3.37-.59c.06.09.09.19.14.21l1.22.38v-.59Zm2.73-6.3-.05-.65H7.63l0,.64h.73Z"/><path class="cls-1" d="M6.29,11.9H5.64A.64.64,0,0,1,5,11.27c0-.35,0-.69,0-1a.63.63,0,0,1,.62-.64c.47,0,.93,0,1.39,0a.62.62,0,0,1,.63.63q0,.52,0,1A.64.64,0,0,1,7,11.9Zm-.65-.67H6.93v-1H5.64Z"/><path class="cls-1" d="M9.6,11.9H8.93a.64.64,0,0,1-.65-.61c0-.36,0-.73,0-1.09a.59.59,0,0,1,.57-.59,14.42,14.42,0,0,1,1.47,0,.63.63,0,0,1,.59.63c0,.34,0,.68,0,1a.64.64,0,0,1-.68.64ZM9,10.27v1h1.3v-1Z"/></g></g></svg>