<svg width="16" height="16" viewBox="0 0 16 16" fill="none" xmlns="http://www.w3.org/2000/svg">
<path d="M7.9987 1.33301C6.68016 1.33301 5.39123 1.724 4.2949 2.45654C3.19857 3.18909 2.34409 4.23028 1.8395 5.44845C1.33492 6.66662 1.2029 8.00707 1.46013 9.30027C1.71737 10.5935 2.35231 11.7814 3.28466 12.7137C4.21701 13.6461 5.40489 14.281 6.6981 14.5382C7.9913 14.7955 9.33175 14.6634 10.5499 14.1589C11.7681 13.6543 12.8093 12.7998 13.5418 11.7035C14.2744 10.6071 14.6654 9.31821 14.6654 7.99967C14.6654 7.12419 14.4929 6.25729 14.1579 5.44845C13.8229 4.63961 13.3318 3.90468 12.7127 3.28563C12.0937 2.66657 11.3588 2.17551 10.5499 1.84048C9.74109 1.50545 8.87418 1.33301 7.9987 1.33301ZM7.9987 13.333C6.94387 13.333 5.91272 13.0202 5.03566 12.4342C4.1586 11.8481 3.47501 11.0152 3.07134 10.0406C2.66768 9.06611 2.56206 7.99375 2.76785 6.95919C2.97363 5.92462 3.48158 4.97432 4.22746 4.22844C4.97334 3.48256 5.92365 2.97461 6.95822 2.76882C7.99278 2.56303 9.06514 2.66865 10.0397 3.07232C11.0142 3.47598 11.8472 4.15957 12.4332 5.03663C13.0192 5.91369 13.332 6.94484 13.332 7.99967C13.332 9.41416 12.7701 10.7707 11.7699 11.7709C10.7697 12.7711 9.41319 13.333 7.9987 13.333Z" fill="#FAAE2D"/>
<path d="M7.9987 11.3333C8.36689 11.3333 8.66536 11.0348 8.66536 10.6667C8.66536 10.2985 8.36689 10 7.9987 10C7.63051 10 7.33203 10.2985 7.33203 10.6667C7.33203 11.0348 7.63051 11.3333 7.9987 11.3333Z" fill="#FAAE2D"/>
<path d="M7.9987 4.66699C7.82189 4.66699 7.65232 4.73723 7.52729 4.86225C7.40227 4.98728 7.33203 5.15685 7.33203 5.33366V8.66699C7.33203 8.8438 7.40227 9.01337 7.52729 9.1384C7.65232 9.26342 7.82189 9.33366 7.9987 9.33366C8.17551 9.33366 8.34508 9.26342 8.4701 9.1384C8.59513 9.01337 8.66536 8.8438 8.66536 8.66699V5.33366C8.66536 5.15685 8.59513 4.98728 8.4701 4.86225C8.34508 4.73723 8.17551 4.66699 7.9987 4.66699Z" fill="#FAAE2D"/>
</svg>
