<svg xmlns="http://www.w3.org/2000/svg" viewBox="0 0 20.69 21.1"><defs><style>.cls-1{fill:#727271;}</style></defs><title>Natural Sciences &amp;amp; Mathematics</title><g id="Layer_2" data-name="Layer 2"><g id="Layer_1-2" data-name="Layer 1"><path class="cls-1" d="M8.94,21.1,7.59,21a3.43,3.43,0,0,1-1.93-.8.31.31,0,0,1-.08-.45.31.31,0,0,1,.47,0,3,3,0,0,0,1.78.67,45.13,45.13,0,0,0,5.33,0,2.86,2.86,0,0,0,2.7-2.79,38.48,38.48,0,0,0-.16-5.88s0,0,0-.08a6.12,6.12,0,0,1-4.17,1.82,6.84,6.84,0,0,1-4.42-1.18,4.13,4.13,0,0,1-.74,1.39A2.19,2.19,0,0,1,5,14.44c0,.39,0,.78,0,1.17,0,.82.06,1.64.11,2.46a2.5,2.5,0,0,0,.23.7c.09.24.06.42-.12.5s-.33,0-.45-.24a4,4,0,0,1-.35-1.84.28.28,0,0,0-.23-.32,1.54,1.54,0,0,1-.74-2.4.38.38,0,0,0,.07-.37A13.72,13.72,0,0,1,3,10.33a5.33,5.33,0,0,1,.16-1.05A2,2,0,0,1,5.82,7.73l.36.09.29-.37a2.56,2.56,0,0,1,2.39-.8,5.55,5.55,0,0,1,1.86.64l.19.09c.25-.26.49-.53.74-.76a1.1,1.1,0,0,1,.93-.3.92.92,0,0,1,.74.84c.17-.15.32-.3.48-.43A1.75,1.75,0,0,1,15,6.31a.9.9,0,0,1,.91.9c0,.11,0,.21,0,.34l.17-.11a5,5,0,0,1,.64-.36A.93.93,0,0,1,18,8.15a4,4,0,0,1-.73,1.6c-.29.42-.63.8-.94,1.21a.45.45,0,0,0-.09.29c0,.82.13,1.63.19,2.45a.19.19,0,0,0,.17.2,1.56,1.56,0,0,1,0,3l-.14.05c0,.42-.05.85-.12,1.26A3.47,3.47,0,0,1,13.24,21L12,21.1ZM4.06,13.92c.22,0,.39-.07.57-.08A1.63,1.63,0,0,0,6,13.09a3.68,3.68,0,0,0,.55-1.36c.08-.36.31-.41.6-.19a6.26,6.26,0,0,0,1.11.73,6.06,6.06,0,0,0,2.94.59,5.28,5.28,0,0,0,2.7-.67,9,9,0,0,0,3.22-3.37A2.6,2.6,0,0,0,17.42,8c.06-.31-.15-.46-.44-.35a1.76,1.76,0,0,0-.51.3c-.32.29-.62.61-.93.92A.31.31,0,0,1,15,8.56a1.47,1.47,0,0,0,.1-.22c.08-.36.17-.71.22-1.06s-.11-.35-.35-.35a1.2,1.2,0,0,0-.77.26,2.89,2.89,0,0,0-.77.93c-.09.16-.17.34-.26.51a.28.28,0,0,1-.35.17.29.29,0,0,1-.23-.34c0-.06,0-.11,0-.16a9.87,9.87,0,0,0,0-1.08c0-.29-.22-.38-.47-.23a1.69,1.69,0,0,0-.44.36c-.32.38-.62.79-.94,1.18A3.39,3.39,0,0,1,9.63,9.61c-.24.11-.41.06-.49-.12s0-.32.23-.44a3.87,3.87,0,0,0,1.22-1.2c-.52-.18-1-.36-1.46-.51a2.59,2.59,0,0,0-.63-.09,1.87,1.87,0,0,0-1.86,1c-.15.27-.25.29-.54.19a3.5,3.5,0,0,0-.55-.17,1.36,1.36,0,0,0-1.74.95,2.92,2.92,0,0,0-.14.6,7.78,7.78,0,0,0,.06,2.31C3.82,12.75,4,13.33,4.06,13.92Zm.29.62a.9.9,0,0,0,0,1.72Zm12.17,1.73a.92.92,0,0,0,0-1.74Z"/><path class="cls-1" d="M17.49,4.5l1.68-1.68a1.24,1.24,0,0,0-1-.55h-.14a.31.31,0,0,1-.31-.3.3.3,0,0,1,.31-.31,2.06,2.06,0,0,1,.55.06.34.34,0,0,0,.31-.07,8.21,8.21,0,0,1,.73-.47A1.48,1.48,0,0,1,20.11,1a.44.44,0,0,1,.51.54,2.31,2.31,0,0,1-.53,1,.67.67,0,0,0-.14.58,1.81,1.81,0,0,1-2.16,2.11.56.56,0,0,0-.48.11,5.44,5.44,0,0,1-1,.54.44.44,0,0,1-.59-.58,6.58,6.58,0,0,1,.59-1.07.45.45,0,0,0,.07-.36,1.79,1.79,0,0,1,.3-1.52c.15-.2.34-.25.49-.13s.16.29,0,.49A1.2,1.2,0,0,0,17.49,4.5Zm.75.19c.56,0,1.22-.63,1.11-1.11ZM19.55,2.3l.33-.49,0,0-.46.31ZM16.89,4.93l-.14-.24-.32.48.05,0Z"/><path class="cls-1" d="M2.07,8.55A2.07,2.07,0,1,1,4.13,6.48,2.07,2.07,0,0,1,2.07,8.55Zm0-.62A1.45,1.45,0,1,0,.62,6.5,1.45,1.45,0,0,0,2.07,7.93Z"/><path class="cls-1" d="M3.33,2.6H2.59c-.24,0-.36-.11-.37-.3S2.35,2,2.57,2h1a.35.35,0,0,1,.37.29c.1.41.22.82.35,1.29l.08-.25.93-3c.09-.3.16-.35.47-.35H7.51C7.82,0,8,.1,8,.31s-.14.31-.44.31H5.82c-.17.53-.34,1.06-.5,1.59L4.54,4.68c0,.17-.12.31-.33.31s-.27-.14-.32-.32C3.73,4,3.55,3.42,3.38,2.79A1.8,1.8,0,0,0,3.33,2.6Z"/><path class="cls-1" d="M20.23,10.35a1.13,1.13,0,0,1-.64,2h-1c-.24,0-.36-.11-.36-.35V9.09c0-.24.12-.35.37-.35h.78a1,1,0,0,1,.91,1.52Zm-1.39,1.4a7.84,7.84,0,0,0,.84,0,.47.47,0,0,0,.39-.49.49.49,0,0,0-.39-.49c-.27,0-.55,0-.84,0Zm0-2.39v.78h.59a.39.39,0,0,0,.36-.4.38.38,0,0,0-.37-.37Z"/><path class="cls-1" d="M11.49,3.51H10a.19.19,0,0,0-.14.11c-.08.16-.13.33-.2.49a.31.31,0,0,1-.4.22A.31.31,0,0,1,9,3.9c.42-1.11.85-2.21,1.27-3.32a.36.36,0,0,1,.38-.26A.35.35,0,0,1,11,.58L12.3,3.91a.31.31,0,1,1-.57.22C11.64,3.93,11.57,3.72,11.49,3.51ZM10.7,1.42h0l-.56,1.46h1.16Z"/><path class="cls-1" d="M6.65,5h1A.32.32,0,0,1,8,5.19a.29.29,0,0,1-.28.39c-.56,0-1.11,0-1.67,0-.32,0-.43-.3-.23-.57.36-.5.73-1,1.09-1.5A2.94,2.94,0,0,0,7.24,3,.49.49,0,0,0,7,2.3a.54.54,0,0,0-.68.3s0,0,0,.06c-.09.23-.23.32-.42.26a.34.34,0,0,1-.18-.45,1.15,1.15,0,0,1,1.13-.82,1.14,1.14,0,0,1,.91,1.8c-.28.44-.6.87-.89,1.31Z"/><path class="cls-1" d="M15,2.1H14.4c-.3,0-.44-.21-.31-.48.22-.47.45-.94.68-1.41A.31.31,0,0,1,15.19,0a.32.32,0,0,1,.13.46l-.48,1c.22,0,.4,0,.59,0s.43.21.3.48c-.22.48-.44.94-.67,1.41-.1.19-.26.26-.42.18s-.23-.25-.13-.45.25-.53.38-.8C14.91,2.25,14.94,2.19,15,2.1Z"/><path class="cls-1" d="M1.9,12.69h.51c.24,0,.36.11.36.3s-.13.3-.35.31H1.87v.54c0,.23-.13.36-.31.36s-.3-.14-.31-.36V13.3H.75c-.26,0-.4-.12-.4-.32s.14-.29.39-.29h.51v-.52c0-.26.12-.39.32-.39s.3.13.3.38,0,.31,0,.46S1.89,12.64,1.9,12.69Z"/><path class="cls-1" d="M10.43,18.13A1.61,1.61,0,0,1,9,17.3c-.12-.22-.09-.39.07-.49s.33,0,.46.17a1,1,0,0,0,1.74,0c.13-.22.29-.28.46-.18s.2.27.08.48A1.61,1.61,0,0,1,10.43,18.13Z"/><path class="cls-1" d="M13.63,4.57c.29-.25.45-.28.59-.13s.11.3-.12.57c.23.36.25.47.11.6s-.28.1-.55-.11a2.62,2.62,0,0,1-.43.18c-.05,0-.14,0-.19-.09s-.11-.27.11-.54c-.06-.15-.14-.28-.18-.42s0-.15.09-.2S13.35,4.32,13.63,4.57Z"/><path class="cls-1" d="M19.93,7.07c-.29.25-.43.28-.58.13s-.12-.29.1-.56a2.26,2.26,0,0,1-.19-.42s0-.14.09-.19.29-.12.58.13c.17-.14.35-.36.6-.11s.1.26-.14.56c.24.31.27.44.13.59S20.24,7.32,19.93,7.07Z"/><path class="cls-1" d="M.63,1.18C.39.87.36.74.5.59s.28-.12.59.13c.31-.25.45-.27.59-.11s.11.28-.14.56c.24.33.27.46.13.6s-.3.11-.58-.14C.92,1.77.75,2,.5,1.76S.39,1.51.63,1.18Z"/><path class="cls-1" d="M7.18,15a4.43,4.43,0,0,1,.27-.61.36.36,0,0,1,.6,0,1,1,0,0,1,0,1.29.36.36,0,0,1-.57,0A3.65,3.65,0,0,1,7.18,15Z"/><path class="cls-1" d="M13.69,15a4.46,4.46,0,0,1-.29.62.36.36,0,0,1-.59,0,1,1,0,0,1,0-1.27.36.36,0,0,1,.6,0A4.11,4.11,0,0,1,13.69,15Z"/><path class="cls-1" d="M2.37,6.17h.12c.22,0,.35.14.34.32s-.14.29-.35.3H2.25c-.42,0-.49-.08-.49-.51,0-.21,0-.41,0-.62s.12-.38.31-.38.3.15.3.39S2.37,6,2.37,6.17Z"/></g></g></svg>