<svg width="50" height="50" viewBox="0 0 50 50" fill="none" xmlns="http://www.w3.org/2000/svg">
<path d="M9.49011 12.3559V15.5915C9.49011 17.855 11.4197 19.6965 13.7915 19.6965C16.1632 19.6965 18.0927 17.855 18.0927 15.5915C18.0927 15.0229 18.5757 14.562 19.1715 14.562C19.7674 14.562 20.2503 15.0229 20.2503 15.5915C20.2503 18.9903 17.3529 21.7555 13.7915 21.7555C10.23 21.7555 7.3325 18.9904 7.3325 15.5915V12.3559C7.3325 11.7873 7.81545 11.3264 8.41131 11.3264C9.00717 11.3264 9.49011 11.7873 9.49011 12.3559ZM3.72199 17.724C4.31785 17.724 4.80079 17.2631 4.80079 16.6945V10.6389C4.80079 5.90793 8.83384 2.05903 13.7917 2.05903C18.5661 2.05903 22.4831 5.62916 22.7656 10.119C22.7764 10.291 22.7819 10.893 22.7819 10.893C21.2895 10.0278 19.2913 9.7232 17.441 9.441C13.7626 8.88014 12.1621 8.4331 12.2716 6.50768C12.3041 5.93996 11.8479 5.4546 11.253 5.42383C10.6574 5.39386 10.1495 5.82831 10.1173 6.39603C10.015 8.19116 10.811 9.51604 12.4833 10.3339C13.7793 10.9679 15.4676 11.2253 17.1006 11.4743C20.1711 11.9425 22.2429 12.3732 22.7819 13.9587V16.6946C22.7819 18.0811 21.8443 20.056 20.5524 21.3903C20.1481 21.808 20.1751 22.4593 20.6127 22.8452C20.8201 23.0282 21.0827 23.1186 21.3445 23.1186C21.6349 23.1186 21.9245 23.0073 22.137 22.7876C23.8131 21.0563 24.9394 18.6077 24.9394 16.6946V13.8283C24.9396 13.8167 24.9396 13.805 24.9394 13.7932V10.6389C24.9395 4.7726 19.9387 0 13.7913 0C7.64416 0 2.64319 4.7726 2.64319 10.6389V16.6945C2.64319 17.2631 3.12613 17.724 3.72199 17.724ZM25.9323 29.7023C24.9706 28.1352 23.2302 26.978 21.3905 26.6823L17.8308 26.1101C17.2701 26.0201 16.7314 26.3612 16.6013 26.89L12.741 42.5854C12.6049 43.139 12.9647 43.6931 13.5447 43.8229C14.125 43.9531 14.7054 43.6095 14.8415 43.0559L18.4704 28.3008L21.032 28.7126C22.2585 28.9098 23.4227 29.6877 24.0704 30.7428C24.5618 31.5435 24.6758 32.4016 24.3914 33.1587L18.8365 47.941H7.86735L2.31259 33.159C2.02815 32.4017 2.14214 31.5435 2.63372 30.7428C3.28124 29.6877 4.44539 28.9099 5.67211 28.7127L8.24673 28.2989L10.3551 34.2131C10.5471 34.7515 11.1601 35.0394 11.7238 34.8562C12.2879 34.673 12.5896 34.0883 12.3977 33.55L9.99379 26.8066C9.82346 26.3286 9.31498 26.0393 8.7932 26.1229L5.31358 26.6823C3.47399 26.978 1.73376 28.1352 0.771823 29.7021C0.466402 30.1997 0.250642 30.7164 0.1261 31.2383C0.0190589 31.6869 0 34.0368 0 34.0368V48.9705C0 49.5391 0.482944 50 1.0788 50C1.67466 50 2.15761 49.5391 2.15761 48.9705V38.8461L6.0926 49.318C6.24627 49.7271 6.65274 50 7.10811 50H19.5959C20.0512 50 20.4576 49.7271 20.6114 49.318L24.5464 38.8463V48.9705C24.5464 49.5391 25.0293 50 25.6252 50C26.221 50 26.704 49.5391 26.704 48.9705V34.2657C26.704 34.2657 26.7079 32.2571 26.7 32.0914C26.6614 31.2838 26.4035 30.4702 25.9323 29.7023ZM4.83555 32.3085V33.1121C4.83555 33.6807 5.3185 34.1416 5.91436 34.1416C6.51022 34.1416 6.99316 33.6807 6.99316 33.1121V32.3085C6.99316 31.7398 6.51022 31.279 5.91436 31.279C5.3185 31.279 4.83555 31.7399 4.83555 32.3085ZM48.9212 11.7547H40.1599L33.3733 3.2591C33.1692 3.00367 32.8518 2.85382 32.5154 2.85382C32.1789 2.85382 31.8615 3.00378 31.6575 3.2591L27.7287 8.17698C27.3674 8.62917 27.4588 9.27513 27.9326 9.6199C28.4062 9.96479 29.0834 9.87763 29.4445 9.42532L32.5154 5.58134L37.4469 11.7545H30.3073C29.7114 11.7545 29.2285 12.2154 29.2285 12.7841C29.2285 13.3527 29.7114 13.8136 30.3073 13.8136H39.6158C39.6231 13.8137 39.6303 13.8137 39.6376 13.8136H47.8425V38.487H32.6449C32.0491 38.487 31.5661 38.9479 31.5661 39.5166C31.5661 40.0852 32.0491 40.5461 32.6449 40.5461H48.9212C49.5171 40.5461 50 40.0852 50 39.5166V12.7842C50 12.2157 49.5169 11.7547 48.9212 11.7547ZM43.3551 35.2935C43.5658 35.4945 43.8418 35.595 44.1179 35.595C44.3939 35.595 44.67 35.4945 44.8807 35.2935C45.3021 34.8914 45.3021 34.2396 44.8807 33.8375L42.057 31.1428V21.1582L44.8807 18.4637C45.3022 18.0616 45.3022 17.4098 44.8808 17.0077C44.4595 16.6056 43.7766 16.6056 43.3551 17.0077L40.5313 19.7023H30.8477C30.2518 19.7023 29.7688 20.1632 29.7688 20.7318C29.7688 21.3004 30.2518 21.7613 30.8477 21.7613H39.8994V30.5398H30.8477C30.2518 30.5398 29.7688 31.0006 29.7688 31.5693C29.7688 32.1379 30.2518 32.5988 30.8477 32.5988H40.5313L43.3551 35.2935Z" fill="#333333"/>
</svg>
