<svg xmlns="http://www.w3.org/2000/svg" viewBox="0 0 20.43 20.43"><defs><style>.cls-1{fill:#727271;}</style></defs><title>Public Safety and Legal Studies</title><g id="Layer_2" data-name="Layer 2"><g id="Layer_1-2" data-name="Layer 1"><path class="cls-1" d="M0,7.38a1.53,1.53,0,0,1,.61-.92,1.34,1.34,0,0,1,2.06,1v4.84c.19-.09.36-.21.54-.28a1.18,1.18,0,0,1,1.08.07,25.25,25.25,0,0,1,2.1,1.45,5.73,5.73,0,0,1,2,3.45c.19.93.39,1.86.59,2.79A.78.78,0,0,1,9,20a.41.41,0,0,1-.33.45.39.39,0,0,1-.44-.32c-.1-.41-.18-.83-.27-1.24-.14-.68-.28-1.35-.44-2a4.94,4.94,0,0,0-2.14-3.06l-1.29-.87a.62.62,0,0,0-.86.07.68.68,0,0,0,0,.91L5,15.78a1.18,1.18,0,0,1,.17.22.37.37,0,0,1-.09.47.39.39,0,0,1-.46,0,.75.75,0,0,1-.16-.15L2.73,14.51a3,3,0,0,1-.86-2.17c0-1.53,0-3.07,0-4.6a2.17,2.17,0,0,0,0-.26.52.52,0,0,0-.56-.43.53.53,0,0,0-.5.48v6.09a3.3,3.3,0,0,0,.65,2.05c.2.27.4.54.58.83a.46.46,0,0,1,.1.34.48.48,0,0,1-.27.3.4.4,0,0,1-.38-.1A6.83,6.83,0,0,1,.2,15a8.71,8.71,0,0,1-.2-.85Z"/><path class="cls-1" d="M10.29,0a.45.45,0,0,1,.32.51V.93c0,.28-.16.46-.39.46s-.4-.18-.41-.47c0-.12,0-.24,0-.36A.54.54,0,0,1,10.09,0Z"/><path class="cls-1" d="M11.31,8.88l-.7,1.61a.41.41,0,0,1-.79,0L9.21,9.1,9.1,8.86a12.64,12.64,0,0,0-1.51.48,1.38,1.38,0,0,0-.81,1.16c0,.42,0,.85,0,1.28h.76V11a.41.41,0,0,1,.36-.43.41.41,0,0,1,.44.43v.79h.34c.29,0,.45.14.46.38s-.16.41-.46.41H6.43c-.32,0-.48-.16-.48-.48v-1.5H4.17c-.24,0-.4-.11-.42-.31a3.31,3.31,0,0,1,.1-1.5A1.89,1.89,0,0,1,5.26,7.62l.48-.11Q6,7.44,5.8,7.3a1.9,1.9,0,0,1-.69-1.68,5.31,5.31,0,0,1,.11-1.2,1.75,1.75,0,0,1,2.7-.91l.13.09a2.35,2.35,0,0,1,4.33,0,1.86,1.86,0,0,1,1.19-.42,1.74,1.74,0,0,1,1.72,1.57,7.59,7.59,0,0,1,0,1.43,1.54,1.54,0,0,1-.6,1.07,1,1,0,0,0-.12.17,1.14,1.14,0,0,0,.19.1,6.11,6.11,0,0,1,.86.26,1.83,1.83,0,0,1,1.1,1.73v.62c0,.33-.16.48-.5.48H14.48v.21c0,.43,0,.86,0,1.29s-.15.48-.45.48H11.68a.4.4,0,0,1-.44-.41c0-.23.17-.37.45-.38.12,0,.25,0,.4,0,0-.28,0-.55,0-.81a.39.39,0,0,1,.57-.37.4.4,0,0,1,.22.39c0,.25,0,.51,0,.77h.79c0-.76.16-1.56-.47-2.17a1.87,1.87,0,0,0-.64-.4C12.17,9.07,11.75,9,11.31,8.88ZM8.7,5.37c0,.18,0,.36,0,.54A1.53,1.53,0,0,0,9.87,7.26a1.56,1.56,0,0,0,1.64-.67,2.26,2.26,0,0,0,.23-1.35s-.06-.1-.1-.13l-.58-.34a.18.18,0,0,0-.25,0,2.07,2.07,0,0,1-1,.5C9.42,5.34,9.07,5.34,8.7,5.37ZM7.91,8.3c-.31-.13-.83,0-.8-.63H6.68c0,.39-.11.46-.47.55l-.8.19a1.12,1.12,0,0,0-.86,1.4H6a.24.24,0,0,0,.25-.15,1.93,1.93,0,0,1,.71-.86C7.25,8.61,7.6,8.46,7.91,8.3Zm8,1.51a1.16,1.16,0,0,0-1-1.43l-.83-.2a.4.4,0,0,1-.32-.38.51.51,0,0,0,0-.13h-.43c0,.37-.19.5-.51.55a3.21,3.21,0,0,0-.35.1c.05,0,.07,0,.1,0a2.47,2.47,0,0,1,1.69,1.36.2.2,0,0,0,.13.09ZM8.7,4.53A2,2,0,0,0,10.54,4a.4.4,0,0,1,.56-.08l.61.35a1.52,1.52,0,0,0-3,.31ZM5.91,5.7a1,1,0,0,0,.5,1,1,1,0,0,0,1.06,0,1.27,1.27,0,0,0,.4-1.28A4.53,4.53,0,0,1,5.91,5.7Zm6.65-.28c0,.54,0,1,.49,1.32a1,1,0,0,0,1.08-.07,1,1,0,0,0,.38-1A4.63,4.63,0,0,1,12.56,5.42ZM7.79,4.57a1,1,0,0,0-1.86.32A3.43,3.43,0,0,0,7.79,4.57Zm6.71.32a1,1,0,0,0-.81-.9.94.94,0,0,0-1,.58A3.38,3.38,0,0,0,14.5,4.89ZM10.69,8.08H9.74a3.61,3.61,0,0,0,.47,1.27A3.83,3.83,0,0,0,10.69,8.08ZM8.2,7.1,8,7.3c-.09.08-.11.16,0,.2l.75.19Zm3.46.59.74-.19c.14,0,.15-.1.06-.19a3.47,3.47,0,0,0-.29-.25l.06.08Z"/><path class="cls-1" d="M17.75,12.36V7.65a1.34,1.34,0,1,1,2.67-.1.85.85,0,0,1,0,.16c0,2,0,4,0,6A3.92,3.92,0,0,1,19.69,16l-3,4.16-.06.08a.39.39,0,0,1-.52.09.37.37,0,0,1-.13-.52,3.42,3.42,0,0,1,.26-.4c.88-1.24,1.76-2.49,2.65-3.72a3.57,3.57,0,0,0,.69-2.16c0-2,0-3.89,0-5.84a1,1,0,0,0,0-.34A.52.52,0,0,0,19.07,7a.51.51,0,0,0-.48.38,1.1,1.1,0,0,0,0,.31v4.65a2.87,2.87,0,0,1-.81,2.08c-.6.64-1.2,1.28-1.81,1.91a.63.63,0,0,1-.23.17.36.36,0,0,1-.43-.13.38.38,0,0,1,0-.45c0-.06.1-.12.15-.18.59-.63,1.18-1.25,1.76-1.88a.66.66,0,0,0,.09-.87.56.56,0,0,0-.75-.2,13.12,13.12,0,0,0-2.3,1.67,5.39,5.39,0,0,0-1.4,2.82c-.17.9-.37,1.8-.56,2.71-.07.35-.37.5-.63.32a.43.43,0,0,1-.15-.48c.25-1.17.46-2.35.76-3.5a5.69,5.69,0,0,1,2.43-3.28c.37-.25.75-.48,1.1-.74A1.49,1.49,0,0,1,17.75,12.36Z"/><path class="cls-1" d="M3,19.13a1.61,1.61,0,0,1,.28-.3.3.3,0,0,1,.41.06,11.09,11.09,0,0,1,.7,1,.35.35,0,0,1-.15.48.36.36,0,0,1-.48-.06c-.24-.31-.45-.62-.67-.94a.53.53,0,0,1,0-.19Z"/><path class="cls-1" d="M8.89,1.61c-.08.1-.14.25-.24.3a.46.46,0,0,1-.38,0,3,3,0,0,1-.56-.56.34.34,0,0,1,0-.44C7.86.78,8,.7,8.17.8s.44.44.66.66c0,0,0,.08,0,.12Z"/><path class="cls-1" d="M12.76,1.09c0,.33-.56.92-.8.89a.48.48,0,0,1-.33-.21.39.39,0,0,1,0-.38,2.22,2.22,0,0,1,.53-.53.42.42,0,0,1,.38,0C12.66.89,12.72,1,12.76,1.09Z"/><path class="cls-1" d="M2.63,17.63A.4.4,0,0,1,3,18a.4.4,0,0,1-.41.4.39.39,0,0,1-.38-.4A.37.37,0,0,1,2.63,17.63Z"/><path class="cls-1" d="M10.61,12.2a.41.41,0,0,1-.4.39.4.4,0,1,1,0-.79A.41.41,0,0,1,10.61,12.2Z"/></g></g></svg>