<svg width="409" height="164" viewBox="0 0 409 164" fill="none" xmlns="http://www.w3.org/2000/svg">
<path fill-rule="evenodd" clip-rule="evenodd" d="M368 82C390.644 82 409 63.6437 409 41C409 18.3563 390.644 0 368 0C345.356 0 327 18.3563 327 41C327 18.3563 308.644 0 286 0C263.356 0 245 18.3563 245 41L245 0L163 0L129 0C102.49 0 81 21.4903 81 48L81 0L23 0C9.74517 0 -1 10.7452 -1 24L-1 82L40 82C17.3563 82 -1 100.356 -1 123C-1 145.644 17.3563 164 40 164L40 82L57 82C70.2548 82 81 71.2548 81 58L81 82H81.25C58.6063 82 40.25 100.356 40.25 123C40.25 145.644 58.6063 164 81.25 164L81.25 127.553C83.5152 148.054 100.895 164 122 164C144.644 164 163 145.644 163 123C163 100.356 144.644 82 122 82C100.895 82 83.5152 97.9457 81.25 118.447L81.25 82L115 82C141.51 82 163 60.5097 163 34L163 82L211 82C184.49 82 163 103.49 163 130L163 164L197 164C223.51 164 245 142.51 245 116L245 82C245 104.644 263.356 123 286 123L245 123C245 145.644 263.356 164 286 164C308.644 164 327 145.644 327 123C327 145.644 345.356 164 368 164C390.644 164 409 145.644 409 123C409 100.356 390.644 82 368 82ZM368 82C345.356 82 327 100.356 327 123L286 123C308.644 123 327 104.644 327 82L286 82C308.644 82 327 63.6437 327 41C327 63.6437 345.356 82 368 82ZM286 82L245 82L245 41C245 63.6437 263.356 82 286 82ZM305.609 40.9997C305.609 51.8293 296.83 60.6084 286 60.6084C275.171 60.6084 266.392 51.8293 266.392 40.9997C266.392 30.1702 275.171 21.3911 286 21.3911C296.83 21.3911 305.609 30.1702 305.609 40.9997Z" fill="white"/>
</svg>
