<svg width="34" height="34" viewBox="0 0 34 34" fill="none" xmlns="http://www.w3.org/2000/svg">
<g clip-path="url(#clip0_7_71)">
<path d="M0.572354 15.25H-2.51855V35.3409C-2.51855 36.1944 -1.8266 36.8864 -0.9731 36.8864H16.0269V33.7955V31.6099V22.9773C16.0269 22.1239 16.7189 21.4318 17.5724 21.4318H26.205H28.3905H31.4814V15.25H28.3905H0.572354Z" fill="white"/>
<path d="M26.2049 24.5234H19.1178V31.6106V35.9818L30.5761 24.5234H26.2049Z" fill="white"/>
<path d="M29.936 5.97763H21.1784V4.43217C21.1784 3.57867 20.4865 2.88672 19.633 2.88672C18.7795 2.88672 18.0875 3.57867 18.0875 4.43217V5.97763H10.8754V4.43217C10.8754 3.57867 10.1834 2.88672 9.32993 2.88672C8.47643 2.88672 7.78448 3.57867 7.78448 4.43217V5.97763H-0.9731C-1.8266 5.97763 -2.51855 6.66958 -2.51855 7.52308V12.1594H0.572354H28.3905H31.4814V7.52308C31.4814 6.66958 30.7895 5.97763 29.936 5.97763Z" fill="white"/>
</g>
<defs>
<clipPath id="clip0_7_71">
<rect width="34" height="34" fill="white"/>
</clipPath>
</defs>
</svg>
