<svg width="4" height="11" viewBox="0 0 4 11" fill="none" xmlns="http://www.w3.org/2000/svg">
<path d="M0.250019 4H3.74997C3.81768 4 3.87629 3.95605 3.92575 3.86807C3.97518 3.78012 4 3.67597 4 3.55559C4 3.43522 3.9752 3.33111 3.92575 3.24304L2.17577 0.131929C2.12632 0.0440736 2.06775 0 2 0C1.93225 0 1.87368 0.0440736 1.82419 0.131929L0.0742094 3.24304C0.0247228 3.33101 0 3.43522 0 3.55559C0 3.67594 0.0247228 3.78012 0.0742094 3.86807C0.123751 3.95605 0.182322 4 0.250019 4Z" fill="#727271"/>
<path d="M3.74997 7H0.250019C0.182267 7 0.123696 7.04398 0.0742094 7.13186C0.0247228 7.21984 0 7.32397 0 7.44434C0 7.56472 0.0247228 7.66893 0.0742094 7.75686L1.82419 10.868C1.87373 10.956 1.9323 11 2 11C2.0677 11 2.12632 10.956 2.17577 10.868L3.92575 7.75683C3.97518 7.66892 4 7.56472 4 7.44432C4 7.32397 3.9752 7.21984 3.92575 7.13183C3.8763 7.04388 3.81768 7 3.74997 7Z" fill="#727271"/>
</svg>
