<svg width="44" height="50" viewBox="0 0 44 50" fill="none" xmlns="http://www.w3.org/2000/svg">
<path d="M2 48V44.3685C2 37.0142 8.15608 31.0526 15.75 31.0526H28.25C35.844 31.0526 42 37.0142 42 44.3685V48M12 48V41.9474M32 48V41.5437M13.25 12.8947C18.285 17.0742 25.715 17.0742 30.75 12.8947M32 14.1053V9.08776L35.6642 3.89338C36.2312 3.08991 35.637 2 34.6322 2H9.3678C8.363 2 7.76888 3.08991 8.33568 3.89338L12 9.08776V14.1053M32 16.5263C32 21.8747 27.5228 26.2105 22 26.2105C16.4771 26.2105 12 21.8747 12 16.5263V10.4737H32V16.5263Z" stroke="#333333" stroke-width="2.3" stroke-linecap="round" stroke-linejoin="round"/>
</svg>
