<svg width="21" height="20" viewBox="0 0 21 20" fill="none" xmlns="http://www.w3.org/2000/svg">
<path d="M18.0556 2.92227C16.666 1.53056 14.8946 0.581334 12.965 0.1945C11.0355 -0.192334 9.03443 0.000578594 7.21462 0.748869C5.39481 1.49716 3.83791 2.76726 2.74058 4.39871C1.64325 6.03017 1.05474 7.9498 1.04937 9.9151C1.02767 11.6556 1.48936 13.3681 2.3832 14.8624L0.954102 20L6.24176 18.6205C7.70074 19.4196 9.34152 19.8292 11.0054 19.8097C12.9681 19.8177 14.8889 19.2434 16.5243 18.1597C18.1597 17.076 19.4359 15.5317 20.1912 13.7226C20.9464 11.9136 21.1466 9.92132 20.7664 7.99848C20.3862 6.07565 19.4427 4.30889 18.0556 2.92227ZM11.0054 18.1448C9.39838 18.1563 7.82384 17.6928 6.47995 16.8128L3.33593 17.6691L4.19339 14.6246C3.24642 13.2347 2.73259 11.5961 2.71665 9.9151C2.70722 8.27603 3.18532 6.67106 4.09035 5.30363C4.99537 3.9362 6.28658 2.86789 7.8003 2.2341C9.31402 1.60032 10.9821 1.4296 12.5931 1.74359C14.2041 2.05757 15.6854 2.84213 16.8494 3.9978C18.0134 5.15348 18.8076 6.62824 19.1313 8.23515C19.455 9.84206 19.2936 11.5088 18.6677 13.024C18.0418 14.5392 16.9794 15.8348 15.6153 16.7464C14.2512 17.6581 12.6468 18.1447 11.0054 18.1448Z" fill="#727271"/>
<path d="M15.5308 12.0083C14.9782 11.7001 14.4053 11.4299 13.8159 11.1996C13.6253 11.1044 13.4348 11.0569 13.2919 11.2947C13.149 11.5326 12.625 12.1034 12.482 12.2937C12.4176 12.3674 12.3272 12.4134 12.2296 12.4223C12.132 12.4311 12.0348 12.4021 11.958 12.3413C11.2281 12.0407 10.5522 11.6229 9.95731 11.1044C9.41097 10.6083 8.94495 10.0306 8.57584 9.39191C8.54945 9.35489 8.53093 9.31286 8.52141 9.26842C8.5119 9.22398 8.5116 9.17806 8.52052 9.1335C8.52945 9.08894 8.54741 9.04667 8.57331 9.0093C8.59921 8.97193 8.6325 8.94025 8.67112 8.91621L9.05221 8.44051C9.14844 8.32497 9.22856 8.19695 9.29039 8.05995C9.32802 7.99486 9.34783 7.92103 9.34783 7.84588C9.34783 7.77073 9.32802 7.6969 9.29039 7.63181C9.19512 7.4891 8.71875 6.29985 8.52821 5.77657C8.33766 5.2533 8.09948 5.34844 7.95657 5.34844H7.4802C7.35046 5.34653 7.22215 5.37578 7.10609 5.43373C6.99003 5.49168 6.88961 5.57663 6.81329 5.68143C6.52909 5.93888 6.30499 6.25553 6.15682 6.60899C6.00865 6.96245 5.94004 7.3441 5.95583 7.72695C6.03888 8.66056 6.38581 9.5514 6.9562 10.2957C7.09911 10.4385 8.71875 12.9597 11.1959 14.0062C11.654 14.2267 12.1327 14.4019 12.625 14.5295C13.1316 14.6982 13.6737 14.731 14.197 14.6246C14.6733 14.5771 15.6737 14.0538 15.8642 13.483C16.0548 12.9121 16.1024 12.3888 16.0071 12.2937C15.8785 12.1556 15.7134 12.0566 15.5308 12.0083Z" fill="#727271"/>
</svg>
