<svg width="32" height="21" viewBox="0 0 32 21" fill="none" xmlns="http://www.w3.org/2000/svg">
<path d="M22.4 5.52632V18.7895C22.3994 19.3755 22.1744 19.9374 21.7744 20.3518C21.3745 20.7662 20.8323 20.9993 20.2667 21H5.33333C3.91934 20.9983 2.56373 20.4156 1.56388 19.3795C0.56404 18.3435 0.00161766 16.9388 0 15.4737V2.21053C0.000646851 1.62446 0.225616 1.0626 0.625553 0.648189C1.02549 0.23378 1.56774 0.000670256 2.13333 0H17.0667C18.4807 0.00167619 19.8363 0.58445 20.8361 1.62047C21.836 2.65649 22.3984 4.06116 22.4 5.52632ZM31.4688 2.91251C31.3071 2.81538 31.1238 2.76391 30.9369 2.76324C30.7501 2.76258 30.5664 2.81275 30.4042 2.90874L25.0708 6.06667C24.9075 6.16334 24.7718 6.30302 24.6774 6.47156C24.583 6.64009 24.5333 6.83149 24.5333 7.02635V13.9736C24.5333 14.1685 24.583 14.3599 24.6774 14.5284C24.7718 14.697 24.9075 14.8367 25.0708 14.9333L30.4042 18.0913C30.5664 18.1873 30.7501 18.2375 30.9369 18.2368C31.1238 18.2362 31.3071 18.1847 31.4687 18.0875C31.6303 17.9903 31.7644 17.8509 31.8577 17.6831C31.9509 17.5154 32 17.3252 32 17.1316V3.86842C32 3.67483 31.951 3.48463 31.8577 3.31687C31.7645 3.1491 31.6304 3.00966 31.4688 2.91251Z" fill="white"/>
</svg>
