<?xml version="1.0" standalone="no"?>
<!DOCTYPE svg PUBLIC "-//W3C//DTD SVG 20010904//EN"
 "http://www.w3.org/TR/2001/REC-SVG-20010904/DTD/svg10.dtd">
<svg version="1.0" xmlns="http://www.w3.org/2000/svg"
 width="700.000000pt" height="700.000000pt" viewBox="0 0 700.000000 700.000000"
 preserveAspectRatio="xMidYMid meet">
<metadata>
Created by potrace 1.14, written by Peter Selinger 2001-2017
</metadata>
<g transform="translate(0.000000,700.000000) scale(0.100000,-0.100000)"
fill="#000000" stroke="none">
<path d="M1760 6704 c-135 -184 -283 -450 -355 -639 -128 -334 -185 -651 -179
-1002 3 -150 11 -257 30 -363 2 -14 7 -41 10 -60 11 -70 65 -277 89 -340 20
-54 24 -60 25 -35 5 126 58 292 148 469 41 79 47 87 58 71 43 -58 143 -409
187 -655 3 -14 10 -52 16 -85 6 -33 13 -78 16 -100 3 -22 10 -62 15 -90 5 -27
12 -72 16 -100 4 -27 9 -57 10 -65 2 -8 5 -35 8 -60 3 -25 10 -76 15 -115 6
-38 13 -99 17 -135 3 -36 9 -69 11 -73 14 -23 250 433 331 638 80 202 170 510
187 640 3 28 10 68 15 90 5 22 11 76 15 120 4 44 8 91 11 105 6 37 5 337 -1
395 -14 128 -25 207 -44 302 -31 158 -106 389 -167 520 -19 39 -34 74 -34 77
0 3 -22 44 -50 92 -27 48 -50 89 -50 91 0 2 -26 43 -59 91 -79 117 -198 266
-227 284 -5 4 -34 -27 -64 -68z"/>
<path d="M4489 6015 c-3 -2 -23 -7 -44 -11 -145 -23 -441 -120 -621 -205 -186
-87 -437 -246 -561 -354 -144 -126 -232 -214 -348 -348 -12 -13 -109 -142
-140 -184 -72 -99 -229 -389 -250 -462 -6 -21 2 -17 51 26 72 62 143 106 254
160 112 54 234 98 228 81 -3 -7 -15 -42 -27 -78 -22 -69 -127 -286 -185 -385
-20 -33 -39 -67 -43 -75 -31 -67 -362 -574 -485 -744 -15 -22 -27 -41 -25 -43
6 -5 289 93 408 142 951 390 1559 1036 1774 1885 44 175 65 327 69 510 l2 90
-26 0 c-15 0 -29 -2 -31 -5z"/>
<path d="M4138 3855 c-2 -2 -41 -6 -88 -9 -154 -13 -347 -48 -475 -87 -72 -22
-103 -39 -69 -37 45 2 142 -20 249 -58 97 -34 305 -140 305 -156 0 -9 -118
-53 -207 -78 -89 -25 -225 -55 -334 -74 -46 -9 -93 -17 -105 -20 -12 -2 -45
-7 -74 -11 -29 -4 -61 -8 -70 -10 -19 -4 -238 -32 -305 -39 -22 -3 -83 -10
-135 -16 -145 -16 -171 -19 -227 -21 -29 -1 -50 -6 -47 -10 8 -14 263 -163
394 -231 103 -54 214 -104 395 -179 104 -43 384 -125 490 -144 17 -3 41 -8 55
-10 14 -3 34 -7 45 -9 47 -9 131 -20 250 -31 144 -14 439 -8 530 10 11 2 43 7
70 10 175 20 461 106 653 196 46 21 85 39 87 39 6 0 187 104 235 136 52 33
181 131 225 169 l30 27 -40 34 c-119 102 -344 246 -520 333 -302 150 -555 224
-915 266 -52 7 -397 14 -402 10z"/>
<path d="M2478 2764 c5 -10 10 -23 11 -29 3 -25 93 -282 136 -387 57 -138 157
-340 233 -468 353 -603 848 -1022 1444 -1223 115 -39 277 -82 348 -92 24 -4
47 -8 50 -10 3 -2 37 -6 75 -10 39 -4 84 -9 100 -11 49 -6 217 -6 223 1 8 8
-15 122 -55 265 -125 454 -345 844 -659 1166 -62 64 -100 100 -214 198 -108
94 -367 262 -496 321 -112 52 -164 75 -164 71 0 -1 12 -16 26 -32 89 -101 177
-253 238 -411 20 -51 36 -94 36 -97 0 -6 -70 15 -140 43 -228 92 -675 359
-1069 639 -119 84 -139 95 -123 66z"/>
</g>
</svg>
